SplineFontDB: 3.0
FontName: NewCode-Regular
FullName: New Code
FamilyName: New Code
Weight: Regular
Copyright: (c) 2015 Adobe & Nathan Rutzky & Guillaume Vivies
Version: 1.001
ItalicAngle: 0
UnderlinePosition: -100
UnderlineWidth: 50
Ascent: 750
Descent: 250
InvalidEm: 0
sfntRevision: 0x00010000
LayerCount: 2
Layer: 0 0 "Arri+AOgA-re" 1
Layer: 1 0 "Avant" 0
XUID: [1021 924 1960966456 13095]
StyleMap: 0x0040
FSType: 8
OS2Version: 3
OS2_WeightWidthSlopeOnly: 0
OS2_UseTypoMetrics: 0
CreationTime: 1432775446
ModificationTime: 1555247436
PfmFamily: 81
TTFWeight: 400
TTFWidth: 5
LineGap: 0
VLineGap: 0
Panose: 0 0 4 9 0 0 0 0 0 0
OS2TypoAscent: 750
OS2TypoAOffset: 0
OS2TypoDescent: -250
OS2TypoDOffset: 0
OS2TypoLinegap: 0
OS2WinAscent: 984
OS2WinAOffset: 0
OS2WinDescent: 273
OS2WinDOffset: 0
HheadAscent: 984
HheadAOffset: 0
HheadDescent: -273
HheadDOffset: 0
OS2SubXSize: 650
OS2SubYSize: 600
OS2SubXOff: 0
OS2SubYOff: 75
OS2SupXSize: 650
OS2SupYSize: 600
OS2SupXOff: 0
OS2SupYOff: 350
OS2StrikeYSize: 50
OS2StrikeYPos: 306
OS2CapHeight: 660
OS2XHeight: 510
OS2Vendor: 'GVIV'
OS2CodePages: 20000193.00000000
OS2UnicodeRanges: 00000007.00000000.00000000.00000000
Lookup: 1 0 0 "'aalt' Activer toutes les variantes dans Latin lookup 0" { "sous-table 'aalt' Activer toutes les variantes dans Latin lookup 0"  } ['aalt' ('DFLT' <'dflt' > 'latn' <'CAT ' 'dflt' > ) ]
Lookup: 3 0 0 "'aalt' Activer toutes les variantes dans Latin lookup 1" { "sous-table 'aalt' Activer toutes les variantes dans Latin lookup 1"  } ['aalt' ('DFLT' <'dflt' > 'latn' <'CAT ' 'dflt' > ) ]
Lookup: 6 0 0 "'ccmp' Composition et d+AOkA-composition de glyphe (CJC) dans Latin lookup 2" { "'ccmp' Composition et d+AOkA-composition de glyphe (CJC) dans Latin lookup 2 contextuel 0"  "'ccmp' Composition et d+AOkA-composition de glyphe (CJC) dans Latin lookup 2 contextuel 1"  } ['ccmp' ('latn' <'dflt' > ) ]

StartChar: .notdef
Encoding: 65536 -1 0
Width: 600
Flags: W
HStem: 0 60<170 427> 602 58<182 417>
VStem: 62 65<112 574> 472 66<112 574>
LayerCount: 2
Fore
SplineSet
62 0 m 1
 62 660 l 1
 538 660 l 1
 538 0 l 1
 62 0 l 1
298 389 m 1
 302 389 l 1
 339 461 378 532 417 602 c 1
 182 602 l 1
 221 532 260 461 298 389 c 1
127 112 m 1
 255 342 l 1
 127 574 l 1
 127 112 l 1
472 112 m 1
 472 574 l 1
 345 342 l 1
 472 112 l 1
170 60 m 1
 427 60 l 1
 354 192 l 1
 302 295 l 1
 298 295 l 1
 257 215 214 137 170 60 c 1
EndSplineSet
Validated: 1
EndChar

StartChar: A
Encoding: 65 65 2
Width: 600
GlyphClass: 2
Flags: W
HStem: 0 21G<36 115.381 481.714 564> 210 58<196 403> 600 60<291.811 308.164>
LayerCount: 2
Fore
SplineSet
36 0 m 1
 260 660 l 1
 340 660 l 1
 564 0 l 1
 488 0 l 1
 422 210 l 1
 176 210 l 1
 109 0 l 1
 36 0 l 1
196 268 m 1
 403 268 l 1
 369 376 l 2
 345 452 324 522 302 600 c 1
 298 600 l 1
 276 522 254 452 230 376 c 2
 196 268 l 1
EndSplineSet
Validated: 1
EndChar

StartChar: Aacute
Encoding: 193 193 3
Width: 600
GlyphClass: 2
Flags: W
HStem: 0 21G<36 115.381 481.714 564> 210 58<196 403> 600 60<291.811 308.164>
LayerCount: 2
Fore
SplineSet
254 710 m 1
 343 822 l 1
 425 822 l 1
 314 710 l 1
 254 710 l 1
36 0 m 1
 260 660 l 1
 340 660 l 1
 564 0 l 1
 488 0 l 1
 422 210 l 1
 176 210 l 1
 109 0 l 1
 36 0 l 1
196 268 m 1
 403 268 l 1
 369 377 l 2
 345 453 324 522 302 600 c 1
 298 600 l 1
 276 522 254 453 230 377 c 2
 196 268 l 1
EndSplineSet
Validated: 1
EndChar

StartChar: Abreve
Encoding: 258 258 4
Width: 600
GlyphClass: 2
Flags: W
HStem: 0 21G<36 115.381 481.714 564> 210 58<196 403> 600 60<291.811 308.164> 712 42<248.564 351.436>
VStem: 180 44<777.689 822> 376 44<777.689 822>
LayerCount: 2
Fore
SplineSet
300 712 m 0
 222 712 187 769 180 822 c 1
 224 822 l 1
 230 789 253 754 300 754 c 0
 347 754 370 789 376 822 c 1
 420 822 l 1
 413 769 378 712 300 712 c 0
36 0 m 1
 260 660 l 1
 340 660 l 1
 564 0 l 1
 488 0 l 1
 422 210 l 1
 176 210 l 1
 109 0 l 1
 36 0 l 1
196 268 m 1
 403 268 l 1
 369 377 l 2
 345 453 324 522 302 600 c 1
 298 600 l 1
 276 522 254 453 230 377 c 2
 196 268 l 1
EndSplineSet
Validated: 1
EndChar

StartChar: uni01CD
Encoding: 461 461 5
Width: 600
GlyphClass: 2
Flags: W
HStem: 0 21G<36 115.381 481.714 564> 210 58<196 403> 600 60<291.811 308.164>
LayerCount: 2
Fore
SplineSet
266 710 m 1
 170 822 l 1
 228 822 l 1
 298 752 l 1
 302 752 l 1
 372 822 l 1
 430 822 l 1
 334 710 l 1
 266 710 l 1
36 0 m 1
 260 660 l 1
 340 660 l 1
 564 0 l 1
 488 0 l 1
 422 210 l 1
 176 210 l 1
 109 0 l 1
 36 0 l 1
196 268 m 1
 403 268 l 1
 369 377 l 2
 345 453 324 522 302 600 c 1
 298 600 l 1
 276 522 254 453 230 377 c 2
 196 268 l 1
EndSplineSet
Validated: 1
EndChar

StartChar: Acircumflex
Encoding: 194 194 6
Width: 600
GlyphClass: 2
Flags: W
HStem: 0 21G<36 115.381 481.714 564> 210 58<196 403> 600 60<291.811 308.164>
LayerCount: 2
Fore
SplineSet
170 710 m 1
 266 822 l 1
 334 822 l 1
 430 710 l 1
 372 710 l 1
 302 780 l 1
 298 780 l 1
 228 710 l 1
 170 710 l 1
36 0 m 1
 260 660 l 1
 340 660 l 1
 564 0 l 1
 488 0 l 1
 422 210 l 1
 176 210 l 1
 109 0 l 1
 36 0 l 1
196 268 m 1
 403 268 l 1
 369 377 l 2
 345 453 324 522 302 600 c 1
 298 600 l 1
 276 522 254 453 230 377 c 2
 196 268 l 1
EndSplineSet
Validated: 1
EndChar

StartChar: Adieresis
Encoding: 196 196 7
Width: 600
GlyphClass: 2
Flags: W
HStem: 0 21G<36 115.381 481.714 564> 210 58<196 403> 600 60<291.811 308.164> 722 90<177.742 255.479 344.521 422.258>
VStem: 172 90<728.521 806.258> 338 90<728.521 806.258>
LayerCount: 2
Fore
SplineSet
216 722 m 0
 189 722 172 742 172 768 c 0
 172 795 189 812 216 812 c 0
 242 812 262 795 262 768 c 0
 262 742 242 722 216 722 c 0
384 722 m 0
 358 722 338 742 338 768 c 0
 338 795 358 812 384 812 c 0
 411 812 428 795 428 768 c 0
 428 742 411 722 384 722 c 0
36 0 m 1
 260 660 l 1
 340 660 l 1
 564 0 l 1
 488 0 l 1
 422 210 l 1
 176 210 l 1
 109 0 l 1
 36 0 l 1
196 268 m 1
 403 268 l 1
 369 377 l 2
 345 453 324 522 302 600 c 1
 298 600 l 1
 276 522 254 453 230 377 c 2
 196 268 l 1
EndSplineSet
Validated: 1
EndChar

StartChar: Agrave
Encoding: 192 192 8
Width: 600
GlyphClass: 2
Flags: W
HStem: 0 21G<36 115.381 481.714 564> 210 58<196 403> 600 60<291.811 308.164>
LayerCount: 2
Fore
SplineSet
286 710 m 1
 175 822 l 1
 257 822 l 1
 346 710 l 1
 286 710 l 1
36 0 m 1
 260 660 l 1
 340 660 l 1
 564 0 l 1
 488 0 l 1
 422 210 l 1
 176 210 l 1
 109 0 l 1
 36 0 l 1
196 268 m 1
 403 268 l 1
 369 377 l 2
 345 453 324 522 302 600 c 1
 298 600 l 1
 276 522 254 453 230 377 c 2
 196 268 l 1
EndSplineSet
Validated: 1
EndChar

StartChar: Amacron
Encoding: 256 256 9
Width: 600
GlyphClass: 2
Flags: W
HStem: 0 21G<36 115.381 481.714 564> 210 58<196 403> 600 60<291.811 308.164> 735 50<179 421>
LayerCount: 2
Fore
SplineSet
179 735 m 1
 179 785 l 1
 421 785 l 1
 421 735 l 1
 179 735 l 1
36 0 m 1
 260 660 l 1
 340 660 l 1
 564 0 l 1
 488 0 l 1
 422 210 l 1
 176 210 l 1
 109 0 l 1
 36 0 l 1
196 268 m 1
 403 268 l 1
 369 376 l 2
 345 452 324 522 302 600 c 1
 298 600 l 1
 276 523 254 452 230 376 c 2
 196 268 l 1
EndSplineSet
Validated: 1
EndChar

StartChar: Aogonek
Encoding: 260 260 10
Width: 600
GlyphClass: 2
Flags: W
HStem: -211 52<493.158 582.056> 0 21G<36 115.381> 210 58<196 403> 600 60<291.811 308.164>
VStem: 430 56<-152.361 -55.6938>
LayerCount: 2
Fore
SplineSet
521 -211 m 0
 470 -211 430 -182 430 -126 c 0
 430 -72 468 -24 504 0 c 1
 488 0 l 1
 422 210 l 1
 176 210 l 1
 109 0 l 1
 36 0 l 1
 260 660 l 1
 340 660 l 1
 564 0 l 1
 520 -22 486 -69 486 -111 c 0
 486 -143 509 -159 533 -159 c 0
 551 -159 564 -154 576 -144 c 1
 596 -184 l 1
 578 -198 547 -211 521 -211 c 0
196 268 m 1
 403 268 l 1
 369 376 l 2
 345 452 324 522 302 600 c 1
 298 600 l 1
 276 522 254 452 230 376 c 2
 196 268 l 1
EndSplineSet
Validated: 1
EndChar

StartChar: Aring
Encoding: 197 197 11
Width: 600
GlyphClass: 2
Flags: W
HStem: 0 21G<36 115.411 481.684 564> 209 60<196 403> 600 60<291.811 308.164> 703 32<264.173 334.78> 842 34<263.395 335.562>
VStem: 211 40<745.034 832.615> 348 41<744.683 832.963>
LayerCount: 2
Fore
SplineSet
300 703 m 0
 248 703 211 736 211 789 c 0
 211 842 248 876 300 876 c 0
 350 876 389 842 389 789 c 0
 389 736 350 703 300 703 c 0
300 735 m 0
 326 735 348 755 348 789 c 0
 348 822 326 842 300 842 c 0
 272 842 251 822 251 789 c 0
 251 755 272 735 300 735 c 0
36 0 m 1
 260 660 l 1
 340 660 l 1
 564 0 l 1
 488 0 l 1
 422 209 l 1
 176 209 l 1
 109 0 l 1
 36 0 l 1
196 269 m 1
 403 269 l 1
 369 376 l 2
 345 452 324 522 302 600 c 1
 298 600 l 1
 276 522 254 452 230 376 c 2
 196 269 l 1
EndSplineSet
Validated: 1
EndChar

StartChar: Atilde
Encoding: 195 195 12
Width: 600
GlyphClass: 2
Flags: W
HStem: 0 21G<36 115.381 481.714 564> 210 58<196 403> 600 60<291.811 308.164> 716 49<314.324 389.514> 770 50<210.175 287.48>
VStem: 160 41<716 761.333> 400 40<773.727 820>
LayerCount: 2
Fore
SplineSet
160 716 m 1
 166 774 193 820 240 820 c 0
 293 820 322 765 360 765 c 0
 380 765 395 787 400 820 c 1
 440 820 l 1
 434 765 407 716 360 716 c 0
 307 716 278 770 240 770 c 0
 221 770 205 751 201 716 c 1
 160 716 l 1
36 0 m 1
 260 660 l 1
 340 660 l 1
 564 0 l 1
 488 0 l 1
 422 210 l 1
 176 210 l 1
 109 0 l 1
 36 0 l 1
196 268 m 1
 403 268 l 1
 369 376 l 2
 345 452 324 522 302 600 c 1
 298 600 l 1
 276 522 254 452 230 376 c 2
 196 268 l 1
EndSplineSet
Validated: 1
EndChar

StartChar: AE
Encoding: 198 198 13
Width: 600
GlyphClass: 2
Flags: W
HStem: 0 61<384 590> 200 58<177 318> 318 62<384 536> 600 60<305.678 318 384 582>
VStem: 318 66<61 200 258 318 380 600>
LayerCount: 2
Fore
SplineSet
-0 0 m 1
 269 660 l 1
 582 660 l 1
 582 600 l 1
 384 600 l 1
 384 380 l 1
 536 380 l 1
 536 318 l 1
 384 318 l 1
 384 61 l 1
 590 61 l 1
 590 0 l 1
 318 0 l 1
 318 200 l 1
 152 200 l 1
 74 0 l 1
 -0 0 l 1
177 258 m 1
 318 258 l 1
 318 602 l 1
 315 602 l 1
 287 529 255 458 226 384 c 2
 177 258 l 1
EndSplineSet
Validated: 1
EndChar

StartChar: B
Encoding: 66 66 14
Width: 600
GlyphClass: 2
Flags: W
HStem: 0 57<178 402.025> 321 54<178 378.85> 603 57<178 383.212>
VStem: 106 72<57 321 375 603> 434 70<423.093 560.841> 472 70<120.153 264.972>
LayerCount: 2
Fore
SplineSet
106 0 m 1xf4
 106 660 l 1
 282 660 l 2
 416 660 504 614 504 500 c 0xf8
 504 434 466 376 389 356 c 1
 389 352 l 1
 485 338 542 284 542 193 c 0
 542 63 443 0 296 0 c 2
 106 0 l 1xf4
178 375 m 1
 267 375 l 2
 387 375 434 418 434 495 c 0
 434 571 379 603 272 603 c 2
 178 603 l 1
 178 375 l 1
178 57 m 1
 284 57 l 2
 402 57 472 100 472 196 c 0xf4
 472 282 405 321 284 321 c 2
 178 321 l 1
 178 57 l 1
EndSplineSet
Validated: 1
EndChar

StartChar: uni0243
Encoding: 579 579 15
Width: 600
GlyphClass: 2
Flags: W
HStem: 0 55<179 406.719> 178 42<30 108 179 328> 330 49<179 390.811> 606 54<179 392.405>
VStem: 108 71<55 178 220 330 379 606> 444 70<425.046 562.491> 483 68<123.061 271.774>
LayerCount: 2
Fore
SplineSet
108 0 m 1xfa
 108 178 l 1
 30 178 l 1
 30 216 l 1
 108 220 l 1
 108 660 l 1
 291 660 l 2
 425 660 514 613 514 501 c 0xfc
 514 435 476 380 398 360 c 1
 398 356 l 1
 494 342 551 289 551 196 c 0
 551 64 454 0 306 0 c 2
 108 0 l 1xfa
179 379 m 1
 276 379 l 2
 395 379 444 418 444 497 c 0
 444 575 387 606 280 606 c 2
 179 606 l 1
 179 379 l 1
179 55 m 1
 294 55 l 2
 412 55 483 101 483 199 c 0xfa
 483 289 416 330 294 330 c 2
 179 330 l 1
 179 220 l 1
 328 220 l 1
 328 178 l 1
 179 178 l 1
 179 55 l 1
EndSplineSet
Validated: 1
EndChar

StartChar: C
Encoding: 67 67 16
Width: 600
GlyphClass: 2
Flags: W
HStem: -12 63<266.094 444.553> 609 63<265.879 441.929>
VStem: 68 74<195.889 465.283>
LayerCount: 2
Fore
SplineSet
352 -12 m 0
 188 -12 68 117 68 331 c 0
 68 541 188 672 358 672 c 0
 436 672 497 635 534 593 c 1
 494 547 l 1
 460 584 414 609 358 609 c 0
 226 609 142 502 142 332 c 0
 142 160 225 51 356 51 c 0
 418 51 466 77 510 126 c 1
 551 82 l 1
 499 23 436 -12 352 -12 c 0
EndSplineSet
Validated: 1
EndChar

StartChar: Cacute
Encoding: 262 262 17
Width: 600
GlyphClass: 2
Flags: W
HStem: -12 63<266.094 444.553> 610 62<265.879 441.929>
VStem: 68 74<195.889 465.595>
LayerCount: 2
Fore
SplineSet
299 710 m 1
 388 822 l 1
 471 822 l 1
 359 710 l 1
 299 710 l 1
352 -12 m 0
 188 -12 68 117 68 331 c 0
 68 542 188 672 358 672 c 0
 436 672 497 635 534 593 c 1
 494 547 l 1
 460 585 414 610 358 610 c 0
 226 610 142 502 142 332 c 0
 142 160 225 51 356 51 c 0
 418 51 466 77 510 126 c 1
 551 82 l 1
 499 23 436 -12 352 -12 c 0
EndSplineSet
Validated: 1
EndChar

StartChar: Ccaron
Encoding: 268 268 18
Width: 600
GlyphClass: 2
Flags: W
HStem: -12 63<266.094 444.553> 610 62<265.879 441.929>
VStem: 68 74<195.889 465.595>
LayerCount: 2
Fore
SplineSet
312 710 m 1
 216 822 l 1
 274 822 l 1
 344 752 l 1
 348 752 l 1
 418 822 l 1
 476 822 l 1
 380 710 l 1
 312 710 l 1
352 -12 m 0
 188 -12 68 117 68 331 c 0
 68 542 188 672 358 672 c 0
 436 672 497 635 534 593 c 1
 494 547 l 1
 460 585 414 610 358 610 c 0
 226 610 142 502 142 332 c 0
 142 160 225 51 356 51 c 0
 418 51 466 77 510 126 c 1
 551 82 l 1
 499 23 436 -12 352 -12 c 0
EndSplineSet
Validated: 1
EndChar

StartChar: Ccedilla
Encoding: 199 199 19
Width: 600
GlyphClass: 2
Flags: W
HStem: -212 38<265.711 328.181> 609 63<265.879 441.929>
VStem: 68 74<196.329 465.283> 350 56<-154.911 -91.1816>
LayerCount: 2
Fore
SplineSet
267 -212 m 1
 260 -174 l 1
 313 -167 350 -153 350 -126 c 0
 350 -98 324 -84 284 -74 c 1
 318 -12 l 1
 171 6 68 132 68 331 c 0
 68 541 188 672 358 672 c 0
 436 672 497 635 534 593 c 1
 494 547 l 1
 460 584 414 609 358 609 c 0
 226 609 142 502 142 332 c 0
 142 160 225 51 356 51 c 0
 418 51 466 77 510 126 c 1
 551 82 l 1
 502 26 444 -8 366 -12 c 1
 346 -51 l 1
 379 -62 406 -82 406 -122 c 0
 406 -178 339 -204 267 -212 c 1
EndSplineSet
Validated: 1
EndChar

StartChar: Ccircumflex
Encoding: 264 264 20
Width: 600
GlyphClass: 2
Flags: W
HStem: -12 63<266.094 444.553> 610 62<265.879 441.929>
VStem: 68 74<195.889 465.595>
LayerCount: 2
Fore
SplineSet
216 710 m 1
 312 822 l 1
 380 822 l 1
 476 710 l 1
 418 710 l 1
 348 780 l 1
 344 780 l 1
 274 710 l 1
 216 710 l 1
352 -12 m 0
 188 -12 68 117 68 331 c 0
 68 542 188 672 358 672 c 0
 436 672 497 635 534 593 c 1
 494 547 l 1
 460 585 414 610 358 610 c 0
 226 610 142 502 142 332 c 0
 142 160 225 51 356 51 c 0
 418 51 466 77 510 126 c 1
 551 82 l 1
 499 23 436 -12 352 -12 c 0
EndSplineSet
Validated: 1
EndChar

StartChar: Cdotaccent
Encoding: 266 266 21
Width: 600
GlyphClass: 2
Flags: W
HStem: -12 63<266.094 444.553> 610 62<265.879 441.929> 720 100<303.07 389.193>
VStem: 68 74<196.11 465.389> 294 104<729.232 810.18>
LayerCount: 2
Fore
SplineSet
346 720 m 0
 318 720 294 740 294 770 c 0
 294 798 318 820 346 820 c 0
 375 820 398 798 398 770 c 0
 398 740 375 720 346 720 c 0
352 -12 m 0
 188 -12 68 117 68 331 c 0
 68 541 188 672 358 672 c 0
 436 672 497 635 534 593 c 1
 494 547 l 1
 460 585 414 610 358 610 c 0
 226 610 142 502 142 332 c 0
 142 161 225 51 356 51 c 0
 418 51 466 77 510 126 c 1
 551 82 l 1
 499 23 436 -12 352 -12 c 0
EndSplineSet
Validated: 1
EndChar

StartChar: D
Encoding: 68 68 22
Width: 600
GlyphClass: 2
Flags: W
HStem: 0 58<159 349.375> 602 58<159 348.138>
VStem: 89 70<58 602> 474 74<201.044 463.696>
LayerCount: 2
Fore
SplineSet
89 0 m 1
 89 660 l 1
 246 660 l 2
 446 660 548 539 548 333 c 0
 548 126 445 0 249 0 c 2
 89 0 l 1
159 58 m 1
 241 58 l 2
 399 58 474 165 474 333 c 0
 474 501 399 602 241 602 c 2
 159 602 l 1
 159 58 l 1
EndSplineSet
Validated: 1
EndChar

StartChar: Eth
Encoding: 208 208 23
Width: 600
GlyphClass: 2
Flags: W
HStem: 0 58<165 354.468> 326 42<18 95 165 316> 602 58<165 353.395>
VStem: 95 70<58 326 368 602> 480 74<201.044 463.696>
LayerCount: 2
Fore
SplineSet
95 0 m 1
 95 326 l 1
 18 326 l 1
 18 364 l 1
 95 368 l 1
 95 660 l 1
 252 660 l 2
 450 660 554 539 554 333 c 0
 554 126 450 0 254 0 c 2
 95 0 l 1
165 58 m 1
 247 58 l 2
 405 58 480 165 480 333 c 0
 480 501 405 602 247 602 c 2
 165 602 l 1
 165 368 l 1
 316 368 l 1
 316 326 l 1
 165 326 l 1
 165 58 l 1
EndSplineSet
Validated: 1
EndChar

StartChar: Dcaron
Encoding: 270 270 24
Width: 600
GlyphClass: 2
Flags: W
HStem: 0 58<159 349.375> 602 58<159 348.138>
VStem: 89 70<58 602> 474 74<201.044 463.696>
LayerCount: 2
Fore
SplineSet
266 710 m 1
 170 822 l 1
 228 822 l 1
 298 752 l 1
 302 752 l 1
 370 822 l 1
 428 822 l 1
 332 710 l 1
 266 710 l 1
89 0 m 1
 89 660 l 1
 246 660 l 2
 446 660 548 539 548 333 c 0
 548 126 445 0 249 0 c 2
 89 0 l 1
159 58 m 1
 241 58 l 2
 399 58 474 165 474 333 c 0
 474 501 399 602 241 602 c 2
 159 602 l 1
 159 58 l 1
EndSplineSet
Validated: 1
EndChar

StartChar: Dcroat
Encoding: 272 272 25
Width: 600
GlyphClass: 2
Flags: W
HStem: 0 58<165 354.468> 326 42<18 95 165 316> 602 58<165 353.395>
VStem: 95 70<58 326 368 602> 480 74<201.044 463.696>
LayerCount: 2
Fore
SplineSet
95 0 m 1
 95 326 l 1
 18 326 l 1
 18 364 l 1
 95 368 l 1
 95 660 l 1
 252 660 l 2
 450 660 554 539 554 333 c 0
 554 126 450 0 254 0 c 2
 95 0 l 1
165 58 m 1
 247 58 l 2
 405 58 480 165 480 333 c 0
 480 501 405 602 247 602 c 2
 165 602 l 1
 165 368 l 1
 316 368 l 1
 316 326 l 1
 165 326 l 1
 165 58 l 1
EndSplineSet
Validated: 1
EndChar

StartChar: E
Encoding: 69 69 26
Width: 600
GlyphClass: 2
Flags: W
HStem: 0 61<191 530> 317 62<191 468> 600 60<191 520>
VStem: 119 72<61 317 379 600>
LayerCount: 2
Fore
SplineSet
119 0 m 1
 119 660 l 1
 520 660 l 1
 520 600 l 1
 191 600 l 1
 191 379 l 1
 468 379 l 1
 468 317 l 1
 191 317 l 1
 191 61 l 1
 530 61 l 1
 530 0 l 1
 119 0 l 1
EndSplineSet
Validated: 1
EndChar

StartChar: Eacute
Encoding: 201 201 27
Width: 600
GlyphClass: 2
Flags: W
HStem: 0 61<191 530> 317 62<191 468> 600 60<191 520>
VStem: 119 72<61 317 379 600>
LayerCount: 2
Fore
SplineSet
286 710 m 1
 376 822 l 1
 458 822 l 1
 346 710 l 1
 286 710 l 1
119 0 m 1
 119 660 l 1
 520 660 l 1
 520 600 l 1
 191 600 l 1
 191 379 l 1
 468 379 l 1
 468 317 l 1
 191 317 l 1
 191 61 l 1
 530 61 l 1
 530 0 l 1
 119 0 l 1
EndSplineSet
Validated: 1
EndChar

StartChar: Ebreve
Encoding: 276 276 28
Width: 600
GlyphClass: 2
Flags: W
HStem: 0 61<191 530> 317 62<191 468> 600 60<191 520> 712 42<280.301 383.996>
VStem: 119 72<61 317 379 600> 212 44<777.689 822> 408 46<777.689 822>
LayerCount: 2
Fore
SplineSet
332 712 m 0
 254 712 218 769 212 822 c 1
 256 822 l 1
 262 789 284 754 332 754 c 0
 380 754 402 789 408 822 c 1
 454 822 l 1
 447 769 411 712 332 712 c 0
119 0 m 1
 119 660 l 1
 520 660 l 1
 520 600 l 1
 191 600 l 1
 191 379 l 1
 468 379 l 1
 468 317 l 1
 191 317 l 1
 191 61 l 1
 530 61 l 1
 530 0 l 1
 119 0 l 1
EndSplineSet
Validated: 1
EndChar

StartChar: Ecaron
Encoding: 282 282 29
Width: 600
GlyphClass: 2
Flags: W
HStem: 0 61<191 530> 317 62<191 468> 600 60<191 520>
VStem: 119 72<61 317 379 600>
LayerCount: 2
Fore
SplineSet
298 710 m 1
 202 822 l 1
 262 822 l 1
 330 752 l 1
 334 752 l 1
 404 822 l 1
 462 822 l 1
 366 710 l 1
 298 710 l 1
119 0 m 1
 119 660 l 1
 520 660 l 1
 520 600 l 1
 191 600 l 1
 191 379 l 1
 468 379 l 1
 468 317 l 1
 191 317 l 1
 191 61 l 1
 530 61 l 1
 530 0 l 1
 119 0 l 1
EndSplineSet
Validated: 1
EndChar

StartChar: Ecircumflex
Encoding: 202 202 30
Width: 600
GlyphClass: 2
Flags: W
HStem: 0 61<191 530> 317 62<191 468> 600 60<191 520>
VStem: 119 72<61 317 379 600>
LayerCount: 2
Fore
SplineSet
202 710 m 1
 298 822 l 1
 366 822 l 1
 462 710 l 1
 404 710 l 1
 334 780 l 1
 330 780 l 1
 262 710 l 1
 202 710 l 1
119 0 m 1
 119 660 l 1
 520 660 l 1
 520 600 l 1
 191 600 l 1
 191 379 l 1
 468 379 l 1
 468 317 l 1
 191 317 l 1
 191 61 l 1
 530 61 l 1
 530 0 l 1
 119 0 l 1
EndSplineSet
Validated: 1
EndChar

StartChar: Edieresis
Encoding: 203 203 31
Width: 600
GlyphClass: 2
Flags: W
HStem: 0 61<191 530> 317 62<191 468> 600 60<191 520> 722 90<209.248 286.752 377.248 454.752>
VStem: 119 72<61 317 379 600> 203 90<728.521 806.258> 371 90<728.521 806.258>
LayerCount: 2
Fore
SplineSet
248 722 m 0
 222 722 203 742 203 768 c 0
 203 795 222 812 248 812 c 0
 274 812 293 795 293 768 c 0
 293 742 274 722 248 722 c 0
416 722 m 0
 390 722 371 742 371 768 c 0
 371 795 390 812 416 812 c 0
 442 812 461 795 461 768 c 0
 461 742 442 722 416 722 c 0
119 0 m 1
 119 660 l 1
 520 660 l 1
 520 600 l 1
 191 600 l 1
 191 379 l 1
 468 379 l 1
 468 317 l 1
 191 317 l 1
 191 61 l 1
 530 61 l 1
 530 0 l 1
 119 0 l 1
EndSplineSet
Validated: 1
EndChar

StartChar: Edotaccent
Encoding: 278 278 32
Width: 600
GlyphClass: 2
Flags: W
HStem: 0 61<191 530> 317 62<191 468> 600 60<191 520> 720 100<289.754 374.51>
VStem: 119 72<61 317 379 600> 281 102<728.559 810.883>
LayerCount: 2
Fore
SplineSet
332 720 m 0
 304 720 281 740 281 770 c 0
 281 798 304 820 332 820 c 0
 361 820 383 798 383 770 c 0
 383 740 361 720 332 720 c 0
119 0 m 1
 119 660 l 1
 520 660 l 1
 520 600 l 1
 191 600 l 1
 191 379 l 1
 468 379 l 1
 468 317 l 1
 191 317 l 1
 191 61 l 1
 530 61 l 1
 530 0 l 1
 119 0 l 1
EndSplineSet
Validated: 1
EndChar

StartChar: Egrave
Encoding: 200 200 33
Width: 600
GlyphClass: 2
Flags: W
HStem: 0 61<191 530> 317 62<191 468> 600 60<191 520>
VStem: 119 72<61 317 379 600>
LayerCount: 2
Fore
SplineSet
320 710 m 1
 208 822 l 1
 290 822 l 1
 380 710 l 1
 320 710 l 1
119 0 m 1
 119 660 l 1
 520 660 l 1
 520 600 l 1
 191 600 l 1
 191 379 l 1
 468 379 l 1
 468 317 l 1
 191 317 l 1
 191 61 l 1
 530 61 l 1
 530 0 l 1
 119 0 l 1
EndSplineSet
Validated: 1
EndChar

StartChar: Emacron
Encoding: 274 274 34
Width: 600
GlyphClass: 2
Flags: W
HStem: 0 61<191 530> 317 62<191 468> 600 60<191 520> 735 50<212 454>
VStem: 119 72<61 317 379 600>
LayerCount: 2
Fore
SplineSet
212 735 m 1
 212 785 l 1
 454 785 l 1
 454 735 l 1
 212 735 l 1
119 0 m 1
 119 660 l 1
 520 660 l 1
 520 600 l 1
 191 600 l 1
 191 379 l 1
 468 379 l 1
 468 317 l 1
 191 317 l 1
 191 61 l 1
 530 61 l 1
 530 0 l 1
 119 0 l 1
EndSplineSet
Validated: 1
EndChar

StartChar: Eogonek
Encoding: 280 280 35
Width: 600
GlyphClass: 2
Flags: W
HStem: -211 52<440.55 529.989> 0 61<191 451 478.689 530> 317 62<191 468> 600 60<191 520>
VStem: 119 72<61 317 379 600> 376 57<-150.97 -53.0713>
LayerCount: 2
Fore
SplineSet
468 -211 m 0
 418 -211 376 -182 376 -126 c 0
 376 -70 413 -24 451 0 c 1
 119 0 l 1
 119 660 l 1
 520 660 l 1
 520 600 l 1
 191 600 l 1
 191 379 l 1
 468 379 l 1
 468 317 l 1
 191 317 l 1
 191 61 l 1
 530 61 l 1
 530 0 l 1
 526 0 l 1
 481 -7 433 -55 433 -111 c 0
 433 -143 458 -159 482 -159 c 0
 498 -159 510 -154 524 -144 c 1
 544 -184 l 1
 526 -198 494 -211 468 -211 c 0
EndSplineSet
Validated: 1
EndChar

StartChar: uni1EBC
Encoding: 7868 7868 36
Width: 600
GlyphClass: 2
Flags: W
HStem: 0 61<191 530> 317 62<191 468> 600 60<191 520> 716 49<345.338 420.343> 770 50<242.38 319.936>
VStem: 119 72<61 317 379 600> 192 40<716 759.041> 432 40<775.974 820>
LayerCount: 2
Fore
SplineSet
192 716 m 1
 197 774 226 820 272 820 c 0
 325 820 353 765 391 765 c 0
 411 765 426 787 432 820 c 1
 472 820 l 1
 468 765 439 716 392 716 c 0
 339 716 312 770 274 770 c 0
 254 770 237 751 232 716 c 1
 192 716 l 1
119 0 m 1
 119 660 l 1
 520 660 l 1
 520 600 l 1
 191 600 l 1
 191 379 l 1
 468 379 l 1
 468 317 l 1
 191 317 l 1
 191 61 l 1
 530 61 l 1
 530 0 l 1
 119 0 l 1
EndSplineSet
Validated: 1
EndChar

StartChar: F
Encoding: 70 70 37
Width: 600
GlyphClass: 2
Flags: W
HStem: 0 21G<140 211> 304 60<211 486> 600 60<211 536>
VStem: 140 71<0 304 364 600>
LayerCount: 2
Fore
SplineSet
140 0 m 1
 140 660 l 1
 536 660 l 1
 536 600 l 1
 211 600 l 1
 211 364 l 1
 486 364 l 1
 486 304 l 1
 211 304 l 1
 211 0 l 1
 140 0 l 1
EndSplineSet
Validated: 1
EndChar

StartChar: G
Encoding: 71 71 38
Width: 600
GlyphClass: 2
Flags: W
HStem: -12 63<249.788 433.798> 277 60<326 464> 609 63<252.395 431.569>
VStem: 54 75<192.858 465.695> 464 67<78.3132 277>
LayerCount: 2
Fore
SplineSet
336 -12 m 0
 172 -12 54 117 54 331 c 0
 54 543 174 672 344 672 c 0
 430 672 487 631 523 593 c 1
 482 547 l 1
 449 582 409 609 344 609 c 0
 214 609 129 502 129 332 c 0
 129 160 206 51 340 51 c 0
 390 51 437 68 464 94 c 1
 464 277 l 1
 326 277 l 1
 326 337 l 1
 531 337 l 1
 531 64 l 1
 489 22 422 -12 336 -12 c 0
EndSplineSet
Validated: 1
EndChar

StartChar: Gbreve
Encoding: 286 286 39
Width: 600
GlyphClass: 2
Flags: W
HStem: -12 63<249.788 433.798> 278 60<326 464> 610 62<252.395 430.046> 712 42<279.724 382.506>
VStem: 54 75<192.858 465.801> 210 46<777.689 822> 407 44<777.689 822> 464 67<78.3132 278>
LayerCount: 2
Fore
SplineSet
331 712 m 0
 253 712 217 769 210 822 c 1
 256 822 l 1
 262 789 284 754 331 754 c 0
 378 754 401 789 407 822 c 1
 451 822 l 1
 445 769 409 712 331 712 c 0
336 -12 m 0
 172 -12 54 117 54 331 c 0
 54 543 174 672 344 672 c 0
 430 672 487 631 523 593 c 1
 482 547 l 1
 449 582 409 610 344 610 c 0
 214 610 129 502 129 332 c 0
 129 160 206 51 340 51 c 0
 390 51 437 68 464 94 c 1
 464 278 l 1
 326 278 l 1
 326 338 l 1
 531 338 l 1
 531 64 l 1
 489 22 422 -12 336 -12 c 0
EndSplineSet
Validated: 1
EndChar

StartChar: Gcaron
Encoding: 486 486 40
Width: 600
GlyphClass: 2
Flags: W
HStem: -12 63<249.788 433.798> 278 60<326 464> 610 62<252.395 430.046>
VStem: 54 75<192.858 465.801> 464 67<78.3132 278>
LayerCount: 2
Fore
SplineSet
298 710 m 1
 202 822 l 1
 260 822 l 1
 329 752 l 1
 333 752 l 1
 402 822 l 1
 461 822 l 1
 365 710 l 1
 298 710 l 1
336 -12 m 0
 172 -12 54 117 54 331 c 0
 54 543 174 672 344 672 c 0
 430 672 487 631 523 593 c 1
 482 547 l 1
 449 582 409 610 344 610 c 0
 214 610 129 502 129 332 c 0
 129 160 206 51 340 51 c 0
 390 51 437 68 464 94 c 1
 464 278 l 1
 326 278 l 1
 326 338 l 1
 531 338 l 1
 531 64 l 1
 489 22 422 -12 336 -12 c 0
EndSplineSet
Validated: 1
EndChar

StartChar: Gcircumflex
Encoding: 284 284 41
Width: 600
GlyphClass: 2
Flags: W
HStem: -12 63<249.788 433.798> 278 60<326 464> 610 62<252.395 430.046>
VStem: 54 75<192.858 465.801> 464 67<78.3132 278>
LayerCount: 2
Fore
SplineSet
202 710 m 1
 298 822 l 1
 365 822 l 1
 461 710 l 1
 402 710 l 1
 333 780 l 1
 329 780 l 1
 260 710 l 1
 202 710 l 1
336 -12 m 0
 172 -12 54 117 54 331 c 0
 54 543 174 672 344 672 c 0
 430 672 487 631 523 593 c 1
 482 547 l 1
 449 582 409 610 344 610 c 0
 214 610 129 502 129 332 c 0
 129 160 206 51 340 51 c 0
 390 51 437 68 464 94 c 1
 464 278 l 1
 326 278 l 1
 326 338 l 1
 531 338 l 1
 531 64 l 1
 489 22 422 -12 336 -12 c 0
EndSplineSet
Validated: 1
EndChar

StartChar: Gdotaccent
Encoding: 288 288 42
Width: 600
GlyphClass: 2
Flags: W
HStem: -12 63<249.788 433.798> 278 60<326 464> 610 62<252.395 430.046> 720 100<288.754 374.877>
VStem: 54 75<193.08 465.801> 280 104<729.232 810.18> 464 67<78.3132 278>
LayerCount: 2
Fore
SplineSet
331 720 m 0
 303 720 280 740 280 770 c 0
 280 798 303 820 331 820 c 0
 360 820 384 798 384 770 c 0
 384 740 360 720 331 720 c 0
336 -12 m 0
 172 -12 54 117 54 331 c 0
 54 543 174 672 344 672 c 0
 430 672 487 631 523 593 c 1
 482 547 l 1
 449 582 409 610 344 610 c 0
 214 610 129 502 129 332 c 0
 129 161 206 51 340 51 c 0
 390 51 437 68 464 94 c 1
 464 278 l 1
 326 278 l 1
 326 338 l 1
 531 338 l 1
 531 64 l 1
 489 22 422 -12 336 -12 c 0
EndSplineSet
Validated: 1
EndChar

StartChar: uni1E20
Encoding: 7712 7712 43
Width: 600
GlyphClass: 2
Flags: W
HStem: -12 63<249.788 433.798> 278 60<326 464> 609 63<252.395 431.569> 735 50<210 452>
VStem: 54 75<193.08 465.695> 464 67<78.3132 278>
LayerCount: 2
Fore
SplineSet
210 735 m 1
 210 785 l 1
 452 785 l 1
 452 735 l 1
 210 735 l 1
336 -12 m 0
 172 -12 54 117 54 331 c 0
 54 543 174 672 344 672 c 0
 430 672 487 631 523 593 c 1
 482 547 l 1
 449 582 409 609 344 609 c 0
 214 609 129 502 129 332 c 0
 129 161 206 51 340 51 c 0
 390 51 437 68 464 94 c 1
 464 278 l 1
 326 278 l 1
 326 338 l 1
 531 338 l 1
 531 64 l 1
 489 22 422 -12 336 -12 c 0
EndSplineSet
Validated: 1
EndChar

StartChar: H
Encoding: 72 72 44
Width: 600
GlyphClass: 2
Flags: W
HStem: 0 21G<82 154 446 518> 318 62<154 446> 640 20G<82 154 446 518>
VStem: 82 72<0 318 380 660> 446 72<0 318 380 660>
LayerCount: 2
Fore
SplineSet
82 0 m 1
 82 660 l 1
 154 660 l 1
 154 380 l 1
 446 380 l 1
 446 660 l 1
 518 660 l 1
 518 0 l 1
 446 0 l 1
 446 318 l 1
 154 318 l 1
 154 0 l 1
 82 0 l 1
EndSplineSet
Validated: 1
EndChar

StartChar: Hbar
Encoding: 294 294 45
Width: 600
GlyphClass: 2
Flags: W
HStem: 0 21G<82 154 446 518> 318 62<154 446> 496 42<12 82 154 446 518 588> 640 20G<82 154 446 518>
VStem: 82 72<0 318 380 496 538 660> 446 72<0 318 380 496 538 660>
LayerCount: 2
Fore
SplineSet
82 0 m 1
 82 496 l 1
 12 496 l 1
 12 534 l 1
 82 538 l 1
 82 660 l 1
 154 660 l 1
 154 538 l 1
 446 538 l 1
 446 660 l 1
 518 660 l 1
 518 538 l 1
 588 538 l 1
 588 496 l 1
 518 496 l 1
 518 0 l 1
 446 0 l 1
 446 318 l 1
 154 318 l 1
 154 0 l 1
 82 0 l 1
154 380 m 1
 446 380 l 1
 446 496 l 1
 154 496 l 1
 154 380 l 1
EndSplineSet
Validated: 1
EndChar

StartChar: Hcircumflex
Encoding: 292 292 46
Width: 600
GlyphClass: 2
Flags: W
HStem: 0 21G<82 154 446 518> 318 62<154 446> 640 20G<82 154 446 518>
VStem: 82 72<0 318 380 660> 446 72<0 318 380 660>
LayerCount: 2
Fore
SplineSet
170 710 m 1
 266 822 l 1
 333 822 l 1
 429 710 l 1
 372 710 l 1
 302 780 l 1
 298 780 l 1
 228 710 l 1
 170 710 l 1
82 0 m 1
 82 660 l 1
 154 660 l 1
 154 380 l 1
 446 380 l 1
 446 660 l 1
 518 660 l 1
 518 0 l 1
 446 0 l 1
 446 318 l 1
 154 318 l 1
 154 0 l 1
 82 0 l 1
EndSplineSet
Validated: 1
EndChar

StartChar: I
Encoding: 73 73 47
Width: 600
GlyphClass: 2
Flags: W
HStem: 0 61<99 264 336 501> 600 60<99 264 336 501>
VStem: 264 72<61 600>
LayerCount: 2
Fore
SplineSet
99 0 m 1
 99 61 l 1
 264 61 l 1
 264 600 l 1
 99 600 l 1
 99 660 l 1
 501 660 l 1
 501 600 l 1
 336 600 l 1
 336 61 l 1
 501 61 l 1
 501 0 l 1
 99 0 l 1
EndSplineSet
Validated: 1
EndChar

StartChar: Iacute
Encoding: 205 205 48
Width: 600
GlyphClass: 2
Flags: W
HStem: 0 61<99 264 336 501> 600 60<99 264 336 501>
VStem: 264 72<61 600>
LayerCount: 2
Fore
SplineSet
254 710 m 1
 343 822 l 1
 425 822 l 1
 314 710 l 1
 254 710 l 1
99 0 m 1
 99 61 l 1
 264 61 l 1
 264 600 l 1
 99 600 l 1
 99 660 l 1
 501 660 l 1
 501 600 l 1
 336 600 l 1
 336 61 l 1
 501 61 l 1
 501 0 l 1
 99 0 l 1
EndSplineSet
Validated: 1
EndChar

StartChar: Ibreve
Encoding: 300 300 49
Width: 600
GlyphClass: 2
Flags: W
HStem: 0 61<99 264 336 501> 600 60<99 264 336 501> 712 42<248.564 351.436>
VStem: 180 44<777.689 822> 264 72<61 600> 376 44<777.689 822>
CounterMasks: 1 1c
LayerCount: 2
Fore
SplineSet
300 712 m 0
 222 712 187 769 180 822 c 1
 224 822 l 1
 230 789 253 754 300 754 c 0
 347 754 370 789 376 822 c 1
 420 822 l 1
 413 769 378 712 300 712 c 0
99 0 m 1
 99 61 l 1
 264 61 l 1
 264 600 l 1
 99 600 l 1
 99 660 l 1
 501 660 l 1
 501 600 l 1
 336 600 l 1
 336 61 l 1
 501 61 l 1
 501 0 l 1
 99 0 l 1
EndSplineSet
Validated: 1
EndChar

StartChar: uni01CF
Encoding: 463 463 50
Width: 600
GlyphClass: 2
Flags: W
HStem: 0 61<99 264 336 501> 600 60<99 264 336 501>
VStem: 264 72<61 600>
LayerCount: 2
Fore
SplineSet
266 710 m 1
 170 822 l 1
 228 822 l 1
 298 752 l 1
 302 752 l 1
 372 822 l 1
 430 822 l 1
 334 710 l 1
 266 710 l 1
99 0 m 1
 99 61 l 1
 264 61 l 1
 264 600 l 1
 99 600 l 1
 99 660 l 1
 501 660 l 1
 501 600 l 1
 336 600 l 1
 336 61 l 1
 501 61 l 1
 501 0 l 1
 99 0 l 1
EndSplineSet
Validated: 1
EndChar

StartChar: Icircumflex
Encoding: 206 206 51
Width: 600
GlyphClass: 2
Flags: W
HStem: 0 61<99 264 336 501> 600 60<99 264 336 501>
VStem: 264 72<61 600>
LayerCount: 2
Fore
SplineSet
170 710 m 1
 266 822 l 1
 334 822 l 1
 430 710 l 1
 372 710 l 1
 302 780 l 1
 298 780 l 1
 228 710 l 1
 170 710 l 1
99 0 m 1
 99 61 l 1
 264 61 l 1
 264 600 l 1
 99 600 l 1
 99 660 l 1
 501 660 l 1
 501 600 l 1
 336 600 l 1
 336 61 l 1
 501 61 l 1
 501 0 l 1
 99 0 l 1
EndSplineSet
Validated: 1
EndChar

StartChar: Idieresis
Encoding: 207 207 52
Width: 600
GlyphClass: 2
Flags: W
HStem: 0 61<99 264 336 501> 600 60<99 264 336 501> 722 90<177.742 255.479 344.521 422.258>
VStem: 172 90<728.521 806.258> 264 72<61 600> 338 90<728.521 806.258>
CounterMasks: 1 1c
LayerCount: 2
Fore
SplineSet
216 722 m 0
 189 722 172 742 172 768 c 0
 172 795 189 812 216 812 c 0
 242 812 262 795 262 768 c 0
 262 742 242 722 216 722 c 0
384 722 m 0
 358 722 338 742 338 768 c 0
 338 795 358 812 384 812 c 0
 411 812 428 795 428 768 c 0
 428 742 411 722 384 722 c 0
99 0 m 1
 99 61 l 1
 264 61 l 1
 264 600 l 1
 99 600 l 1
 99 660 l 1
 501 660 l 1
 501 600 l 1
 336 600 l 1
 336 61 l 1
 501 61 l 1
 501 0 l 1
 99 0 l 1
EndSplineSet
Validated: 1
EndChar

StartChar: Idotaccent
Encoding: 304 304 53
Width: 600
GlyphClass: 2
Flags: W
HStem: 0 61<99 264 336 501> 600 60<99 264 336 501> 720 100<256.807 343.193>
VStem: 248 104<728.559 810.883> 264 72<61 600>
LayerCount: 2
Fore
SplineSet
300 720 m 0xf0
 271 720 248 740 248 770 c 0
 248 798 271 820 300 820 c 0
 329 820 352 798 352 770 c 0
 352 740 329 720 300 720 c 0xf0
99 0 m 1
 99 61 l 1
 264 61 l 1
 264 600 l 1
 99 600 l 1
 99 660 l 1
 501 660 l 1
 501 600 l 1
 336 600 l 1
 336 61 l 1xe8
 501 61 l 1
 501 0 l 1
 99 0 l 1
EndSplineSet
Validated: 1
EndChar

StartChar: Igrave
Encoding: 204 204 54
Width: 600
GlyphClass: 2
Flags: W
HStem: 0 61<99 264 336 501> 600 60<99 264 336 501>
VStem: 264 72<61 600>
LayerCount: 2
Fore
SplineSet
286 710 m 1
 175 822 l 1
 257 822 l 1
 346 710 l 1
 286 710 l 1
99 0 m 1
 99 61 l 1
 264 61 l 1
 264 600 l 1
 99 600 l 1
 99 660 l 1
 501 660 l 1
 501 600 l 1
 336 600 l 1
 336 61 l 1
 501 61 l 1
 501 0 l 1
 99 0 l 1
EndSplineSet
Validated: 1
EndChar

StartChar: Imacron
Encoding: 298 298 55
Width: 600
GlyphClass: 2
Flags: W
HStem: 0 61<99 264 336 501> 600 60<99 264 336 501> 735 50<179 421>
VStem: 264 72<61 600>
LayerCount: 2
Fore
SplineSet
179 735 m 1
 179 785 l 1
 421 785 l 1
 421 735 l 1
 179 735 l 1
99 0 m 1
 99 61 l 1
 264 61 l 1
 264 600 l 1
 99 600 l 1
 99 660 l 1
 501 660 l 1
 501 600 l 1
 336 600 l 1
 336 61 l 1
 501 61 l 1
 501 0 l 1
 99 0 l 1
EndSplineSet
Validated: 1
EndChar

StartChar: Iogonek
Encoding: 302 302 56
Width: 600
GlyphClass: 2
Flags: W
HStem: -211 52<279.41 368.056> 0 61<99 264 336 501> 600 60<99 264 336 501>
VStem: 216 56<-150.97 -49.5566> 264 72<61 600>
LayerCount: 2
Fore
SplineSet
307 -211 m 0xf0
 256 -211 216 -182 216 -126 c 0xf0
 216 -69 247 -30 280 0 c 1
 99 0 l 1
 99 61 l 1
 264 61 l 1
 264 600 l 1
 99 600 l 1
 99 660 l 1
 501 660 l 1
 501 600 l 1
 336 600 l 1
 336 61 l 1
 501 61 l 1
 501 0 l 1
 336 0 l 1xe8
 296 -34 272 -67 272 -111 c 0
 272 -143 297 -159 321 -159 c 0
 337 -159 350 -154 362 -144 c 1
 382 -184 l 1
 364 -198 333 -211 307 -211 c 0xf0
EndSplineSet
Validated: 1
EndChar

StartChar: Itilde
Encoding: 296 296 57
Width: 600
GlyphClass: 2
Flags: W
HStem: 0 61<99 264 336 501> 600 60<99 264 336 501> 716 49<314.324 389.514> 770 50<210.175 287.48>
VStem: 160 41<716 761.333> 264 72<61 600> 400 40<773.727 820>
LayerCount: 2
Fore
SplineSet
160 716 m 1
 166 774 193 820 240 820 c 0
 293 820 322 765 360 765 c 0
 380 765 395 787 400 820 c 1
 440 820 l 1
 434 765 407 716 360 716 c 0
 307 716 278 770 240 770 c 0
 221 770 205 751 201 716 c 1
 160 716 l 1
99 0 m 1
 99 61 l 1
 264 61 l 1
 264 600 l 1
 99 600 l 1
 99 660 l 1
 501 660 l 1
 501 600 l 1
 336 600 l 1
 336 61 l 1
 501 61 l 1
 501 0 l 1
 99 0 l 1
EndSplineSet
Validated: 1
EndChar

StartChar: J
Encoding: 74 74 58
Width: 600
GlyphClass: 2
Flags: W
HStem: -12 63<200.098 360.822> 601 59<139 418>
VStem: 418 71<112.404 601>
LayerCount: 2
Fore
SplineSet
276 -12 m 0
 202 -12 128 22 85 98 c 1
 134 140 l 1
 172 79 223 51 275 51 c 0
 374 51 418 102 418 214 c 2
 418 601 l 1
 139 601 l 1
 139 660 l 1
 489 660 l 1
 489 208 l 2
 489 86 436 -12 276 -12 c 0
EndSplineSet
Validated: 1
EndChar

StartChar: Jcircumflex
Encoding: 308 308 59
Width: 600
GlyphClass: 2
Flags: W
HStem: -12 63<200.098 360.822> 602 58<139 418>
VStem: 418 71<112.404 602>
LayerCount: 2
Fore
SplineSet
191 710 m 1
 287 822 l 1
 354 822 l 1
 450 710 l 1
 392 710 l 1
 323 780 l 1
 319 780 l 1
 250 710 l 1
 191 710 l 1
276 -12 m 0
 202 -12 128 22 85 98 c 1
 134 140 l 1
 172 79 223 51 275 51 c 0
 374 51 418 102 418 214 c 2
 418 602 l 1
 139 602 l 1
 139 660 l 1
 489 660 l 1
 489 208 l 2
 489 86 436 -12 276 -12 c 0
EndSplineSet
Validated: 1
EndChar

StartChar: K
Encoding: 75 75 60
Width: 600
GlyphClass: 2
Flags: W
HStem: 0 21G<104 176 484.764 576> 640 20G<104 176 452.924 552>
VStem: 104 72<0 216 318 660>
LayerCount: 2
Fore
SplineSet
104 0 m 1
 104 660 l 1
 176 660 l 1
 176 318 l 1
 178 318 l 1
 470 660 l 1
 552 660 l 1
 342 412 l 1
 576 0 l 1
 496 0 l 1
 296 356 l 1
 176 216 l 1
 176 0 l 1
 104 0 l 1
EndSplineSet
Validated: 1
EndChar

StartChar: L
Encoding: 76 76 61
Width: 600
GlyphClass: 2
Flags: W
HStem: 0 61<209 540> 640 20G<139 209>
VStem: 139 70<61 660>
LayerCount: 2
Fore
SplineSet
139 0 m 1
 139 660 l 1
 209 660 l 1
 209 61 l 1
 540 61 l 1
 540 0 l 1
 139 0 l 1
EndSplineSet
Validated: 1
EndChar

StartChar: Lacute
Encoding: 313 313 62
Width: 600
GlyphClass: 2
Flags: W
HStem: 0 61<209 540> 640 20G<139 209>
VStem: 139 70<61 660>
LayerCount: 2
Fore
SplineSet
142 710 m 1
 232 822 l 1
 314 822 l 1
 202 710 l 1
 142 710 l 1
139 0 m 1
 139 660 l 1
 209 660 l 1
 209 61 l 1
 540 61 l 1
 540 0 l 1
 139 0 l 1
EndSplineSet
Validated: 1
EndChar

StartChar: Lcaron
Encoding: 317 317 63
Width: 600
GlyphClass: 2
Flags: W
HStem: 0 61<209 540> 518 21G<389.714 428.529> 640 20G<139 209> 708 20G<387 440>
VStem: 139 70<61 660> 387 52<596.5 728> 390 37<518 609.583>
LayerCount: 2
Fore
SplineSet
390 518 m 1xfa
 387 728 l 1
 440 728 l 1
 439 675 l 1xfc
 427 518 l 1
 390 518 l 1xfa
139 0 m 1
 139 660 l 1
 209 660 l 1
 209 61 l 1
 540 61 l 1
 540 0 l 1
 139 0 l 1
EndSplineSet
Validated: 1
EndChar

StartChar: Ldot
Encoding: 319 319 64
Width: 600
GlyphClass: 2
Flags: W
HStem: 0 61<209 540> 290 116<378.839 472.853> 640 20G<139 209>
VStem: 139 70<61 660> 366 119<302.286 394.037>
LayerCount: 2
Fore
SplineSet
139 0 m 1
 139 660 l 1
 209 660 l 1
 209 61 l 1
 540 61 l 1
 540 0 l 1
 139 0 l 1
426 290 m 0
 393 290 366 313 366 348 c 0
 366 384 393 406 426 406 c 0
 460 406 485 384 485 348 c 0
 485 313 460 290 426 290 c 0
EndSplineSet
Validated: 1
EndChar

StartChar: Lslash
Encoding: 321 321 65
Width: 600
GlyphClass: 2
Flags: W
HStem: 0 61<209 540> 640 20G<139 209>
VStem: 139 70<61 234 328 660>
LayerCount: 2
Fore
SplineSet
139 0 m 1
 139 234 l 1
 57 190 l 1
 57 248 l 1
 139 294 l 1
 139 660 l 1
 209 660 l 1
 209 328 l 1
 438 448 l 1
 438 389 l 1
 209 268 l 1
 209 61 l 1
 540 61 l 1
 540 0 l 1
 139 0 l 1
EndSplineSet
Validated: 1
EndChar

StartChar: M
Encoding: 77 77 66
Width: 642
GlyphClass: 2
Flags: W
HStem: 0 21G<78 145 496 564> 640 20G<78 173.862 449.5 564>
VStem: 78 67<0 583.632> 496 68<0 583.632>
LayerCount: 2
Fore
SplineSet
78 0 m 1
 78 660 l 1
 166 660 l 1
 280 370 l 1
 320 260 l 1
 324 260 l 1
 370 398 424 527 475 660 c 1
 564 660 l 1
 564 0 l 1
 496 0 l 1
 496 402 l 2
 496 453 501 536 504 586 c 1
 500 586 l 1
 456 452 l 1
 342 180 l 1
 300 180 l 1
 186 452 l 1
 138 586 l 1
 136 586 l 1
 140 536 145 453 145 402 c 2
 145 0 l 1
 78 0 l 1
EndSplineSet
Validated: 1
EndChar

StartChar: N
Encoding: 78 78 67
Width: 600
GlyphClass: 2
Flags: W
HStem: 0 21G<92 167 386.5 508> 640 20G<92 213.5 433 508>
VStem: 92 75<0 548.856 625.511 660> 92 64<324.375 552> 433 75<0 34.489 111.054 660> 444 64<108 338.438>
LayerCount: 2
Fore
SplineSet
92 0 m 1xe0
 92 660 l 1
 168 660 l 1
 259 476 352 293 442 108 c 1
 444 108 l 1xe4
 441 173 433 248 433 317 c 2
 433 660 l 1
 508 660 l 1
 508 0 l 1
 432 0 l 1
 341 184 248 367 158 552 c 1
 156 552 l 1xd8
 159 485 167 414 167 346 c 2
 167 0 l 1
 92 0 l 1xe0
EndSplineSet
Validated: 1
EndChar

StartChar: Nacute
Encoding: 323 323 68
Width: 600
GlyphClass: 2
Flags: W
HStem: 0 21G<86 161 380.5 502> 640 20G<86 207.5 427 502>
VStem: 86 75<0 548.856 625.511 660> 86 64<324.375 552> 427 75<0 34.489 111.054 660> 438 64<108 338.438>
LayerCount: 2
Fore
SplineSet
86 0 m 1xe0
 86 660 l 1
 162 660 l 1
 253 476 346 293 436 108 c 1
 438 108 l 1xe4
 435 173 427 248 427 317 c 2
 427 660 l 1
 502 660 l 1
 502 0 l 1
 426 0 l 1
 335 184 242 367 152 552 c 1
 150 552 l 1xd8
 153 485 161 414 161 346 c 2
 161 0 l 1
 86 0 l 1xe0
260 710 m 1
 349 822 l 1
 431 822 l 1
 320 710 l 1
 260 710 l 1
EndSplineSet
Validated: 1
EndChar

StartChar: Ncaron
Encoding: 327 327 69
Width: 600
GlyphClass: 2
Flags: W
HStem: 0 21G<97 172 391.5 513> 640 20G<97 218.5 438 513>
VStem: 97 75<0 548.856 625.511 660> 97 64<324.375 552> 438 75<0 34.489 111.054 660> 449 64<108 338.438>
LayerCount: 2
Fore
SplineSet
97 0 m 1xe0
 97 660 l 1
 173 660 l 1
 264 476 357 293 447 108 c 1
 449 108 l 1xe4
 446 173 438 248 438 317 c 2
 438 660 l 1
 513 660 l 1
 513 0 l 1
 437 0 l 1
 346 184 253 367 163 552 c 1
 161 552 l 1xd8
 164 485 172 414 172 346 c 2
 172 0 l 1
 97 0 l 1xe0
272 710 m 1
 176 822 l 1
 234 822 l 1
 304 752 l 1
 308 752 l 1
 378 822 l 1
 436 822 l 1
 340 710 l 1
 272 710 l 1
EndSplineSet
Validated: 1
EndChar

StartChar: uni1E44
Encoding: 7748 7748 70
Width: 600
GlyphClass: 2
Flags: W
HStem: 0 21G<91 166 385.5 507> 640 20G<91 212.5 432 507> 720 100<262.807 349.193>
VStem: 91 75<0 548.856 625.511 660> 91 64<324.375 552> 254 104<728.559 810.883> 432 75<0 34.489 111.054 660> 443 64<108 338.438>
LayerCount: 2
Fore
SplineSet
91 0 m 1xf4
 91 660 l 1
 167 660 l 1
 258 476 351 293 441 108 c 1
 443 108 l 1xf5
 440 173 432 248 432 317 c 2
 432 660 l 1
 507 660 l 1
 507 0 l 1
 431 0 l 1
 340 184 247 367 157 552 c 1
 155 552 l 1xee
 158 485 166 414 166 346 c 2
 166 0 l 1
 91 0 l 1xf4
306 720 m 0
 277 720 254 740 254 770 c 0
 254 798 277 820 306 820 c 0
 335 820 358 798 358 770 c 0
 358 740 335 720 306 720 c 0
EndSplineSet
Validated: 1
EndChar

StartChar: Ntilde
Encoding: 209 209 71
Width: 600
GlyphClass: 2
Flags: W
HStem: 0 21G<86 93.8613 469.357 485.818> 640 20G<86 169.522 470.744 476.424> 716 49<320.324 395.514> 770 50<216.175 293.48>
VStem: 86 68<173 468.265> 86 62<244.636 566> 166 41<716 761.333> 406 40<773.727 820>
LayerCount: 2
Fore
SplineSet
166 716 m 1xf3
 172 774 199 820 246 820 c 0
 299 820 328 765 366 765 c 0
 386 765 401 787 406 820 c 1
 446 820 l 1
 440 765 413 716 366 716 c 0
 313 716 284 770 246 770 c 0
 227 770 211 751 207 716 c 1
 166 716 l 1xf3
86 0 m 1xf7
 86 660 l 1
 159 660 l 1
 421 162 l 1
 454 94 l 1
 454 126 452 159 452 192 c 1
 450 224 446 454 446 488 c 1
 474 660 l 1
 514 330 l 1
 484 0 l 1
 320 224 l 1
 262 338 203 451 146 566 c 1
 146 534 148 502 148 470 c 1xf7
 150 436 154 207 154 173 c 1xfb
 86 0 l 1xf7
EndSplineSet
Validated: 1
EndChar

StartChar: O
Encoding: 79 79 72
Width: 600
GlyphClass: 2
Flags: W
HStem: -12 63<228.268 371.732> 609 63<226.272 373.728>
VStem: 50 74<187.755 476.375> 476 74<187.755 476.164>
LayerCount: 2
Fore
SplineSet
300 -12 m 0
 154 -12 50 121 50 333 c 0
 50 543 154 672 300 672 c 0
 446 672 550 542 550 333 c 0
 550 121 446 -12 300 -12 c 0
300 51 m 0
 406 51 476 162 476 333 c 0
 476 503 406 609 300 609 c 0
 194 609 124 503 124 333 c 0
 124 162 194 51 300 51 c 0
EndSplineSet
Validated: 1
EndChar

StartChar: Oacute
Encoding: 211 211 73
Width: 600
GlyphClass: 2
Flags: W
HStem: -12 63<228.268 371.732> 610 62<226.272 373.728>
VStem: 50 74<187.966 476.501> 476 74<187.966 476.501>
LayerCount: 2
Fore
SplineSet
254 710 m 1
 343 822 l 1
 425 822 l 1
 314 710 l 1
 254 710 l 1
300 -12 m 0
 154 -12 50 122 50 333 c 0
 50 543 154 672 300 672 c 0
 446 672 550 543 550 333 c 0
 550 122 446 -12 300 -12 c 0
300 51 m 0
 406 51 476 162 476 333 c 0
 476 503 406 610 300 610 c 0
 194 610 124 503 124 333 c 0
 124 162 194 51 300 51 c 0
EndSplineSet
Validated: 1
EndChar

StartChar: Obreve
Encoding: 334 334 74
Width: 600
GlyphClass: 2
Flags: W
HStem: -12 63<228.268 371.732> 610 62<226.272 373.728> 712 42<248.564 351.436>
VStem: 50 74<187.966 476.501> 180 44<777.689 822> 376 44<777.689 822> 476 74<187.966 476.501>
LayerCount: 2
Fore
SplineSet
300 712 m 0
 222 712 187 769 180 822 c 1
 224 822 l 1
 230 789 253 754 300 754 c 0
 347 754 370 789 376 822 c 1
 420 822 l 1
 413 769 378 712 300 712 c 0
300 -12 m 0
 154 -12 50 122 50 333 c 0
 50 543 154 672 300 672 c 0
 446 672 550 543 550 333 c 0
 550 122 446 -12 300 -12 c 0
300 51 m 0
 406 51 476 162 476 333 c 0
 476 503 406 610 300 610 c 0
 194 610 124 503 124 333 c 0
 124 162 194 51 300 51 c 0
EndSplineSet
Validated: 1
EndChar

StartChar: uni01D1
Encoding: 465 465 75
Width: 600
GlyphClass: 2
Flags: W
HStem: -12 63<228.268 371.732> 610 62<226.272 373.728>
VStem: 50 74<187.966 476.501> 476 74<187.966 476.501>
LayerCount: 2
Fore
SplineSet
266 710 m 1
 170 822 l 1
 228 822 l 1
 298 752 l 1
 302 752 l 1
 372 822 l 1
 430 822 l 1
 334 710 l 1
 266 710 l 1
300 -12 m 0
 154 -12 50 122 50 333 c 0
 50 543 154 672 300 672 c 0
 446 672 550 543 550 333 c 0
 550 122 446 -12 300 -12 c 0
300 51 m 0
 406 51 476 162 476 333 c 0
 476 503 406 610 300 610 c 0
 194 610 124 503 124 333 c 0
 124 162 194 51 300 51 c 0
EndSplineSet
Validated: 1
EndChar

StartChar: Ocircumflex
Encoding: 212 212 76
Width: 600
GlyphClass: 2
Flags: W
HStem: -12 63<228.268 371.732> 610 62<226.272 373.728>
VStem: 50 74<187.966 476.501> 476 74<187.966 476.501>
LayerCount: 2
Fore
SplineSet
170 710 m 1
 266 822 l 1
 334 822 l 1
 430 710 l 1
 372 710 l 1
 302 780 l 1
 298 780 l 1
 228 710 l 1
 170 710 l 1
300 -12 m 0
 154 -12 50 122 50 333 c 0
 50 543 154 672 300 672 c 0
 446 672 550 543 550 333 c 0
 550 122 446 -12 300 -12 c 0
300 51 m 0
 406 51 476 162 476 333 c 0
 476 503 406 610 300 610 c 0
 194 610 124 503 124 333 c 0
 124 162 194 51 300 51 c 0
EndSplineSet
Validated: 1
EndChar

StartChar: Odieresis
Encoding: 214 214 77
Width: 600
GlyphClass: 2
Flags: W
HStem: -12 63<228.268 371.732> 610 62<226.272 373.728> 722 90<177.742 255.479 344.521 422.258>
VStem: 50 74<187.966 476.501> 172 90<728.521 806.258> 338 90<728.521 806.258> 476 74<187.966 476.501>
LayerCount: 2
Fore
SplineSet
216 722 m 0
 189 722 172 742 172 768 c 0
 172 795 189 812 216 812 c 0
 242 812 262 795 262 768 c 0
 262 742 242 722 216 722 c 0
384 722 m 0
 358 722 338 742 338 768 c 0
 338 795 358 812 384 812 c 0
 411 812 428 795 428 768 c 0
 428 742 411 722 384 722 c 0
300 -12 m 0
 154 -12 50 122 50 333 c 0
 50 543 154 672 300 672 c 0
 446 672 550 543 550 333 c 0
 550 122 446 -12 300 -12 c 0
300 51 m 0
 406 51 476 162 476 333 c 0
 476 503 406 610 300 610 c 0
 194 610 124 503 124 333 c 0
 124 162 194 51 300 51 c 0
EndSplineSet
Validated: 1
EndChar

StartChar: Ograve
Encoding: 210 210 78
Width: 600
GlyphClass: 2
Flags: W
HStem: -12 63<228.268 371.732> 610 62<226.272 373.728>
VStem: 50 74<187.966 476.501> 476 74<187.966 476.501>
LayerCount: 2
Fore
SplineSet
286 710 m 1
 175 822 l 1
 257 822 l 1
 346 710 l 1
 286 710 l 1
300 -12 m 0
 154 -12 50 122 50 333 c 0
 50 543 154 672 300 672 c 0
 446 672 550 543 550 333 c 0
 550 122 446 -12 300 -12 c 0
300 51 m 0
 406 51 476 162 476 333 c 0
 476 503 406 610 300 610 c 0
 194 610 124 503 124 333 c 0
 124 162 194 51 300 51 c 0
EndSplineSet
Validated: 1
EndChar

StartChar: Ohungarumlaut
Encoding: 336 336 79
Width: 600
GlyphClass: 2
Flags: W
HStem: -12 63<228.268 371.732> 610 62<226.272 373.728>
VStem: 50 74<187.966 476.501> 476 74<187.966 476.501>
LayerCount: 2
Fore
SplineSet
196 710 m 1
 263 822 l 1
 331 822 l 1
 249 710 l 1
 196 710 l 1
350 710 m 1
 416 822 l 1
 484 822 l 1
 402 710 l 1
 350 710 l 1
300 -12 m 0
 154 -12 50 122 50 333 c 0
 50 543 154 672 300 672 c 0
 446 672 550 543 550 333 c 0
 550 122 446 -12 300 -12 c 0
300 51 m 0
 406 51 476 162 476 333 c 0
 476 503 406 610 300 610 c 0
 194 610 124 503 124 333 c 0
 124 162 194 51 300 51 c 0
EndSplineSet
Validated: 1
EndChar

StartChar: Omacron
Encoding: 332 332 80
Width: 600
GlyphClass: 2
Flags: W
HStem: -12 63<228.268 371.732> 609 63<226.272 373.728> 735 50<179 421>
VStem: 50 74<187.966 476.375> 476 74<187.966 476.375>
LayerCount: 2
Fore
SplineSet
179 735 m 1
 179 785 l 1
 421 785 l 1
 421 735 l 1
 179 735 l 1
300 -12 m 0
 154 -12 50 122 50 333 c 0
 50 543 154 672 300 672 c 0
 446 672 550 543 550 333 c 0
 550 122 446 -12 300 -12 c 0
300 51 m 0
 406 51 476 162 476 333 c 0
 476 503 406 609 300 609 c 0
 194 609 124 503 124 333 c 0
 124 162 194 51 300 51 c 0
EndSplineSet
Validated: 1
EndChar

StartChar: uni01EA
Encoding: 490 490 81
Width: 600
GlyphClass: 2
Flags: W
HStem: -211 52<302.8 391.728> -12 63<227.781 300> 609 63<226.272 373.728>
VStem: 50 74<188.198 476.375> 238 57<-150.97 -57.9573> 476 74<186.106 476.164>
LayerCount: 2
Fore
SplineSet
331 -211 m 0
 280 -211 238 -182 238 -126 c 0
 238 -84 264 -42 300 -12 c 1
 126 -10 50 158 50 333 c 0
 50 543 154 672 300 672 c 0
 446 672 550 542 550 333 c 0
 550 155 481 47 375 -0 c 0
 321 -24 295 -75 295 -111 c 0
 295 -143 320 -159 343 -159 c 0
 360 -159 374 -154 386 -144 c 1
 406 -184 l 1
 386 -198 355 -211 331 -211 c 0
300 51 m 0
 406 51 476 162 476 333 c 0
 476 503 406 609 300 609 c 0
 194 609 124 503 124 333 c 0
 124 162 194 51 300 51 c 0
EndSplineSet
Validated: 1
EndChar

StartChar: Oslash
Encoding: 216 216 82
Width: 600
GlyphClass: 2
Flags: W
HStem: -12 63<227.151 371.732> 610 63<226.272 375.921>
VStem: 50 74<181.074 477.224> 476 74<187.755 486.853>
LayerCount: 2
Fore
SplineSet
90 -28 m 1
 48 0 l 1
 110 94 l 1
 72 154 50 235 50 333 c 0
 50 545 154 673 300 673 c 0
 362 673 415 651 456 608 c 1
 510 689 l 1
 552 660 l 1
 490 568 l 1
 529 511 550 430 550 333 c 0
 550 121 446 -12 300 -12 c 0
 239 -12 186 10 144 53 c 1
 90 -28 l 1
154 158 m 1
 420 549 l 1
 386 590 347 610 300 610 c 0
 194 610 124 504 124 333 c 0
 124 265 134 206 154 158 c 1
300 51 m 0
 406 51 476 162 476 333 c 0
 476 401 466 459 448 504 c 1
 184 112 l 1
 214 73 254 51 300 51 c 0
EndSplineSet
Validated: 1
EndChar

StartChar: Otilde
Encoding: 213 213 83
Width: 600
GlyphClass: 2
Flags: W
HStem: -12 63<228.268 371.732> 610 62<226.272 373.728> 716 49<314.324 389.514> 770 50<210.175 287.48>
VStem: 50 74<187.966 476.501> 160 41<716 761.333> 400 40<773.727 820> 476 74<187.966 476.501>
LayerCount: 2
Fore
SplineSet
160 716 m 1
 166 774 193 820 240 820 c 0
 293 820 322 765 360 765 c 0
 380 765 395 787 400 820 c 1
 440 820 l 1
 434 765 407 716 360 716 c 0
 307 716 278 770 240 770 c 0
 221 770 205 751 201 716 c 1
 160 716 l 1
300 -12 m 0
 154 -12 50 122 50 333 c 0
 50 543 154 672 300 672 c 0
 446 672 550 543 550 333 c 0
 550 122 446 -12 300 -12 c 0
300 51 m 0
 406 51 476 162 476 333 c 0
 476 503 406 610 300 610 c 0
 194 610 124 503 124 333 c 0
 124 162 194 51 300 51 c 0
EndSplineSet
Validated: 1
EndChar

StartChar: OE
Encoding: 338 338 84
Width: 600
GlyphClass: 2
Flags: W
HStem: 0 58<212.179 313 380 590> 317 62<380 533> 601 59<206.738 313 380 580>
VStem: 36 74<184.195 480.463> 313 67<61 317 379 601>
LayerCount: 2
Fore
SplineSet
298 0 m 2
 132 0 36 126 36 333 c 0
 36 540 132 660 300 660 c 2
 580 660 l 1
 580 601 l 1
 380 601 l 1
 380 379 l 1
 533 379 l 1
 533 317 l 1
 380 317 l 1
 380 61 l 1
 590 61 l 1
 590 0 l 1
 298 0 l 2
291 58 m 2
 313 58 l 1
 313 602 l 1
 291 602 l 2
 168 602 110 503 110 333 c 0
 110 163 168 58 291 58 c 2
EndSplineSet
Validated: 1
EndChar

StartChar: P
Encoding: 80 80 85
Width: 600
GlyphClass: 2
Flags: W
HStem: 0 21G<108 179> 269 59<179 404.03> 602 58<179 411.913>
VStem: 108 71<0 269 328 602> 470 72<386.614 550.55>
LayerCount: 2
Fore
SplineSet
108 0 m 1
 108 660 l 1
 302 660 l 2
 448 660 542 612 542 470 c 0
 542 334 447 269 302 269 c 2
 179 269 l 1
 179 0 l 1
 108 0 l 1
179 328 m 1
 290 328 l 2
 412 328 470 371 470 470 c 0
 470 571 410 602 290 602 c 2
 179 602 l 1
 179 328 l 1
EndSplineSet
Validated: 1
EndChar

StartChar: Thorn
Encoding: 222 222 86
Width: 600
GlyphClass: 2
Flags: W
HStem: 0 21G<106 178> 156 58<178 405.69> 488 59<178 411.913> 640 20G<106 178>
VStem: 106 72<0 156 214 488 547 660> 470 72<272.461 436.39>
LayerCount: 2
Fore
SplineSet
106 0 m 1
 106 660 l 1
 178 660 l 1
 178 547 l 1
 302 547 l 2
 448 547 542 498 542 356 c 0
 542 220 446 156 302 156 c 2
 178 156 l 1
 178 0 l 1
 106 0 l 1
178 214 m 1
 290 214 l 2
 412 214 470 256 470 356 c 0
 470 456 410 488 290 488 c 2
 178 488 l 1
 178 214 l 1
EndSplineSet
Validated: 1
EndChar

StartChar: Q
Encoding: 81 81 87
Width: 600
GlyphClass: 2
Flags: W
HStem: -161 62<399.04 537.751> 612 62<227.782 371.458>
VStem: 52 72<186.413 476.91> 474 73<186.898 476.699>
LayerCount: 2
Fore
SplineSet
478 -161 m 0
 364 -161 296 -97 264 -9 c 1
 136 11 52 141 52 333 c 0
 52 543 152 674 300 674 c 0
 446 674 547 542 547 333 c 0
 547 142 464 14 340 -8 c 1
 362 -67 415 -99 487 -99 c 0
 507 -99 523 -94 535 -90 c 1
 548 -148 l 1
 527 -155 505 -161 478 -161 c 0
300 50 m 0
 406 50 474 163 474 333 c 0
 474 503 406 612 300 612 c 0
 193 612 124 503 124 333 c 0
 124 163 193 50 300 50 c 0
EndSplineSet
Validated: 1
EndChar

StartChar: R
Encoding: 82 82 88
Width: 600
GlyphClass: 2
Flags: W
HStem: 0 21G<106 177 454.462 547> 286 59<177 301> 602 58<177 403.539>
VStem: 106 71<0 286 345 602> 458 72<401.889 551.209>
LayerCount: 2
Fore
SplineSet
106 0 m 1
 106 660 l 1
 304 660 l 2
 436 660 530 612 530 479 c 0
 530 375 468 314 376 292 c 1
 547 0 l 1
 466 0 l 1
 301 286 l 1
 177 286 l 1
 177 0 l 1
 106 0 l 1
177 345 m 1
 292 345 l 2
 398 345 458 389 458 479 c 0
 458 569 398 602 292 602 c 2
 177 602 l 1
 177 345 l 1
EndSplineSet
Validated: 1
EndChar

StartChar: Racute
Encoding: 340 340 89
Width: 600
GlyphClass: 2
Flags: W
HStem: 0 21G<106 177 454.462 547> 286 59<177 301> 602 58<177 403.539>
VStem: 106 71<0 286 345 602> 458 72<401.889 551.624>
LayerCount: 2
Fore
SplineSet
258 710 m 1
 348 822 l 1
 430 822 l 1
 318 710 l 1
 258 710 l 1
106 0 m 1
 106 660 l 1
 304 660 l 2
 436 660 530 613 530 479 c 0
 530 375 468 314 376 292 c 1
 547 0 l 1
 466 0 l 1
 301 286 l 1
 177 286 l 1
 177 0 l 1
 106 0 l 1
177 345 m 1
 292 345 l 2
 398 345 458 389 458 479 c 0
 458 570 398 602 292 602 c 2
 177 602 l 1
 177 345 l 1
EndSplineSet
Validated: 1
EndChar

StartChar: Rcaron
Encoding: 344 344 90
Width: 600
GlyphClass: 2
Flags: W
HStem: 0 21G<106 177 454.462 547> 286 59<177 301> 602 58<177 403.539>
VStem: 106 71<0 286 345 602> 458 72<401.889 551.624>
LayerCount: 2
Fore
SplineSet
272 710 m 1
 176 822 l 1
 234 822 l 1
 304 752 l 1
 308 752 l 1
 376 822 l 1
 434 822 l 1
 338 710 l 1
 272 710 l 1
106 0 m 1
 106 660 l 1
 304 660 l 2
 436 660 530 613 530 479 c 0
 530 375 468 314 376 292 c 1
 547 0 l 1
 466 0 l 1
 301 286 l 1
 177 286 l 1
 177 0 l 1
 106 0 l 1
177 345 m 1
 292 345 l 2
 398 345 458 389 458 479 c 0
 458 570 398 602 292 602 c 2
 177 602 l 1
 177 345 l 1
EndSplineSet
Validated: 1
EndChar

StartChar: S
Encoding: 83 83 91
Width: 600
GlyphClass: 2
Flags: W
HStem: -12 63<203.56 405.473> 609 63<222.399 412.425>
VStem: 102 73<448.233 566.354> 462 72<103.132 230.24>
LayerCount: 2
Fore
SplineSet
306 -12 m 0
 208 -12 127 26 70 86 c 1
 114 136 l 1
 163 84 232 51 307 51 c 0
 405 51 462 97 462 167 c 0
 462 240 408 261 340 291 c 2
 244 332 l 1
 180 358 102 405 102 501 c 0
 102 601 190 672 312 672 c 0
 394 672 466 638 512 592 c 1
 474 546 l 1
 432 584 379 609 312 609 c 0
 229 609 175 570 175 506 c 0
 175 439 240 414 294 390 c 2
 388 348 l 2
 467 312 534 272 534 173 c 0
 534 69 446 -12 306 -12 c 0
EndSplineSet
Validated: 1
EndChar

StartChar: Sacute
Encoding: 346 346 92
Width: 600
GlyphClass: 2
Flags: W
HStem: -12 63<203.56 405.473> 610 62<222.399 412.425>
VStem: 102 73<448.287 566.512> 462 72<103.132 230.24>
LayerCount: 2
Fore
SplineSet
265 710 m 1
 354 822 l 1
 437 822 l 1
 325 710 l 1
 265 710 l 1
306 -12 m 0
 208 -12 127 26 70 86 c 1
 114 136 l 1
 163 84 232 51 307 51 c 0
 405 51 462 97 462 167 c 0
 462 240 408 261 340 291 c 2
 244 333 l 1
 180 359 102 405 102 501 c 0
 102 601 190 672 312 672 c 0
 394 672 466 638 512 592 c 1
 474 546 l 1
 432 585 379 610 312 610 c 0
 229 610 175 570 175 506 c 0
 175 439 240 414 294 390 c 2
 388 348 l 2
 467 312 534 272 534 173 c 0
 534 69 446 -12 306 -12 c 0
EndSplineSet
Validated: 1
EndChar

StartChar: Scaron
Encoding: 352 352 93
Width: 600
GlyphClass: 2
Flags: W
HStem: -12 63<203.56 405.473> 610 62<222.399 412.425>
VStem: 102 73<448.287 566.512> 462 72<103.132 230.24>
LayerCount: 2
Fore
SplineSet
278 710 m 1
 182 822 l 1
 240 822 l 1
 310 752 l 1
 314 752 l 1
 383 822 l 1
 442 822 l 1
 346 710 l 1
 278 710 l 1
306 -12 m 0
 208 -12 127 26 70 86 c 1
 114 136 l 1
 163 84 232 51 307 51 c 0
 405 51 462 97 462 167 c 0
 462 240 408 261 340 291 c 2
 244 333 l 1
 180 359 102 405 102 501 c 0
 102 601 190 672 312 672 c 0
 394 672 466 638 512 592 c 1
 474 546 l 1
 432 585 379 610 312 610 c 0
 229 610 175 570 175 506 c 0
 175 439 240 414 294 390 c 2
 388 348 l 2
 467 312 534 272 534 173 c 0
 534 69 446 -12 306 -12 c 0
EndSplineSet
Validated: 1
EndChar

StartChar: Scedilla
Encoding: 350 350 94
Width: 600
GlyphClass: 2
Flags: W
HStem: -212 38<233.711 296.181> 609 63<222.399 412.425>
VStem: 102 73<448.233 566.354> 318 56<-154.911 -91.1816> 462 72<103.004 230.24>
LayerCount: 2
Fore
SplineSet
235 -212 m 1
 228 -174 l 1
 281 -167 318 -153 318 -126 c 0
 318 -98 292 -84 252 -74 c 1
 286 -12 l 1
 198 -7 124 30 70 86 c 1
 114 136 l 1
 163 84 232 51 307 51 c 0
 405 51 462 97 462 167 c 0
 462 240 408 261 340 291 c 2
 244 332 l 1
 180 358 102 405 102 501 c 0
 102 601 190 672 312 672 c 0
 394 672 466 638 512 592 c 1
 474 546 l 1
 432 584 379 609 312 609 c 0
 229 609 175 570 175 506 c 0
 175 439 240 414 294 390 c 2
 388 348 l 2
 467 312 534 272 534 173 c 0
 534 75 458 -2 334 -12 c 1
 314 -51 l 1
 347 -62 374 -82 374 -122 c 0
 374 -178 307 -204 235 -212 c 1
EndSplineSet
Validated: 1
EndChar

StartChar: Scircumflex
Encoding: 348 348 95
Width: 600
GlyphClass: 2
Flags: W
HStem: -12 63<203.56 405.473> 610 62<222.399 412.425>
VStem: 102 73<448.287 566.512> 462 72<103.132 230.24>
LayerCount: 2
Fore
SplineSet
182 710 m 1
 278 822 l 1
 346 822 l 1
 442 710 l 1
 383 710 l 1
 314 780 l 1
 310 780 l 1
 240 710 l 1
 182 710 l 1
306 -12 m 0
 208 -12 127 26 70 86 c 1
 114 136 l 1
 163 84 232 51 307 51 c 0
 405 51 462 97 462 167 c 0
 462 240 408 261 340 291 c 2
 244 333 l 1
 180 359 102 405 102 501 c 0
 102 601 190 672 312 672 c 0
 394 672 466 638 512 592 c 1
 474 546 l 1
 432 585 379 610 312 610 c 0
 229 610 175 570 175 506 c 0
 175 439 240 414 294 390 c 2
 388 348 l 2
 467 312 534 272 534 173 c 0
 534 69 446 -12 306 -12 c 0
EndSplineSet
Validated: 1
EndChar

StartChar: uni1E60
Encoding: 7776 7776 96
Width: 600
GlyphClass: 2
Flags: W
HStem: -12 63<203.56 405.473> 610 62<222.399 412.425> 720 100<268.807 354.93>
VStem: 102 73<448.287 566.512> 260 104<729.232 810.18> 462 72<103.132 230.24>
LayerCount: 2
Fore
SplineSet
312 720 m 0
 283 720 260 740 260 770 c 0
 260 798 283 820 312 820 c 0
 340 820 364 798 364 770 c 0
 364 740 340 720 312 720 c 0
306 -12 m 0
 208 -12 127 26 70 86 c 1
 114 136 l 1
 163 84 232 51 307 51 c 0
 405 51 462 97 462 167 c 0
 462 240 408 261 340 291 c 2
 244 333 l 1
 180 359 102 405 102 501 c 0
 102 601 190 672 312 672 c 0
 394 672 466 638 512 592 c 1
 474 546 l 1
 432 585 379 610 312 610 c 0
 229 610 175 570 175 506 c 0
 175 439 240 414 294 390 c 2
 388 348 l 2
 467 312 534 272 534 173 c 0
 534 69 446 -12 306 -12 c 0
EndSplineSet
Validated: 1
EndChar

StartChar: uni1E9E
Encoding: 7838 7838 97
Width: 600
GlyphClass: 2
Flags: W
HStem: -12 61<312.33 445.871> 0 21G<82 154> 612 60<227.498 380.614>
VStem: 82 72<0 529.514> 487 76<90.2305 241.291>
LayerCount: 2
Fore
SplineSet
390 -12 m 0xb8
 322 -12 265 16 227 62 c 1
 270 109 l 1
 305 67 340 49 384 49 c 0xb8
 449 49 487 98 487 170 c 0
 487 237 452 291 310 318 c 1
 306 366 l 1
 432 525 l 1
 412 573 372 612 310 612 c 0
 214 612 154 551 154 416 c 2
 154 0 l 1
 82 0 l 1x78
 82 433 l 2
 82 569 156 672 312 672 c 0
 412 672 476 613 508 522 c 1
 382 364 l 1
 509 337 563 266 563 170 c 0
 563 66 494 -12 390 -12 c 0xb8
EndSplineSet
Validated: 1
EndChar

StartChar: T
Encoding: 84 84 98
Width: 600
GlyphClass: 2
Flags: W
HStem: 0 21G<264 336> 600 60<44 264 336 556>
VStem: 264 72<0 600>
LayerCount: 2
Fore
SplineSet
264 0 m 1
 264 600 l 1
 44 600 l 1
 44 660 l 1
 556 660 l 1
 556 600 l 1
 336 600 l 1
 336 0 l 1
 264 0 l 1
EndSplineSet
Validated: 1
EndChar

StartChar: Tcaron
Encoding: 356 356 99
Width: 600
GlyphClass: 2
Flags: W
HStem: 0 21G<264 336> 600 60<44 264 336 556>
VStem: 264 72<0 600>
LayerCount: 2
Fore
SplineSet
266 710 m 1
 170 822 l 1
 227 822 l 1
 297 752 l 1
 301 752 l 1
 370 822 l 1
 429 822 l 1
 333 710 l 1
 266 710 l 1
264 0 m 1
 264 600 l 1
 44 600 l 1
 44 660 l 1
 556 660 l 1
 556 600 l 1
 336 600 l 1
 336 0 l 1
 264 0 l 1
EndSplineSet
Validated: 1
EndChar

StartChar: uni0162
Encoding: 354 354 100
Width: 600
GlyphClass: 2
Flags: W
HStem: -212 38<218.526 281.181> 600 60<44 264 336 556>
VStem: 264 72<0 600> 303 56<-154.967 -91.0249>
LayerCount: 2
Fore
SplineSet
220 -212 m 1xd0
 212 -174 l 1
 266 -167 303 -153 303 -126 c 0xd0
 303 -98 278 -85 238 -74 c 1
 276 0 l 1
 264 0 l 1
 264 600 l 1
 44 600 l 1
 44 660 l 1
 556 660 l 1
 556 600 l 1
 336 600 l 1
 336 0 l 1xe0
 325 0 l 1
 300 -51 l 1
 332 -62 359 -82 359 -122 c 0
 359 -178 292 -205 220 -212 c 1xd0
EndSplineSet
Validated: 1
EndChar

StartChar: U
Encoding: 85 85 101
Width: 600
GlyphClass: 2
Flags: W
HStem: -12 63<222.944 378.533> 640 20G<82 154 448 518>
VStem: 82 72<132.714 660> 448 70<132.714 660>
LayerCount: 2
Fore
SplineSet
301 -12 m 0
 177 -12 82 56 82 248 c 2
 82 660 l 1
 154 660 l 1
 154 250 l 2
 154 102 219 51 301 51 c 0
 383 51 448 102 448 250 c 2
 448 660 l 1
 518 660 l 1
 518 248 l 2
 518 56 423 -12 301 -12 c 0
EndSplineSet
Validated: 1
EndChar

StartChar: Uacute
Encoding: 218 218 102
Width: 600
GlyphClass: 2
Flags: W
HStem: -12 63<222.944 378.533> 640 20G<82 154 448 518>
VStem: 82 72<132.714 660> 448 70<132.714 660>
LayerCount: 2
Fore
SplineSet
254 710 m 1
 343 822 l 1
 425 822 l 1
 314 710 l 1
 254 710 l 1
301 -12 m 0
 177 -12 82 56 82 248 c 2
 82 660 l 1
 154 660 l 1
 154 250 l 2
 154 102 219 51 301 51 c 0
 383 51 448 102 448 250 c 2
 448 660 l 1
 518 660 l 1
 518 248 l 2
 518 56 423 -12 301 -12 c 0
EndSplineSet
Validated: 1
EndChar

StartChar: Ubreve
Encoding: 364 364 103
Width: 600
GlyphClass: 2
Flags: W
HStem: -12 63<222.944 378.533> 640 20G<82 154 448 518> 712 42<248.564 351.436>
VStem: 82 72<132.714 660> 180 44<777.689 822> 376 44<777.689 822> 448 70<132.714 660>
LayerCount: 2
Fore
SplineSet
300 712 m 0
 222 712 187 769 180 822 c 1
 224 822 l 1
 230 789 253 754 300 754 c 0
 347 754 370 789 376 822 c 1
 420 822 l 1
 413 769 378 712 300 712 c 0
301 -12 m 0
 177 -12 82 56 82 248 c 2
 82 660 l 1
 154 660 l 1
 154 250 l 2
 154 102 219 51 301 51 c 0
 383 51 448 102 448 250 c 2
 448 660 l 1
 518 660 l 1
 518 248 l 2
 518 56 423 -12 301 -12 c 0
EndSplineSet
Validated: 1
EndChar

StartChar: uni01D3
Encoding: 467 467 104
Width: 600
GlyphClass: 2
Flags: W
HStem: -12 63<222.944 378.533> 640 20G<82 154 448 518>
VStem: 82 72<132.714 660> 448 70<132.714 660>
LayerCount: 2
Fore
SplineSet
266 710 m 1
 170 822 l 1
 228 822 l 1
 298 752 l 1
 302 752 l 1
 372 822 l 1
 430 822 l 1
 334 710 l 1
 266 710 l 1
301 -12 m 0
 177 -12 82 56 82 248 c 2
 82 660 l 1
 154 660 l 1
 154 250 l 2
 154 102 219 51 301 51 c 0
 383 51 448 102 448 250 c 2
 448 660 l 1
 518 660 l 1
 518 248 l 2
 518 56 423 -12 301 -12 c 0
EndSplineSet
Validated: 1
EndChar

StartChar: Ucircumflex
Encoding: 219 219 105
Width: 600
GlyphClass: 2
Flags: W
HStem: -12 63<222.944 378.533> 640 20G<82 154 448 518>
VStem: 82 72<132.714 660> 448 70<132.714 660>
LayerCount: 2
Fore
SplineSet
170 710 m 1
 266 822 l 1
 334 822 l 1
 430 710 l 1
 372 710 l 1
 302 780 l 1
 298 780 l 1
 228 710 l 1
 170 710 l 1
301 -12 m 0
 177 -12 82 56 82 248 c 2
 82 660 l 1
 154 660 l 1
 154 250 l 2
 154 102 219 51 301 51 c 0
 383 51 448 102 448 250 c 2
 448 660 l 1
 518 660 l 1
 518 248 l 2
 518 56 423 -12 301 -12 c 0
EndSplineSet
Validated: 1
EndChar

StartChar: Udieresis
Encoding: 220 220 106
Width: 600
GlyphClass: 2
Flags: W
HStem: -12 63<222.944 378.533> 640 20G<82 154 448 518> 722 90<177.742 255.479 344.521 422.258>
VStem: 82 72<133.611 660> 172 90<728.521 806.258> 338 90<728.521 806.258> 448 70<133.611 660>
LayerCount: 2
Fore
SplineSet
216 722 m 0
 189 722 172 742 172 768 c 0
 172 795 189 812 216 812 c 0
 242 812 262 795 262 768 c 0
 262 742 242 722 216 722 c 0
384 722 m 0
 358 722 338 742 338 768 c 0
 338 795 358 812 384 812 c 0
 411 812 428 795 428 768 c 0
 428 742 411 722 384 722 c 0
301 -12 m 0
 177 -12 82 56 82 250 c 2
 82 660 l 1
 154 660 l 1
 154 250 l 2
 154 102 219 51 301 51 c 0
 383 51 448 102 448 250 c 2
 448 660 l 1
 518 660 l 1
 518 250 l 2
 518 56 423 -12 301 -12 c 0
EndSplineSet
Validated: 1
EndChar

StartChar: Ugrave
Encoding: 217 217 107
Width: 600
GlyphClass: 2
Flags: W
HStem: -12 63<222.944 378.533> 640 20G<82 154 448 518>
VStem: 82 72<132.714 660> 448 70<132.714 660>
LayerCount: 2
Fore
SplineSet
286 710 m 1
 175 822 l 1
 257 822 l 1
 346 710 l 1
 286 710 l 1
301 -12 m 0
 177 -12 82 56 82 248 c 2
 82 660 l 1
 154 660 l 1
 154 250 l 2
 154 102 219 51 301 51 c 0
 383 51 448 102 448 250 c 2
 448 660 l 1
 518 660 l 1
 518 248 l 2
 518 56 423 -12 301 -12 c 0
EndSplineSet
Validated: 1
EndChar

StartChar: Uhungarumlaut
Encoding: 368 368 108
Width: 600
GlyphClass: 2
Flags: W
HStem: -12 63<222.944 378.533> 640 20G<82 154 448 518>
VStem: 82 72<132.714 660> 448 70<132.714 660>
LayerCount: 2
Fore
SplineSet
196 710 m 1
 263 822 l 1
 331 822 l 1
 249 710 l 1
 196 710 l 1
350 710 m 1
 416 822 l 1
 484 822 l 1
 402 710 l 1
 350 710 l 1
301 -12 m 0
 177 -12 82 56 82 248 c 2
 82 660 l 1
 154 660 l 1
 154 250 l 2
 154 102 219 51 301 51 c 0
 383 51 448 102 448 250 c 2
 448 660 l 1
 518 660 l 1
 518 248 l 2
 518 56 423 -12 301 -12 c 0
EndSplineSet
Validated: 1
EndChar

StartChar: Umacron
Encoding: 362 362 109
Width: 600
GlyphClass: 2
Flags: W
HStem: -12 63<222.944 378.533> 640 20G<82 154 448 518> 735 50<179 421>
VStem: 82 72<133.611 660> 448 70<133.611 660>
LayerCount: 2
Fore
SplineSet
179 735 m 1
 179 785 l 1
 421 785 l 1
 421 735 l 1
 179 735 l 1
301 -12 m 0
 177 -12 82 56 82 250 c 2
 82 660 l 1
 154 660 l 1
 154 250 l 2
 154 102 219 51 301 51 c 0
 383 51 448 102 448 250 c 2
 448 660 l 1
 518 660 l 1
 518 250 l 2
 518 56 423 -12 301 -12 c 0
EndSplineSet
Validated: 1
EndChar

StartChar: Uogonek
Encoding: 370 370 110
Width: 600
GlyphClass: 2
Flags: W
HStem: -211 52<299.692 387.991> -12 63<225.295 300> 640 20G<82 154 448 518>
VStem: 82 72<130.942 660> 235 57<-150.97 -60.2644> 448 70<132.268 660>
LayerCount: 2
Fore
SplineSet
328 -211 m 0
 277 -211 235 -182 235 -126 c 0
 235 -71 274 -38 300 -12 c 1
 153 -12 82 81 82 248 c 2
 82 660 l 1
 154 660 l 1
 154 250 l 2
 154 102 218 51 300 51 c 0
 382 51 448 102 448 250 c 2
 448 660 l 1
 518 660 l 1
 518 248 l 2
 518 110 466 37 394 4 c 0
 326 -28 292 -73 292 -111 c 0
 292 -143 316 -159 340 -159 c 0
 356 -159 368 -154 382 -144 c 1
 402 -184 l 1
 384 -198 352 -211 328 -211 c 0
EndSplineSet
Validated: 1
EndChar

StartChar: Uring
Encoding: 366 366 111
Width: 600
GlyphClass: 2
Flags: W
HStem: -12 63<222.944 381.024> 640 20G<82 154 448 518> 703 32<264.173 334.78> 842 34<263.395 335.562>
VStem: 82 72<132.714 660> 211 40<745.034 832.615> 348 41<744.683 832.963> 448 70<132.714 660>
LayerCount: 2
Fore
SplineSet
300 703 m 0
 248 703 211 736 211 789 c 0
 211 842 248 876 300 876 c 0
 350 876 389 842 389 789 c 0
 389 736 350 703 300 703 c 0
300 735 m 0
 326 735 348 755 348 789 c 0
 348 822 326 842 300 842 c 0
 272 842 251 822 251 789 c 0
 251 755 272 735 300 735 c 0
301 -12 m 0
 177 -12 82 56 82 248 c 2
 82 660 l 1
 154 660 l 1
 154 248 l 2
 154 100 219 51 301 51 c 0
 383 51 448 100 448 248 c 2
 448 660 l 1
 518 660 l 1
 518 248 l 2
 518 56 423 -12 301 -12 c 0
EndSplineSet
Validated: 1
EndChar

StartChar: Utilde
Encoding: 360 360 112
Width: 600
GlyphClass: 2
Flags: W
HStem: -12 63<222.944 378.533> 640 20G<82 154 448 518> 716 49<314.324 389.514> 770 50<210.175 287.48>
VStem: 82 72<132.714 660> 160 41<716 761.333> 400 40<773.727 820> 448 70<132.714 660>
LayerCount: 2
Fore
SplineSet
160 716 m 1
 166 774 193 820 240 820 c 0
 293 820 322 765 360 765 c 0
 380 765 395 787 400 820 c 1
 440 820 l 1
 434 765 407 716 360 716 c 0
 307 716 278 770 240 770 c 0
 221 770 205 751 201 716 c 1
 160 716 l 1
301 -12 m 0
 177 -12 82 56 82 248 c 2
 82 660 l 1
 154 660 l 1
 154 250 l 2
 154 102 219 51 301 51 c 0
 383 51 448 102 448 250 c 2
 448 660 l 1
 518 660 l 1
 518 248 l 2
 518 56 423 -12 301 -12 c 0
EndSplineSet
Validated: 1
EndChar

StartChar: V
Encoding: 86 86 113
Width: 600
GlyphClass: 2
Flags: W
HStem: 0 21G<253.576 348.364> 640 20G<48 130.011 472.934 552>
LayerCount: 2
Fore
SplineSet
260 0 m 1
 48 660 l 1
 124 660 l 1
 234 294 l 2
 258 215 275 154 300 75 c 1
 304 75 l 1
 328 154 344 215 368 294 c 2
 479 660 l 1
 552 660 l 1
 342 0 l 1
 260 0 l 1
EndSplineSet
Validated: 1
EndChar

StartChar: W
Encoding: 87 87 114
Width: 600
GlyphClass: 2
Flags: W
HStem: 0 72<154.328 165.293 440.381 451.672> 640 20G<11 84.723 519.371 590>
VStem: 11 71<615.577 660> 522 68<614.257 660>
LayerCount: 2
Fore
SplineSet
115 0 m 1
 11 660 l 1
 82 660 l 1
 140 234 l 1
 144 180 152 126 156 72 c 1
 160 72 l 1
 174 126 189 180 203 234 c 1
 276 490 l 1
 330 490 l 1
 404 234 l 1
 416 182 431 126 446 72 c 1
 450 72 l 1
 454 126 462 180 466 234 c 1
 522 660 l 1
 590 660 l 1
 489 0 l 1
 408 0 l 1
 327 290 l 1
 318 328 310 369 302 408 c 1
 299 408 l 1
 291 369 282 328 272 290 c 2
 194 0 l 1
 115 0 l 1
EndSplineSet
Validated: 1
EndChar

StartChar: Wacute
Encoding: 7810 7810 115
Width: 600
GlyphClass: 2
Flags: W
HStem: 0 72<154.328 165.293 440.381 451.672> 640 20G<11 84.723 519.371 590>
VStem: 11 71<615.577 660> 522 68<614.257 660>
LayerCount: 2
Fore
SplineSet
254 710 m 1
 343 822 l 1
 425 822 l 1
 314 710 l 1
 254 710 l 1
115 0 m 1
 11 660 l 1
 82 660 l 1
 140 234 l 1
 144 180 152 126 156 72 c 1
 160 72 l 1
 174 126 189 180 203 234 c 1
 276 490 l 1
 330 490 l 1
 404 234 l 1
 416 182 431 126 446 72 c 1
 450 72 l 1
 454 126 462 180 466 234 c 1
 522 660 l 1
 590 660 l 1
 489 0 l 1
 408 0 l 1
 327 290 l 1
 318 328 310 369 302 408 c 1
 299 408 l 1
 291 369 282 328 272 290 c 2
 194 0 l 1
 115 0 l 1
EndSplineSet
Validated: 1
EndChar

StartChar: Wcircumflex
Encoding: 372 372 116
Width: 600
GlyphClass: 2
Flags: W
HStem: 0 72<154.328 165.293 440.381 451.672> 640 20G<11 84.723 519.371 590>
VStem: 11 71<615.577 660> 522 68<614.257 660>
LayerCount: 2
Fore
SplineSet
170 710 m 1
 266 822 l 1
 334 822 l 1
 430 710 l 1
 372 710 l 1
 302 780 l 1
 298 780 l 1
 228 710 l 1
 170 710 l 1
115 0 m 1
 11 660 l 1
 82 660 l 1
 140 234 l 1
 144 180 152 126 156 72 c 1
 160 72 l 1
 174 126 189 180 203 234 c 1
 276 490 l 1
 330 490 l 1
 404 234 l 1
 416 182 431 126 446 72 c 1
 450 72 l 1
 454 126 462 180 466 234 c 1
 522 660 l 1
 590 660 l 1
 489 0 l 1
 408 0 l 1
 327 290 l 1
 318 328 310 369 302 408 c 1
 299 408 l 1
 291 369 282 328 272 290 c 2
 194 0 l 1
 115 0 l 1
EndSplineSet
Validated: 1
EndChar

StartChar: Wdieresis
Encoding: 7812 7812 117
Width: 600
GlyphClass: 2
Flags: W
HStem: 0 72<154.328 165.293 440.381 451.672> 640 20G<11 84.723 519.371 590> 722 90<177.742 255.479 344.521 422.258>
VStem: 11 71<615.577 660> 172 90<728.521 806.258> 338 90<728.521 806.258> 522 68<614.257 660>
LayerCount: 2
Fore
SplineSet
216 722 m 0
 189 722 172 742 172 768 c 0
 172 795 189 812 216 812 c 0
 242 812 262 795 262 768 c 0
 262 742 242 722 216 722 c 0
384 722 m 0
 358 722 338 742 338 768 c 0
 338 795 358 812 384 812 c 0
 411 812 428 795 428 768 c 0
 428 742 411 722 384 722 c 0
115 0 m 1
 11 660 l 1
 82 660 l 1
 140 234 l 1
 144 180 152 126 156 72 c 1
 160 72 l 1
 174 126 189 180 203 234 c 1
 276 490 l 1
 330 490 l 1
 404 234 l 1
 416 182 431 126 446 72 c 1
 450 72 l 1
 454 126 462 180 466 234 c 1
 522 660 l 1
 590 660 l 1
 489 0 l 1
 408 0 l 1
 327 290 l 1
 318 328 310 369 302 408 c 1
 299 408 l 1
 291 369 282 328 272 290 c 2
 194 0 l 1
 115 0 l 1
EndSplineSet
Validated: 1
EndChar

StartChar: Wgrave
Encoding: 7808 7808 118
Width: 600
GlyphClass: 2
Flags: W
HStem: 0 72<154.328 165.293 440.381 451.672> 640 20G<11 84.723 519.371 590>
VStem: 11 71<615.577 660> 522 68<614.257 660>
LayerCount: 2
Fore
SplineSet
286 710 m 1
 175 822 l 1
 257 822 l 1
 346 710 l 1
 286 710 l 1
115 0 m 1
 11 660 l 1
 82 660 l 1
 140 234 l 1
 144 180 152 126 156 72 c 1
 160 72 l 1
 174 126 189 180 203 234 c 1
 276 490 l 1
 330 490 l 1
 404 234 l 1
 416 182 431 126 446 72 c 1
 450 72 l 1
 454 126 462 180 466 234 c 1
 522 660 l 1
 590 660 l 1
 489 0 l 1
 408 0 l 1
 327 290 l 1
 318 328 310 369 302 408 c 1
 299 408 l 1
 291 369 282 328 272 290 c 2
 194 0 l 1
 115 0 l 1
EndSplineSet
Validated: 1
EndChar

StartChar: X
Encoding: 88 88 119
Width: 600
GlyphClass: 2
Flags: W
HStem: 0 21G<61 147.123 449.71 540> 640 20G<74 163.073 440.153 526>
LayerCount: 2
Fore
SplineSet
61 0 m 1
 258 342 l 1
 74 660 l 1
 152 660 l 1
 250 483 l 1
 268 453 283 426 304 389 c 1
 308 389 l 1
 326 426 339 453 355 483 c 2
 451 660 l 1
 526 660 l 1
 342 338 l 1
 540 0 l 1
 461 0 l 1
 356 186 l 2
 347 202 309 272 298 292 c 1
 294 292 l 1
 274 252 257 219 240 187 c 2
 136 0 l 1
 61 0 l 1
EndSplineSet
Validated: 1
EndChar

StartChar: Y
Encoding: 89 89 120
Width: 600
GlyphClass: 2
Flags: W
HStem: 0 21G<264 336> 640 20G<42 127.294 474.099 558>
VStem: 264 72<0 238>
LayerCount: 2
Fore
SplineSet
264 0 m 1
 264 238 l 1
 42 660 l 1
 117 660 l 1
 222 456 l 2
 248 406 272 355 300 302 c 1
 304 302 l 1
 331 355 358 407 384 458 c 2
 484 660 l 1
 558 660 l 1
 336 238 l 1
 336 0 l 1
 264 0 l 1
EndSplineSet
Validated: 1
EndChar

StartChar: Yacute
Encoding: 221 221 121
Width: 600
GlyphClass: 2
Flags: W
HStem: 0 21G<264 336> 640 20G<42 127.294 474.099 558>
VStem: 264 72<0 238>
LayerCount: 2
Fore
SplineSet
254 710 m 1
 343 822 l 1
 425 822 l 1
 314 710 l 1
 254 710 l 1
264 0 m 1
 264 238 l 1
 42 660 l 1
 117 660 l 1
 222 456 l 2
 248 406 272 356 300 302 c 1
 304 302 l 1
 331 356 358 407 384 458 c 2
 484 660 l 1
 558 660 l 1
 336 238 l 1
 336 0 l 1
 264 0 l 1
EndSplineSet
Validated: 1
EndChar

StartChar: Ycircumflex
Encoding: 374 374 122
Width: 600
GlyphClass: 2
Flags: W
HStem: 0 21G<264 336> 640 20G<42 127.294 474.099 558>
VStem: 264 72<0 238>
LayerCount: 2
Fore
SplineSet
170 710 m 1
 266 822 l 1
 334 822 l 1
 430 710 l 1
 372 710 l 1
 302 780 l 1
 298 780 l 1
 228 710 l 1
 170 710 l 1
264 0 m 1
 264 238 l 1
 42 660 l 1
 117 660 l 1
 222 456 l 2
 248 406 272 356 300 302 c 1
 304 302 l 1
 331 356 358 407 384 458 c 2
 484 660 l 1
 558 660 l 1
 336 238 l 1
 336 0 l 1
 264 0 l 1
EndSplineSet
Validated: 1
EndChar

StartChar: Ydieresis
Encoding: 376 376 123
Width: 600
GlyphClass: 2
Flags: W
HStem: 0 21G<264 336> 640 20G<42 127.396 474.099 558> 722 90<177.742 255.479 344.521 422.258>
VStem: 172 90<728.521 806.258> 264 72<0 238> 338 90<728.521 806.258>
CounterMasks: 1 1c
LayerCount: 2
Fore
SplineSet
216 722 m 0
 189 722 172 742 172 768 c 0
 172 795 189 812 216 812 c 0
 242 812 262 795 262 768 c 0
 262 742 242 722 216 722 c 0
384 722 m 0
 358 722 338 742 338 768 c 0
 338 795 358 812 384 812 c 0
 411 812 428 795 428 768 c 0
 428 742 411 722 384 722 c 0
264 0 m 1
 264 238 l 1
 42 660 l 1
 117 660 l 1
 222 458 l 2
 248 408 272 356 300 302 c 1
 304 302 l 1
 331 356 358 407 384 458 c 2
 484 660 l 1
 558 660 l 1
 336 238 l 1
 336 0 l 1
 264 0 l 1
EndSplineSet
Validated: 1
EndChar

StartChar: uni1E8E
Encoding: 7822 7822 124
Width: 600
GlyphClass: 2
Flags: W
HStem: 0 21G<264 336> 640 20G<42 127.294 474.099 558> 720 100<256.807 343.193>
VStem: 248 104<728.559 810.883> 264 72<0 238>
LayerCount: 2
Fore
SplineSet
300 720 m 0xf0
 271 720 248 740 248 770 c 0
 248 798 271 820 300 820 c 0
 329 820 352 798 352 770 c 0
 352 740 329 720 300 720 c 0xf0
264 0 m 1xe8
 264 238 l 1
 42 660 l 1
 117 660 l 1
 222 456 l 2
 248 406 272 356 300 302 c 1
 304 302 l 1
 331 356 358 407 384 458 c 2
 484 660 l 1
 558 660 l 1
 336 238 l 1
 336 0 l 1
 264 0 l 1xe8
EndSplineSet
Validated: 1
EndChar

StartChar: Ygrave
Encoding: 7922 7922 125
Width: 600
GlyphClass: 2
Flags: W
HStem: 0 21G<264 336> 640 20G<42 127.294 474.099 558>
VStem: 264 72<0 238>
LayerCount: 2
Fore
SplineSet
286 710 m 1
 175 822 l 1
 257 822 l 1
 346 710 l 1
 286 710 l 1
264 0 m 1
 264 238 l 1
 42 660 l 1
 117 660 l 1
 222 456 l 2
 248 406 272 356 300 302 c 1
 304 302 l 1
 331 356 358 407 384 458 c 2
 484 660 l 1
 558 660 l 1
 336 238 l 1
 336 0 l 1
 264 0 l 1
EndSplineSet
Validated: 1
EndChar

StartChar: uni1EF8
Encoding: 7928 7928 126
Width: 600
GlyphClass: 2
Flags: W
HStem: 0 21G<264 336> 640 20G<42 127.294 474.099 558> 716 49<314.324 389.514> 770 50<210.175 287.48>
VStem: 160 41<716 761.333> 264 72<0 238> 400 40<773.727 820>
LayerCount: 2
Fore
SplineSet
160 716 m 1
 166 774 193 820 240 820 c 0
 293 820 322 765 360 765 c 0
 380 765 395 787 400 820 c 1
 440 820 l 1
 434 765 407 716 360 716 c 0
 307 716 278 770 240 770 c 0
 221 770 205 751 201 716 c 1
 160 716 l 1
264 0 m 1
 264 238 l 1
 42 660 l 1
 117 660 l 1
 222 456 l 2
 248 406 272 356 300 302 c 1
 304 302 l 1
 331 356 358 407 384 458 c 2
 484 660 l 1
 558 660 l 1
 336 238 l 1
 336 0 l 1
 264 0 l 1
EndSplineSet
Validated: 1
EndChar

StartChar: Z
Encoding: 90 90 127
Width: 600
GlyphClass: 2
Flags: W
HStem: 0 61<152 538> 601 59<100 445>
LayerCount: 2
Fore
SplineSet
66 0 m 1
 66 42 l 1
 445 601 l 1
 100 601 l 1
 100 660 l 1
 532 660 l 1
 532 618 l 1
 152 61 l 1
 538 61 l 1
 538 0 l 1
 66 0 l 1
EndSplineSet
Validated: 1
EndChar

StartChar: Zacute
Encoding: 377 377 128
Width: 600
GlyphClass: 2
Flags: W
HStem: 0 61<152 538> 602 58<100 445>
LayerCount: 2
Fore
SplineSet
268 710 m 1
 358 822 l 1
 440 822 l 1
 328 710 l 1
 268 710 l 1
66 0 m 1
 66 42 l 1
 445 602 l 1
 100 602 l 1
 100 660 l 1
 532 660 l 1
 532 618 l 1
 152 61 l 1
 538 61 l 1
 538 0 l 1
 66 0 l 1
EndSplineSet
Validated: 1
EndChar

StartChar: Zcaron
Encoding: 381 381 129
Width: 600
GlyphClass: 2
Flags: W
HStem: 0 61<152 538> 602 58<100 445>
LayerCount: 2
Fore
SplineSet
282 710 m 1
 186 822 l 1
 244 822 l 1
 313 752 l 1
 317 752 l 1
 386 822 l 1
 445 822 l 1
 349 710 l 1
 282 710 l 1
66 0 m 1
 66 42 l 1
 445 602 l 1
 100 602 l 1
 100 660 l 1
 532 660 l 1
 532 618 l 1
 152 61 l 1
 538 61 l 1
 538 0 l 1
 66 0 l 1
EndSplineSet
Validated: 1
EndChar

StartChar: Zdotaccent
Encoding: 379 379 130
Width: 600
GlyphClass: 2
Flags: W
HStem: 0 61<152 538> 602 58<100 445> 720 100<272.754 358.877>
VStem: 264 104<729.232 810.18>
LayerCount: 2
Fore
SplineSet
315 720 m 0
 287 720 264 740 264 770 c 0
 264 798 287 820 315 820 c 0
 344 820 368 798 368 770 c 0
 368 740 344 720 315 720 c 0
66 0 m 1
 66 42 l 1
 445 602 l 1
 100 602 l 1
 100 660 l 1
 532 660 l 1
 532 618 l 1
 152 61 l 1
 538 61 l 1
 538 0 l 1
 66 0 l 1
EndSplineSet
Validated: 1
EndChar

StartChar: a
Encoding: 97 97 131
Width: 600
GlyphClass: 2
Flags: W
HStem: -12 56<189.563 345.099> 0 21G<452.333 512> 274 48<297.113 442> 463 59<220.195 387.427>
VStem: 85 68<77.8544 192.414> 442 70<30 72 110.184 274 320.899 405.105> 454 58<0 72>
LayerCount: 2
Fore
SplineSet
250 -12 m 0xba
 161 -12 85 37 85 129 c 0
 85 245 188 299 442 322 c 1xbc
 440 396 407 463 308 463 c 0
 242 463 189 428 154 398 c 1
 126 448 l 1
 163 480 235 522 320 522 c 0
 452 522 512 438 512 318 c 2
 512 0 l 1
 454 0 l 1x7a
 448 72 l 1
 445 72 l 1
 391 27 320 -12 250 -12 c 0xba
268 44 m 0
 325 44 383 73 442 127 c 1
 442 274 l 1
 222 254 153 208 153 134 c 0
 153 70 210 44 268 44 c 0
EndSplineSet
Validated: 1
EndChar

StartChar: aacute
Encoding: 225 225 132
Width: 600
GlyphClass: 2
Flags: W
HStem: -12 56<189.563 345.099> 0 21G<452.333 512> 274 48<297.113 442> 463 59<220.195 387.427> 698 20G<313.448 404>
VStem: 85 68<77.8544 192.414> 442 70<30 72 110.184 274 320.899 405.105> 454 58<0 72>
LayerCount: 2
Fore
SplineSet
235 573 m 1x3c
 326 718 l 1
 404 718 l 1
 290 573 l 1
 235 573 l 1x3c
250 -12 m 0xbd
 161 -12 85 37 85 129 c 0
 85 245 188 299 442 322 c 1xbe
 440 396 407 463 308 463 c 0
 242 463 189 428 154 398 c 1
 126 448 l 1
 163 480 235 522 320 522 c 0
 452 522 512 438 512 318 c 2
 512 0 l 1
 454 0 l 1x7d
 448 72 l 1
 445 72 l 1
 391 27 320 -12 250 -12 c 0xbd
268 44 m 0
 325 44 383 73 442 127 c 1
 442 274 l 1
 222 254 153 208 153 134 c 0
 153 70 210 44 268 44 c 0
EndSplineSet
Validated: 1
EndChar

StartChar: abreve
Encoding: 259 259 133
Width: 600
GlyphClass: 2
Flags: W
HStem: -12 56<189.563 345.099> 0 21G<452.333 512> 274 48<297.113 442> 463 59<220.195 387.427> 575 46<266.978 372.738>
VStem: 85 68<77.8544 192.414> 192 46<651.407 705> 401 46<651.012 705> 442 70<30 72 110.184 274 320.899 405.105> 454 58<0 72>
LayerCount: 2
Fore
SplineSet
320 575 m 0x3f
 234 575 198 645 192 705 c 1
 238 705 l 1
 244 662 270 621 320 621 c 0
 370 621 395 662 401 705 c 1
 447 705 l 1
 441 645 406 575 320 575 c 0x3f
250 -12 m 0xbe40
 161 -12 85 37 85 129 c 0
 85 245 188 299 442 322 c 1xbe80
 440 396 407 463 308 463 c 0
 242 463 189 428 154 398 c 1
 126 448 l 1
 163 480 235 522 320 522 c 0
 452 522 512 438 512 318 c 2
 512 0 l 1
 454 0 l 1x7e40
 448 72 l 1
 445 72 l 1
 391 27 320 -12 250 -12 c 0xbe40
268 44 m 0
 325 44 383 73 442 127 c 1
 442 274 l 1
 222 254 153 208 153 134 c 0
 153 70 210 44 268 44 c 0
EndSplineSet
Validated: 1
EndChar

StartChar: uni01CE
Encoding: 462 462 134
Width: 600
GlyphClass: 2
Flags: W
HStem: -12 56<189.563 345.099> 0 21G<452.333 512> 274 48<297.113 442> 463 59<220.195 387.427> 698 20G<193 262 377.2 446>
VStem: 85 68<77.8544 192.414> 442 70<30 72 110.184 274 320.899 405.105> 454 58<0 72>
LayerCount: 2
Fore
SplineSet
290 573 m 1x3c
 193 718 l 1
 248 718 l 1
 318 618 l 1
 322 618 l 1
 391 718 l 1
 446 718 l 1
 350 573 l 1
 290 573 l 1x3c
250 -12 m 0xbd
 161 -12 85 37 85 129 c 0
 85 245 188 299 442 322 c 1xbe
 440 396 407 463 308 463 c 0
 242 463 189 428 154 398 c 1
 126 448 l 1
 163 480 235 522 320 522 c 0
 452 522 512 438 512 318 c 2
 512 0 l 1
 454 0 l 1x7d
 448 72 l 1
 445 72 l 1
 391 27 320 -12 250 -12 c 0xbd
268 44 m 0
 325 44 383 73 442 127 c 1
 442 274 l 1
 222 254 153 208 153 134 c 0
 153 70 210 44 268 44 c 0
EndSplineSet
Validated: 1
EndChar

StartChar: acircumflex
Encoding: 226 226 135
Width: 600
GlyphClass: 2
Flags: W
HStem: -12 56<189.563 345.099> 0 21G<452.333 512> 274 48<297.113 442> 463 59<220.195 387.427> 698 20G<276.621 363.241>
VStem: 85 68<77.8544 192.414> 442 70<30 72 110.184 274 320.899 405.105> 454 58<0 72>
LayerCount: 2
Fore
SplineSet
193 573 m 1x3c
 290 718 l 1
 350 718 l 1
 446 573 l 1
 391 573 l 1
 322 672 l 1
 318 672 l 1
 248 573 l 1
 193 573 l 1x3c
250 -12 m 0xbd
 161 -12 85 37 85 129 c 0
 85 245 188 299 442 322 c 1xbe
 440 396 407 463 308 463 c 0
 242 463 189 428 154 398 c 1
 126 448 l 1
 163 480 235 522 320 522 c 0
 452 522 512 438 512 318 c 2
 512 0 l 1
 454 0 l 1x7d
 448 72 l 1
 445 72 l 1
 391 27 320 -12 250 -12 c 0xbd
268 44 m 0
 325 44 383 73 442 127 c 1
 442 274 l 1
 222 254 153 208 153 134 c 0
 153 70 210 44 268 44 c 0
EndSplineSet
Validated: 1
EndChar

StartChar: adieresis
Encoding: 228 228 136
Width: 600
GlyphClass: 2
Flags: W
HStem: -12 56<189.563 345.099> 0 21G<452.333 512> 274 48<297.113 442> 463 59<220.195 387.427> 591 102<184.559 266.221 372.779 454.441>
VStem: 85 68<77.8544 192.414> 176 99<599.754 684.51> 364 99<599.754 684.51> 442 70<30 72 110.184 274 320.899 405.105> 454 58<0 72>
LayerCount: 2
Fore
SplineSet
226 591 m 0x3e
 196 591 176 614 176 642 c 0
 176 671 196 693 226 693 c 0
 254 693 275 671 275 642 c 0
 275 614 254 591 226 591 c 0x3e
413 591 m 0
 385 591 364 614 364 642 c 0
 364 671 385 693 413 693 c 0
 443 693 463 671 463 642 c 0x3f
 463 614 443 591 413 591 c 0
250 -12 m 0xbe40
 161 -12 85 37 85 129 c 0
 85 245 188 299 442 322 c 1xbe80
 440 396 407 463 308 463 c 0
 242 463 189 428 154 398 c 1
 126 448 l 1
 163 480 235 522 320 522 c 0
 452 522 512 438 512 318 c 2
 512 0 l 1
 454 0 l 1x7e40
 448 72 l 1
 445 72 l 1
 391 27 320 -12 250 -12 c 0xbe40
268 44 m 0
 325 44 383 73 442 127 c 1
 442 274 l 1
 222 254 153 208 153 134 c 0
 153 70 210 44 268 44 c 0
EndSplineSet
Validated: 1
EndChar

StartChar: agrave
Encoding: 224 224 137
Width: 600
GlyphClass: 2
Flags: W
HStem: -12 56<189.563 345.099> 0 21G<452.333 512> 274 48<297.113 442> 463 59<220.195 387.427> 698 20G<235 326.414>
VStem: 85 68<77.8544 192.414> 442 70<30 72 110.184 274 320.899 405.105> 454 58<0 72>
LayerCount: 2
Fore
SplineSet
349 573 m 1x3c
 235 718 l 1
 314 718 l 1
 404 573 l 1
 349 573 l 1x3c
250 -12 m 0xbd
 161 -12 85 37 85 129 c 0
 85 245 188 299 442 322 c 1xbe
 440 396 407 463 308 463 c 0
 242 463 189 428 154 398 c 1
 126 448 l 1
 163 480 235 522 320 522 c 0
 452 522 512 438 512 318 c 2
 512 0 l 1
 454 0 l 1x7d
 448 72 l 1
 445 72 l 1
 391 27 320 -12 250 -12 c 0xbd
268 44 m 0
 325 44 383 73 442 127 c 1
 442 274 l 1
 222 254 153 208 153 134 c 0
 153 70 210 44 268 44 c 0
EndSplineSet
Validated: 1
EndChar

StartChar: amacron
Encoding: 257 257 138
Width: 600
GlyphClass: 2
Flags: W
HStem: -12 56<189.563 345.099> 0 21G<452.333 512> 274 48<297.113 442> 463 59<220.195 387.427> 602 50<200 440>
VStem: 85 68<77.8544 192.414> 442 70<30 72 110.184 274 320.899 405.105> 454 58<0 72>
LayerCount: 2
Fore
SplineSet
200 602 m 1x3c
 200 652 l 1
 440 652 l 1
 440 602 l 1
 200 602 l 1x3c
250 -12 m 0xbd
 161 -12 85 37 85 129 c 0
 85 245 188 299 442 322 c 1xbe
 440 396 407 463 308 463 c 0
 242 463 189 428 154 398 c 1
 126 448 l 1
 163 480 235 522 320 522 c 0
 452 522 512 438 512 318 c 2
 512 0 l 1
 454 0 l 1x7d
 448 72 l 1
 445 72 l 1
 391 27 320 -12 250 -12 c 0xbd
268 44 m 0
 325 44 383 73 442 127 c 1
 442 274 l 1
 222 254 153 208 153 134 c 0
 153 70 210 44 268 44 c 0
EndSplineSet
Validated: 1
EndChar

StartChar: aogonek
Encoding: 261 261 139
Width: 600
GlyphClass: 2
Flags: W
HStem: -206 49<439.353 526.528> -12 56<189.563 345.099> 274 48<297.113 442> 463 59<220.195 387.427>
VStem: 85 68<77.8544 192.414> 378 54<-150.213 -51.4444> 442 70<31.75 72 110.184 274 320.899 405.105>
LayerCount: 2
Fore
SplineSet
520 -143 m 1
 540 -180 l 1
 522 -194 490 -206 466 -206 c 0
 418 -206 378 -177 378 -122 c 0
 378 -69 416 -23 450 3 c 1
 454 3 l 1
 448 72 l 1
 445 72 l 1
 391 27 320 -12 250 -12 c 0
 161 -12 85 37 85 129 c 0
 85 245 188 299 442 322 c 1
 440 396 407 463 308 463 c 0
 242 463 189 428 154 398 c 1
 126 448 l 1
 163 480 235 522 320 522 c 0
 452 522 512 438 512 318 c 2
 512 0 l 1
 499 0 l 1
 457 -32 432 -69 432 -109 c 0
 432 -141 455 -157 479 -157 c 0
 495 -157 508 -151 520 -143 c 1
442 127 m 1
 442 274 l 1
 222 254 153 208 153 134 c 0
 153 70 210 44 268 44 c 0
 325 44 383 73 442 127 c 1
EndSplineSet
Validated: 1
EndChar

StartChar: aring
Encoding: 229 229 140
Width: 600
GlyphClass: 2
Flags: W
HStem: -12 56<189.563 345.099> 0 21G<452.333 512> 274 48<297.113 442> 463 59<220.195 387.427> 541 34<283.833 355.827> 688 34<283.833 355.827>
VStem: 85 68<77.8544 192.414> 230 40<586.127 677.29> 369 40<585.165 677.29> 442 70<30 72 110.184 274 320.899 405.105> 454 58<0 72>
LayerCount: 2
Fore
SplineSet
320 541 m 0x3f80
 268 541 230 578 230 632 c 0
 230 686 268 722 320 722 c 0
 372 722 409 686 409 632 c 0
 409 578 372 541 320 541 c 0x3f80
320 575 m 0
 348 575 369 597 369 632 c 0
 369 666 348 688 320 688 c 0
 292 688 270 666 270 632 c 0
 270 597 292 575 320 575 c 0
250 -12 m 0xbfa0
 161 -12 85 37 85 129 c 0
 85 245 188 299 442 322 c 1xbfc0
 440 396 407 463 308 463 c 0
 242 463 189 428 154 398 c 1
 126 448 l 1
 163 480 235 522 320 522 c 0
 452 522 512 438 512 318 c 2
 512 0 l 1
 454 0 l 1x7fa0
 448 72 l 1
 445 72 l 1
 391 27 320 -12 250 -12 c 0xbfa0
268 44 m 0
 325 44 383 73 442 127 c 1
 442 274 l 1
 222 254 153 208 153 134 c 0
 153 70 210 44 268 44 c 0
EndSplineSet
Validated: 1
EndChar

StartChar: atilde
Encoding: 227 227 141
Width: 600
GlyphClass: 2
Flags: W
HStem: -12 56<189.563 345.099> 0 21G<452.333 512> 274 48<297.113 442> 463 59<220.195 387.427> 580 48<333.825 404.385> 635 48<235.053 305.687>
VStem: 85 68<77.8544 192.414> 183 42<580 628.346> 414 42<634.654 683> 442 70<30 72 110.184 274 320.899 405.105> 454 58<0 72>
LayerCount: 2
Fore
SplineSet
183 580 m 1x3f80
 189 636 214 683 266 683 c 0
 314 683 342 628 375 628 c 0
 396 628 408 647 414 683 c 1
 456 683 l 1
 450 627 426 580 374 580 c 0
 325 580 298 635 264 635 c 0
 243 635 231 616 225 580 c 1
 183 580 l 1x3f80
250 -12 m 0xbf20
 161 -12 85 37 85 129 c 0
 85 245 188 299 442 322 c 1xbf40
 440 396 407 463 308 463 c 0
 242 463 189 428 154 398 c 1
 126 448 l 1
 163 480 235 522 320 522 c 0
 452 522 512 438 512 318 c 2
 512 0 l 1
 454 0 l 1x7f20
 448 72 l 1
 445 72 l 1
 391 27 320 -12 250 -12 c 0xbf20
268 44 m 0
 325 44 383 73 442 127 c 1
 442 274 l 1
 222 254 153 208 153 134 c 0
 153 70 210 44 268 44 c 0
EndSplineSet
Validated: 1
EndChar

StartChar: ae
Encoding: 230 230 142
Width: 600
GlyphClass: 2
Flags: W
HStem: -12 56<105.84 217.856 394.346 536.342> 240 50<331 538> 464 58<99.4745 233.8 385.843 498.233>
VStem: 17 66<67.6755 201.79> 270 61<131.506 240> 538 60<290.318 413.744>
LayerCount: 2
Fore
SplineSet
146 -12 m 0
 70 -12 17 41 17 134 c 0
 17 234 104 296 270 322 c 1
 270 404 245 464 177 464 c 0
 141 464 91 442 61 420 c 1
 34 468 l 1
 71 494 127 522 187 522 c 0
 251 522 292 474 309 413 c 1
 341 481 386 522 452 522 c 0
 550 522 598 414 598 292 c 0
 598 274 596 258 594 240 c 1
 331 240 l 1
 333 125 374 44 458 44 c 0
 496 44 530 61 558 78 c 1
 583 32 l 1
 551 10 508 -12 456 -12 c 0
 386 -12 339 24 307 87 c 1
 253 24 198 -12 146 -12 c 0
330 290 m 1
 538 290 l 1
 538 384 516 466 446 466 c 0
 378 466 336 398 330 290 c 1
162 44 m 0
 199 44 248 75 286 130 c 1
 276 162 271 202 270 246 c 1
 268 274 l 1
 136 250 83 206 83 136 c 0
 83 74 114 44 162 44 c 0
EndSplineSet
Validated: 1
EndChar

StartChar: b
Encoding: 98 98 143
Width: 600
GlyphClass: 2
Flags: W
HStem: -12 59<233.367 380.383> 0 21G<97 156.105> 462 60<247.935 397.035> 708 20G<97 167>
VStem: 97 70<95.4426 398.645 440 728> 97 57<0 57> 465 72<146.07 383.356>
LayerCount: 2
Fore
SplineSet
316 -12 m 0xba
 269 -12 209 15 162 57 c 1
 160 57 l 1
 154 0 l 1
 97 0 l 1x76
 97 728 l 1
 167 728 l 1
 167 543 l 1
 165 440 l 1
 213 490 277 522 335 522 c 0
 467 522 537 421 537 263 c 0
 537 89 433 -12 316 -12 c 0xba
308 47 m 0xba
 398 47 465 132 465 262 c 0
 465 380 424 462 320 462 c 0
 275 462 221 435 167 379 c 1
 167 114 l 1
 216 66 271 47 308 47 c 0xba
EndSplineSet
Validated: 1
EndChar

StartChar: uni0180
Encoding: 384 384 144
Width: 600
GlyphClass: 2
Flags: W
HStem: -12 59<233.367 380.383> 0 21G<97 156.105> 442 60<249.147 398.621> 579 44<22 97 167 384> 708 20G<97 167>
VStem: 97 70<95.4426 377.688 418 579 623 728> 97 57<0 57> 465 72<143.911 367.557>
LayerCount: 2
Fore
SplineSet
316 -12 m 0xbd
 269 -12 209 15 162 57 c 1
 160 57 l 1
 154 0 l 1
 97 0 l 1x7b
 97 579 l 1
 22 579 l 1
 22 618 l 1
 97 623 l 1
 97 728 l 1
 167 728 l 1
 167 623 l 1
 384 623 l 1
 384 579 l 1
 167 579 l 1
 167 522 l 1
 165 418 l 1
 213 468 277 502 335 502 c 0
 467 502 537 404 537 253 c 0
 537 85 433 -12 316 -12 c 0xbd
308 47 m 0xbd
 398 47 465 128 465 252 c 0
 465 363 424 442 320 442 c 0
 275 442 221 414 167 358 c 1
 167 114 l 1
 216 66 271 47 308 47 c 0xbd
EndSplineSet
Validated: 1
EndChar

StartChar: c
Encoding: 99 99 145
Width: 600
GlyphClass: 2
Flags: W
HStem: -12 57<258.291 438.01> 464 58<258.576 435.212>
VStem: 82 72<152.135 354.245>
LayerCount: 2
Fore
SplineSet
346 -12 m 0
 195 -12 82 85 82 254 c 0
 82 425 204 522 350 522 c 0
 429 522 486 487 526 446 c 1
 490 400 l 1
 450 440 406 464 352 464 c 0
 235 464 154 378 154 254 c 0
 154 130 233 45 351 45 c 0
 413 45 464 76 506 114 c 1
 538 68 l 1
 486 18 419 -12 346 -12 c 0
EndSplineSet
Validated: 1
EndChar

StartChar: cacute
Encoding: 263 263 146
Width: 600
GlyphClass: 2
Flags: W
HStem: -12 57<258.291 438.01> 464 58<258.576 435.212> 698 20G<325.586 416>
VStem: 82 72<152.135 354.245>
LayerCount: 2
Fore
SplineSet
248 573 m 1
 338 718 l 1
 416 718 l 1
 302 573 l 1
 248 573 l 1
346 -12 m 0
 195 -12 82 85 82 254 c 0
 82 425 204 522 350 522 c 0
 429 522 486 487 526 446 c 1
 490 400 l 1
 450 440 406 464 352 464 c 0
 235 464 154 378 154 254 c 0
 154 130 233 45 351 45 c 0
 413 45 464 76 506 114 c 1
 538 68 l 1
 486 18 419 -12 346 -12 c 0
EndSplineSet
Validated: 1
EndChar

StartChar: ccaron
Encoding: 269 269 147
Width: 600
GlyphClass: 2
Flags: W
HStem: -12 57<258.291 438.01> 464 58<258.576 435.212> 698 20G<206 274 390 458>
VStem: 82 72<152.135 354.245>
LayerCount: 2
Fore
SplineSet
302 573 m 1
 206 718 l 1
 260 718 l 1
 330 618 l 1
 334 618 l 1
 404 718 l 1
 458 718 l 1
 362 573 l 1
 302 573 l 1
346 -12 m 0
 195 -12 82 85 82 254 c 0
 82 425 204 522 350 522 c 0
 429 522 486 487 526 446 c 1
 490 400 l 1
 450 440 406 464 352 464 c 0
 235 464 154 378 154 254 c 0
 154 130 233 45 351 45 c 0
 413 45 464 76 506 114 c 1
 538 68 l 1
 486 18 419 -12 346 -12 c 0
EndSplineSet
Validated: 1
EndChar

StartChar: ccedilla
Encoding: 231 231 148
Width: 600
GlyphClass: 2
Flags: W
HStem: -212 38<233.711 292.363> -12 57<332 437.614> 464 58<258.576 435.212>
VStem: 82 72<152.571 354.245> 316 56<-155.043 -90.7964>
LayerCount: 2
Fore
SplineSet
314 -52 m 1
 347 -63 372 -81 372 -122 c 0
 372 -178 306 -204 235 -212 c 1
 228 -174 l 1
 280 -166 316 -153 316 -125 c 0
 316 -97 292 -85 252 -75 c 1
 287 -8 l 1
 167 14 82 108 82 254 c 0
 82 425 204 522 350 522 c 0
 429 522 486 487 526 446 c 1
 490 400 l 1
 450 440 406 464 352 464 c 0
 235 464 154 378 154 254 c 0
 154 130 233 45 351 45 c 0
 413 45 464 76 506 114 c 1
 538 68 l 1
 486 18 419 -12 346 -12 c 2
 332 -12 l 1
 314 -52 l 1
EndSplineSet
Validated: 1
EndChar

StartChar: ccircumflex
Encoding: 265 265 149
Width: 600
GlyphClass: 2
Flags: W
HStem: -12 57<258.291 438.01> 464 58<258.576 435.212> 698 20G<288.759 375.241>
VStem: 82 72<152.135 354.245>
LayerCount: 2
Fore
SplineSet
206 573 m 1
 302 718 l 1
 362 718 l 1
 458 573 l 1
 404 573 l 1
 334 672 l 1
 330 672 l 1
 260 573 l 1
 206 573 l 1
346 -12 m 0
 195 -12 82 85 82 254 c 0
 82 425 204 522 350 522 c 0
 429 522 486 487 526 446 c 1
 490 400 l 1
 450 440 406 464 352 464 c 0
 235 464 154 378 154 254 c 0
 154 130 233 45 351 45 c 0
 413 45 464 76 506 114 c 1
 538 68 l 1
 486 18 419 -12 346 -12 c 0
EndSplineSet
Validated: 1
EndChar

StartChar: cdotaccent
Encoding: 267 267 150
Width: 600
GlyphClass: 2
Flags: W
HStem: -12 57<258.291 438.01> 464 58<258.576 435.212> 631 129<283.386 381.184>
VStem: 82 72<152.135 354.245> 268 129<646.594 743.747>
LayerCount: 2
Fore
SplineSet
332 631 m 0
 296 631 268 657 268 694 c 0
 268 733 296 760 332 760 c 0
 368 760 397 733 397 694 c 0
 397 657 368 631 332 631 c 0
346 -12 m 0
 195 -12 82 85 82 254 c 0
 82 425 204 522 350 522 c 0
 429 522 486 487 526 446 c 1
 490 400 l 1
 450 440 406 464 352 464 c 0
 235 464 154 378 154 254 c 0
 154 130 233 45 351 45 c 0
 413 45 464 76 506 114 c 1
 538 68 l 1
 486 18 419 -12 346 -12 c 0
EndSplineSet
Validated: 1
EndChar

StartChar: d
Encoding: 100 100 151
Width: 600
GlyphClass: 2
Flags: W
HStem: -12 59<212.193 356.364> 0 21G<443.028 504> 462 60<224.643 372.372> 708 20G<434 504>
VStem: 62 72<138.769 359.335> 434 70<106.801 414.504 453 728> 445 59<0 71>
LayerCount: 2
Fore
SplineSet
274 -12 m 0xba
 146 -12 62 84 62 254 c 0
 62 418 169 522 285 522 c 0
 345 522 389 497 436 453 c 1
 434 552 l 1
 434 728 l 1
 504 728 l 1xbc
 504 0 l 1
 445 0 l 1x7a
 438 71 l 1
 436 71 l 1
 396 27 336 -12 274 -12 c 0xba
287 47 m 0
 337 47 388 75 434 131 c 1
 434 396 l 1
 386 444 341 462 297 462 c 0
 207 462 134 374 134 254 c 0
 134 127 191 47 287 47 c 0
EndSplineSet
Validated: 1
EndChar

StartChar: eth
Encoding: 240 240 152
Width: 600
GlyphClass: 2
Flags: W
HStem: -12 57<218.924 380.12> 414 56<209.658 375.882> 515 21G<171.189 219.037> 708 20G<450.514 498.053>
VStem: 62 66<140.922 328.193> 466 68<146.089 371.594>
LayerCount: 2
Fore
SplineSet
298 -12 m 0
 174 -12 62 81 62 233 c 0
 62 374 157 470 292 470 c 0
 356 470 419 433 457 378 c 1
 439 482 396 536 332 596 c 1
 182 515 l 1
 162 552 l 1
 296 625 l 1
 260 653 217 677 170 703 c 1
 204 748 l 1
 257 720 307 690 352 654 c 1
 487 728 l 1
 508 690 l 1
 387 625 l 1
 475 539 534 440 534 268 c 0
 534 99 442 -12 298 -12 c 0
300 45 m 0
 413 45 466 141 466 266 c 0
 466 283 465 300 464 316 c 1
 414 388 354 414 300 414 c 0
 186 414 128 333 128 233 c 0
 128 121 206 45 300 45 c 0
EndSplineSet
Validated: 1
EndChar

StartChar: dcaron
Encoding: 271 271 153
Width: 600
GlyphClass: 2
Flags: W
HStem: -12 59<204.475 347.404> 0 21G<435.31 496> 462 60<217.604 365.202> 708 20G<426 496>
VStem: 54 73<135.714 359.335> 426 70<106.801 416.349 453 728> 437 59<0 71> 537 52<640.308 773> 540 36<552 640.308>
LayerCount: 2
Fore
SplineSet
540 552 m 1x3880
 537 773 l 1
 590 773 l 1
 589 716 l 1x39
 576 552 l 1
 540 552 l 1x3880
266 -12 m 0xba
 139 -12 54 84 54 254 c 0
 54 418 162 522 278 522 c 0
 338 522 382 497 428 453 c 1
 426 552 l 1
 426 728 l 1
 496 728 l 1xbc
 496 0 l 1
 437 0 l 1x7a
 431 71 l 1
 428 71 l 1
 388 27 328 -12 266 -12 c 0xba
279 47 m 0
 330 47 380 75 426 131 c 1
 426 396 l 1
 379 444 334 462 290 462 c 0
 200 462 127 374 127 254 c 0
 127 127 183 47 279 47 c 0
EndSplineSet
Validated: 1
EndChar

StartChar: dcroat
Encoding: 273 273 154
Width: 600
GlyphClass: 2
Flags: W
HStem: -12 59<210.539 356.364> 0 21G<443.028 504> 442 60<225.037 370.384> 581 44<256 434 504 576> 708 20G<434 504>
VStem: 62 72<132.773 344.359> 434 70<106.801 394.504 432 580 625 728> 445 59<0 71>
LayerCount: 2
Fore
SplineSet
274 -12 m 0xbd
 146 -12 62 78 62 242 c 0
 62 402 169 502 285 502 c 0
 345 502 389 476 436 432 c 1
 434 530 l 1
 434 581 l 1
 256 581 l 1
 256 625 l 1
 434 625 l 1
 434 728 l 1
 504 728 l 1
 504 625 l 1
 576 625 l 1
 576 586 l 1
 504 580 l 1xbe
 504 0 l 1
 445 0 l 1x7d
 438 71 l 1
 436 71 l 1
 396 27 336 -12 274 -12 c 0xbd
287 47 m 0
 337 47 388 75 434 131 c 1
 434 376 l 1
 386 424 342 442 298 442 c 0
 208 442 134 358 134 244 c 0
 134 123 191 47 287 47 c 0
EndSplineSet
Validated: 1
EndChar

StartChar: e
Encoding: 101 101 155
Width: 600
GlyphClass: 2
Flags: W
HStem: -12 57<245.726 438.066> 240 52<145 470> 466 56<240.179 399.003>
VStem: 72 73<148.183 240 292 365.906> 470 66<292 392.82>
LayerCount: 2
Fore
SplineSet
330 -12 m 0
 188 -12 72 87 72 254 c 0
 72 420 191 522 316 522 c 0
 452 522 536 429 536 284 c 0
 536 268 535 253 533 240 c 1
 145 240 l 1
 147 124 226 45 338 45 c 0
 398 45 444 65 490 96 c 1
 516 47 l 1
 470 16 410 -12 330 -12 c 0
144 292 m 1
 470 292 l 1
 470 404 411 466 317 466 c 0
 233 466 157 400 144 292 c 1
EndSplineSet
Validated: 1
EndChar

StartChar: eacute
Encoding: 233 233 156
Width: 600
GlyphClass: 2
Flags: W
HStem: -12 57<245.726 438.066> 240 52<145 470> 466 56<240.179 399.003> 698 20G<309.586 401>
VStem: 72 73<148.183 240 292 365.906> 470 66<292 392.82>
LayerCount: 2
Fore
SplineSet
232 573 m 1
 322 718 l 1
 401 718 l 1
 287 573 l 1
 232 573 l 1
330 -12 m 0
 188 -12 72 87 72 254 c 0
 72 420 191 522 316 522 c 0
 452 522 536 429 536 284 c 0
 536 268 535 253 533 240 c 1
 145 240 l 1
 147 124 226 45 338 45 c 0
 398 45 444 65 490 96 c 1
 516 47 l 1
 470 16 410 -12 330 -12 c 0
144 292 m 1
 470 292 l 1
 470 404 411 466 317 466 c 0
 233 466 157 400 144 292 c 1
EndSplineSet
Validated: 1
EndChar

StartChar: ebreve
Encoding: 277 277 157
Width: 600
GlyphClass: 2
Flags: W
HStem: -12 57<245.726 438.066> 240 52<145 470> 466 56<240.179 399.003> 575 46<263.547 369.022>
VStem: 72 73<148.183 240 292 365.906> 190 46<651.012 705> 398 46<651.407 705> 470 66<292 392.82>
LayerCount: 2
Fore
SplineSet
316 575 m 0
 230 575 196 645 190 705 c 1
 236 705 l 1
 242 662 266 621 316 621 c 0
 366 621 392 662 398 705 c 1
 444 705 l 1
 438 645 402 575 316 575 c 0
330 -12 m 0
 188 -12 72 87 72 254 c 0
 72 420 191 522 316 522 c 0
 452 522 536 429 536 284 c 0
 536 268 535 253 533 240 c 1
 145 240 l 1
 147 124 226 45 338 45 c 0
 398 45 444 65 490 96 c 1
 516 47 l 1
 470 16 410 -12 330 -12 c 0
144 292 m 1
 470 292 l 1
 470 404 411 466 317 466 c 0
 233 466 157 400 144 292 c 1
EndSplineSet
Validated: 1
EndChar

StartChar: ecaron
Encoding: 283 283 158
Width: 600
GlyphClass: 2
Flags: W
HStem: -12 57<245.726 438.066> 240 52<145 470> 466 56<240.179 399.003> 698 20G<190 258.8 374 443>
VStem: 72 73<148.183 240 292 365.906> 470 66<292 392.82>
LayerCount: 2
Fore
SplineSet
286 573 m 1
 190 718 l 1
 245 718 l 1
 314 618 l 1
 318 618 l 1
 388 718 l 1
 443 718 l 1
 346 573 l 1
 286 573 l 1
330 -12 m 0
 188 -12 72 87 72 254 c 0
 72 420 191 522 316 522 c 0
 452 522 536 429 536 284 c 0
 536 268 535 253 533 240 c 1
 145 240 l 1
 147 124 226 45 338 45 c 0
 398 45 444 65 490 96 c 1
 516 47 l 1
 470 16 410 -12 330 -12 c 0
144 292 m 1
 470 292 l 1
 470 404 411 466 317 466 c 0
 233 466 157 400 144 292 c 1
EndSplineSet
Validated: 1
EndChar

StartChar: ecircumflex
Encoding: 234 234 159
Width: 600
GlyphClass: 2
Flags: W
HStem: -12 57<245.726 438.066> 240 52<145 470> 466 56<240.179 399.003> 698 20G<272.759 359.379>
VStem: 72 73<148.183 240 292 365.906> 470 66<292 392.82>
LayerCount: 2
Fore
SplineSet
190 573 m 1
 286 718 l 1
 346 718 l 1
 443 573 l 1
 388 573 l 1
 318 672 l 1
 314 672 l 1
 245 573 l 1
 190 573 l 1
330 -12 m 0
 188 -12 72 87 72 254 c 0
 72 420 191 522 316 522 c 0
 452 522 536 429 536 284 c 0
 536 268 535 253 533 240 c 1
 145 240 l 1
 147 124 226 45 338 45 c 0
 398 45 444 65 490 96 c 1
 516 47 l 1
 470 16 410 -12 330 -12 c 0
144 292 m 1
 470 292 l 1
 470 404 411 466 317 466 c 0
 233 466 157 400 144 292 c 1
EndSplineSet
Validated: 1
EndChar

StartChar: edieresis
Encoding: 235 235 160
Width: 600
GlyphClass: 2
Flags: W
HStem: -12 57<245.726 438.066> 240 52<145 470> 466 56<240.179 399.003> 591 102<182.221 263.883 369.117 450.779>
VStem: 72 73<148.183 240 292 365.906> 174 99<599.754 684.51> 360 99<599.754 684.51> 470 66<292 392.82>
LayerCount: 2
Fore
SplineSet
223 591 m 0
 193 591 174 614 174 642 c 0
 174 671 193 693 223 693 c 0
 251 693 273 671 273 642 c 0
 273 614 251 591 223 591 c 0
410 591 m 0
 382 591 360 614 360 642 c 0
 360 671 382 693 410 693 c 0
 440 693 459 671 459 642 c 0
 459 614 440 591 410 591 c 0
330 -12 m 0
 188 -12 72 87 72 254 c 0
 72 420 191 522 316 522 c 0
 452 522 536 429 536 284 c 0
 536 268 535 253 533 240 c 1
 145 240 l 1
 147 124 226 45 338 45 c 0
 398 45 444 65 490 96 c 1
 516 47 l 1
 470 16 410 -12 330 -12 c 0
144 292 m 1
 470 292 l 1
 470 404 411 466 317 466 c 0
 233 466 157 400 144 292 c 1
EndSplineSet
Validated: 1
EndChar

StartChar: edotaccent
Encoding: 279 279 161
Width: 600
GlyphClass: 2
Flags: W
HStem: -12 57<245.726 438.066> 240 52<145 470> 466 56<240.179 399.003> 631 129<267.386 365.184>
VStem: 72 73<148.183 240 292 365.906> 252 129<646.594 743.747> 470 66<292 392.82>
LayerCount: 2
Fore
SplineSet
316 631 m 0
 280 631 252 657 252 694 c 0
 252 733 280 760 316 760 c 0
 352 760 381 733 381 694 c 0
 381 657 352 631 316 631 c 0
330 -12 m 0
 188 -12 72 87 72 254 c 0
 72 420 191 522 316 522 c 0
 452 522 536 429 536 284 c 0
 536 268 535 253 533 240 c 1
 145 240 l 1
 147 124 226 45 338 45 c 0
 398 45 444 65 490 96 c 1
 516 47 l 1
 470 16 410 -12 330 -12 c 0
144 292 m 1
 470 292 l 1
 470 404 411 466 317 466 c 0
 233 466 157 400 144 292 c 1
EndSplineSet
Validated: 1
EndChar

StartChar: egrave
Encoding: 232 232 162
Width: 600
GlyphClass: 2
Flags: W
HStem: -12 57<245.726 438.066> 240 52<145 470> 466 56<240.179 399.003> 698 20G<232 323.552>
VStem: 72 73<148.183 240 292 365.906> 470 66<292 392.82>
LayerCount: 2
Fore
SplineSet
346 573 m 1
 232 718 l 1
 311 718 l 1
 402 573 l 1
 346 573 l 1
330 -12 m 0
 188 -12 72 87 72 254 c 0
 72 420 191 522 316 522 c 0
 452 522 536 429 536 284 c 0
 536 268 535 253 533 240 c 1
 145 240 l 1
 147 124 226 45 338 45 c 0
 398 45 444 65 490 96 c 1
 516 47 l 1
 470 16 410 -12 330 -12 c 0
144 292 m 1
 470 292 l 1
 470 404 411 466 317 466 c 0
 233 466 157 400 144 292 c 1
EndSplineSet
Validated: 1
EndChar

StartChar: emacron
Encoding: 275 275 163
Width: 600
GlyphClass: 2
Flags: W
HStem: -12 57<245.726 438.066> 240 52<145 470> 466 56<240.179 399.003> 602 50<196 436>
VStem: 72 73<148.183 240 292 365.906> 470 66<292 392.82>
LayerCount: 2
Fore
SplineSet
196 602 m 1
 196 652 l 1
 436 652 l 1
 436 602 l 1
 196 602 l 1
330 -12 m 0
 188 -12 72 87 72 254 c 0
 72 420 191 522 316 522 c 0
 452 522 536 429 536 284 c 0
 536 268 535 253 533 240 c 1
 145 240 l 1
 147 124 226 45 338 45 c 0
 398 45 444 65 490 96 c 1
 516 47 l 1
 470 16 410 -12 330 -12 c 0
144 292 m 1
 470 292 l 1
 470 404 411 466 317 466 c 0
 233 466 157 400 144 292 c 1
EndSplineSet
Validated: 1
EndChar

StartChar: eogonek
Encoding: 281 281 164
Width: 600
GlyphClass: 2
Flags: W
HStem: -206 49<357.353 444.528> -12 57<247.441 350> 240 52<145 470> 466 56<240.179 399.003>
VStem: 72 73<148.183 240 292 365.906> 296 54<-150.213 -51.7768> 470 66<292 392.82>
LayerCount: 2
Fore
SplineSet
536 284 m 0
 536 268 535 253 533 240 c 1
 145 240 l 1
 147 124 226 45 338 45 c 0
 398 45 444 65 490 96 c 1
 516 47 l 1
 488 29 455 12 415 0 c 1
 375 -31 350 -70 350 -109 c 0
 350 -141 373 -157 397 -157 c 0
 413 -157 426 -151 438 -143 c 1
 458 -180 l 1
 440 -194 408 -206 384 -206 c 0
 336 -206 296 -177 296 -122 c 0
 296 -78 322 -39 350 -12 c 1
 346 -12 334 -12 330 -12 c 0
 188 -12 72 87 72 254 c 0
 72 420 191 522 316 522 c 0
 452 522 536 429 536 284 c 0
144 292 m 1
 470 292 l 1
 470 404 411 466 317 466 c 0
 233 466 157 400 144 292 c 1
EndSplineSet
Validated: 1
EndChar

StartChar: uni1EBD
Encoding: 7869 7869 165
Width: 600
GlyphClass: 2
Flags: W
HStem: -12 57<245.726 438.066> 240 52<145 470> 466 56<240.179 399.003> 580 48<330.249 401.35> 635 48<231.615 302.111>
VStem: 72 73<148.183 240 292 365.906> 180 42<580 628.346> 412 42<636.499 683> 470 66<292 392.82>
LayerCount: 2
Fore
SplineSet
180 580 m 1
 186 636 210 683 262 683 c 0
 310 683 339 628 372 628 c 0
 393 628 406 647 412 683 c 1
 454 683 l 1
 448 627 422 580 370 580 c 0
 321 580 295 635 261 635 c 0
 240 635 228 616 222 580 c 1
 180 580 l 1
330 -12 m 0
 188 -12 72 87 72 254 c 0
 72 420 191 522 316 522 c 0
 452 522 536 429 536 284 c 0
 536 268 535 253 533 240 c 1
 145 240 l 1
 147 124 226 45 338 45 c 0
 398 45 444 65 490 96 c 1
 516 47 l 1
 470 16 410 -12 330 -12 c 0
144 292 m 1
 470 292 l 1
 470 404 411 466 317 466 c 0
 233 466 157 400 144 292 c 1
EndSplineSet
Validated: 1
EndChar

StartChar: f
Encoding: 102 102 166
Width: 600
GlyphClass: 2
Flags: W
HStem: 0 21G<248 316> 452 58<107 248 316 526> 682 58<366.472 550.236>
VStem: 248 68<0 452 510 628.64>
LayerCount: 2
Fore
SplineSet
248 0 m 1
 248 452 l 1
 107 452 l 1
 107 504 l 1
 248 510 l 1
 248 534 l 2
 248 660 308 740 438 740 c 0
 484 740 530 732 576 710 c 1
 560 656 l 1
 518 678 487 682 444 682 c 0
 352 682 316 626 316 538 c 2
 316 510 l 1
 526 510 l 1
 526 452 l 1
 316 452 l 1
 316 0 l 1
 248 0 l 1
EndSplineSet
Validated: 1
EndChar

StartChar: g
Encoding: 103 103 167
Width: 600
GlyphClass: 2
Flags: W
HStem: -229 57<193.08 372.558> 4 58<210.369 358.112> 462 60<222.018 371.31> 490 20G<443.931 504>
VStem: 62 72<150.797 364.056> 434 70<-104.353 84 123.713 414.504 452 485.833> 446 58<452 510>
LayerCount: 2
Fore
SplineSet
282 -229 m 0xdc
 218 -229 150 -209 86 -129 c 1
 124 -88 l 1
 174 -157 232 -172 282 -172 c 0
 378 -172 433 -131 434 3 c 1
 436 84 l 1
 397 40 334 4 272 4 c 0
 147 4 62 98 62 262 c 0
 62 422 167 522 286 522 c 0xec
 344 522 394 494 438 452 c 1
 440 452 l 1
 446 510 l 1
 504 510 l 1xda
 504 0 l 2
 504 -150 421 -229 282 -229 c 0xdc
287 62 m 0
 337 62 386 91 434 145 c 1
 434 396 l 1
 386 444 342 462 296 462 c 0
 208 462 134 378 134 262 c 0
 134 140 192 62 287 62 c 0
EndSplineSet
Validated: 1
EndChar

StartChar: gbreve
Encoding: 287 287 168
Width: 600
GlyphClass: 2
Flags: W
HStem: -229 57<193.08 372.558> 4 58<210.369 358.112> 462 60<222.018 371.31> 490 20G<443.931 504> 575 46<247.262 353.022>
VStem: 62 72<150.797 364.056> 173 46<651.012 705> 382 46<651.407 705> 434 70<-104.353 84 123.713 414.504 452 485.833> 446 58<452 510>
LayerCount: 2
Fore
SplineSet
300 575 m 0xcf
 214 575 179 645 173 705 c 1
 219 705 l 1
 225 662 250 621 300 621 c 0
 350 621 376 662 382 705 c 1
 428 705 l 1
 422 645 386 575 300 575 c 0xcf
282 -229 m 0
 218 -229 150 -209 86 -129 c 1
 124 -88 l 1
 174 -157 232 -172 282 -172 c 0
 378 -172 433 -131 434 3 c 1
 436 84 l 1
 397 40 334 4 272 4 c 0
 147 4 62 98 62 262 c 0
 62 422 167 522 286 522 c 0xef80
 344 522 394 494 438 452 c 1
 440 452 l 1
 446 510 l 1
 504 510 l 1xdf40
 504 0 l 2xdf80
 504 -150 421 -229 282 -229 c 0
287 62 m 0
 337 62 386 91 434 145 c 1
 434 396 l 1
 386 444 342 462 296 462 c 0
 208 462 134 378 134 262 c 0
 134 140 192 62 287 62 c 0
EndSplineSet
Validated: 1
EndChar

StartChar: gcaron
Encoding: 487 487 169
Width: 600
GlyphClass: 2
Flags: W
HStem: -229 57<193.08 372.558> 4 58<210.369 358.112> 462 60<222.018 371.31> 490 20G<443.931 504> 698 20G<174 242 358 426>
VStem: 62 72<150.797 364.056> 434 70<-104.353 84 123.713 414.504 452 485.833> 446 58<452 510>
LayerCount: 2
Fore
SplineSet
270 573 m 1xcc
 174 718 l 1
 228 718 l 1
 298 618 l 1
 302 618 l 1
 372 718 l 1
 426 718 l 1
 330 573 l 1
 270 573 l 1xcc
282 -229 m 0
 218 -229 150 -209 86 -129 c 1
 124 -88 l 1
 174 -157 232 -172 282 -172 c 0
 378 -172 433 -131 434 3 c 1
 436 84 l 1
 397 40 334 4 272 4 c 0
 147 4 62 98 62 262 c 0
 62 422 167 522 286 522 c 0xee
 344 522 394 494 438 452 c 1
 440 452 l 1
 446 510 l 1
 504 510 l 1xdd
 504 0 l 2xde
 504 -150 421 -229 282 -229 c 0
287 62 m 0
 337 62 386 91 434 145 c 1
 434 396 l 1
 386 444 342 462 296 462 c 0
 208 462 134 378 134 262 c 0
 134 140 192 62 287 62 c 0
EndSplineSet
Validated: 1
EndChar

StartChar: gcircumflex
Encoding: 285 285 170
Width: 600
GlyphClass: 2
Flags: W
HStem: -229 57<193.08 372.558> 4 58<210.369 358.112> 462 60<222.018 371.31> 490 20G<443.931 504> 698 20G<256.759 343.241>
VStem: 62 72<150.797 364.056> 434 70<-104.353 84 123.713 414.504 452 485.833> 446 58<452 510>
LayerCount: 2
Fore
SplineSet
174 573 m 1xcc
 270 718 l 1
 330 718 l 1
 426 573 l 1
 372 573 l 1
 302 672 l 1
 298 672 l 1
 228 573 l 1
 174 573 l 1xcc
282 -229 m 0
 218 -229 150 -209 86 -129 c 1
 124 -88 l 1
 174 -157 232 -172 282 -172 c 0
 378 -172 433 -131 434 3 c 1
 436 84 l 1
 397 40 334 4 272 4 c 0
 147 4 62 98 62 262 c 0
 62 422 167 522 286 522 c 0xee
 344 522 394 494 438 452 c 1
 440 452 l 1
 446 510 l 1
 504 510 l 1xdd
 504 0 l 2xde
 504 -150 421 -229 282 -229 c 0
287 62 m 0
 337 62 386 91 434 145 c 1
 434 396 l 1
 386 444 342 462 296 462 c 0
 208 462 134 378 134 262 c 0
 134 140 192 62 287 62 c 0
EndSplineSet
Validated: 1
EndChar

StartChar: gdotaccent
Encoding: 289 289 171
Width: 600
GlyphClass: 2
Flags: W
HStem: -229 57<193.08 372.558> 4 58<210.369 358.112> 462 60<222.018 371.31> 490 20G<443.931 504> 631 129<251.386 349.184>
VStem: 62 72<150.797 364.056> 236 129<646.594 743.747> 434 70<-104.353 84 123.713 414.504 452 485.833> 446 58<452 510>
LayerCount: 2
Fore
SplineSet
300 631 m 0xce
 264 631 236 657 236 694 c 0
 236 733 264 760 300 760 c 0
 336 760 365 733 365 694 c 0
 365 657 336 631 300 631 c 0xce
282 -229 m 0
 218 -229 150 -209 86 -129 c 1
 124 -88 l 1
 174 -157 232 -172 282 -172 c 0
 378 -172 433 -131 434 3 c 1
 436 84 l 1
 397 40 334 4 272 4 c 0
 147 4 62 98 62 262 c 0
 62 422 167 522 286 522 c 0xef
 344 522 394 494 438 452 c 1
 440 452 l 1
 446 510 l 1
 504 510 l 1xde80
 504 0 l 2xdf
 504 -150 421 -229 282 -229 c 0
287 62 m 0
 337 62 386 91 434 145 c 1
 434 396 l 1
 386 444 342 462 296 462 c 0
 208 462 134 378 134 262 c 0
 134 140 192 62 287 62 c 0
EndSplineSet
Validated: 1
EndChar

StartChar: uni1E21
Encoding: 7713 7713 172
Width: 600
GlyphClass: 2
Flags: W
HStem: -229 57<193.08 372.558> 4 58<210.369 358.112> 462 60<222.018 371.31> 490 20G<443.931 504> 602 50<180 420>
VStem: 62 72<150.797 364.056> 434 70<-104.353 84 123.713 414.504 452 485.833> 446 58<452 510>
LayerCount: 2
Fore
SplineSet
180 602 m 1xcc
 180 652 l 1
 420 652 l 1
 420 602 l 1
 180 602 l 1xcc
282 -229 m 0
 218 -229 150 -209 86 -129 c 1
 124 -88 l 1
 174 -157 232 -172 282 -172 c 0
 378 -172 433 -131 434 3 c 1
 436 84 l 1
 397 40 334 4 272 4 c 0
 147 4 62 98 62 262 c 0
 62 422 167 522 286 522 c 0xee
 344 522 394 494 438 452 c 1
 440 452 l 1
 446 510 l 1
 504 510 l 1xdd
 504 0 l 2xde
 504 -150 421 -229 282 -229 c 0
287 62 m 0
 337 62 386 91 434 145 c 1
 434 396 l 1
 386 444 342 462 296 462 c 0
 208 462 134 378 134 262 c 0
 134 140 192 62 287 62 c 0
EndSplineSet
Validated: 1
EndChar

StartChar: h
Encoding: 104 104 173
Width: 600
GlyphClass: 2
Flags: W
HStem: 0 21G<97 167 450 520> 461 61<263.008 404.84> 708 20G<97 167>
VStem: 97 70<0 380.353 416 728> 450 70<0 411.552>
LayerCount: 2
Fore
SplineSet
97 0 m 1
 97 728 l 1
 167 728 l 1
 167 543 l 1
 164 416 l 1
 218 478 274 522 350 522 c 0
 466 522 520 453 520 318 c 2
 520 0 l 1
 450 0 l 1
 450 308 l 2
 450 411 415 461 330 461 c 0
 269 461 228 428 167 359 c 1
 167 0 l 1
 97 0 l 1
EndSplineSet
Validated: 1
EndChar

StartChar: hbar
Encoding: 295 295 174
Width: 600
GlyphClass: 2
Flags: W
HStem: 0 21G<97 167 450 520> 440 61<263.008 404.84> 581 44<22 97 167 384> 708 20G<97 167>
VStem: 97 70<0 359.353 396 581 625 728> 450 70<0 389.726>
LayerCount: 2
Fore
SplineSet
97 0 m 1
 97 581 l 1
 22 581 l 1
 22 620 l 1
 97 625 l 1
 97 728 l 1
 167 728 l 1
 167 625 l 1
 384 625 l 1
 384 581 l 1
 167 581 l 1
 167 522 l 1
 164 396 l 1
 218 457 274 501 350 501 c 0
 466 501 520 431 520 296 c 2
 520 0 l 1
 450 0 l 1
 450 287 l 2
 450 390 415 440 330 440 c 0
 269 440 228 407 167 338 c 1
 167 0 l 1
 97 0 l 1
EndSplineSet
Validated: 1
EndChar

StartChar: hcircumflex
Encoding: 293 293 175
Width: 600
GlyphClass: 2
Flags: W
HStem: 0 21G<97 167 450 520> 461 61<263.008 404.84> 708 20G<97 167>
VStem: 97 70<0 380.353 416 728> 450 70<0 411.552>
LayerCount: 2
Fore
SplineSet
16 764 m 1
 112 878 l 1
 178 878 l 1
 274 764 l 1
 216 764 l 1
 146 838 l 1
 142 838 l 1
 72 764 l 1
 16 764 l 1
97 0 m 1
 97 728 l 1
 167 728 l 1
 167 543 l 1
 164 416 l 1
 218 478 274 522 350 522 c 0
 466 522 520 453 520 318 c 2
 520 0 l 1
 450 0 l 1
 450 308 l 2
 450 411 415 461 330 461 c 0
 269 461 228 428 167 359 c 1
 167 0 l 1
 97 0 l 1
EndSplineSet
Validated: 1
EndChar

StartChar: i
Encoding: 105 105 176
Width: 600
GlyphClass: 2
Flags: W
HStem: 0 58<108 300 370 562> 452 58<108 300> 634 129<275.386 368.885>
VStem: 260 129<650.047 747.2> 300 70<58 452>
LayerCount: 2
Fore
SplineSet
324 634 m 0xf0
 288 634 260 661 260 698 c 0
 260 737 288 763 324 763 c 0
 360 763 389 737 389 698 c 0
 389 661 360 634 324 634 c 0xf0
108 0 m 1
 108 58 l 1
 300 58 l 1
 300 452 l 1
 108 452 l 1
 108 510 l 1
 370 510 l 1
 370 58 l 1xe8
 562 58 l 1
 562 0 l 1
 108 0 l 1
EndSplineSet
Validated: 1
EndChar

StartChar: dotlessi
Encoding: 305 305 177
Width: 600
GlyphClass: 2
Flags: W
HStem: 0 58<108 300 370 562> 452 58<108 300>
VStem: 300 70<58 452>
LayerCount: 2
Fore
SplineSet
108 0 m 1
 108 58 l 1
 300 58 l 1
 300 452 l 1
 108 452 l 1
 108 510 l 1
 370 510 l 1
 370 58 l 1
 562 58 l 1
 562 0 l 1
 108 0 l 1
EndSplineSet
Validated: 1
EndChar

StartChar: iacute
Encoding: 237 237 178
Width: 600
GlyphClass: 2
Flags: W
HStem: 0 58<108 300 370 562> 452 58<108 300> 700 20G<317.5 408>
VStem: 300 70<58 452>
LayerCount: 2
Fore
SplineSet
240 576 m 1
 330 720 l 1
 408 720 l 1
 294 576 l 1
 240 576 l 1
108 0 m 1
 108 58 l 1
 300 58 l 1
 300 452 l 1
 108 452 l 1
 108 510 l 1
 370 510 l 1
 370 58 l 1
 562 58 l 1
 562 0 l 1
 108 0 l 1
EndSplineSet
Validated: 1
EndChar

StartChar: ibreve
Encoding: 301 301 179
Width: 600
GlyphClass: 2
Flags: W
HStem: 0 58<108 300 370 562> 452 58<108 300> 578 46<271.262 377.022>
VStem: 197 46<654.012 708> 300 70<58 452> 406 46<654.407 708>
LayerCount: 2
Fore
SplineSet
324 578 m 0
 238 578 203 648 197 708 c 1
 243 708 l 1
 249 665 274 624 324 624 c 0
 374 624 400 665 406 708 c 1
 452 708 l 1
 446 648 410 578 324 578 c 0
108 0 m 1
 108 58 l 1
 300 58 l 1
 300 452 l 1
 108 452 l 1
 108 510 l 1
 370 510 l 1
 370 58 l 1
 562 58 l 1
 562 0 l 1
 108 0 l 1
EndSplineSet
Validated: 1
EndChar

StartChar: uni01D0
Encoding: 464 464 180
Width: 600
GlyphClass: 2
Flags: W
HStem: 0 58<108 300 370 562> 452 58<108 300> 700 20G<198 266 382 450>
VStem: 300 70<58 452>
LayerCount: 2
Fore
SplineSet
294 576 m 1
 198 720 l 1
 252 720 l 1
 322 620 l 1
 326 620 l 1
 396 720 l 1
 450 720 l 1
 354 576 l 1
 294 576 l 1
108 0 m 1
 108 58 l 1
 300 58 l 1
 300 452 l 1
 108 452 l 1
 108 510 l 1
 370 510 l 1
 370 58 l 1
 562 58 l 1
 562 0 l 1
 108 0 l 1
EndSplineSet
Validated: 1
EndChar

StartChar: icircumflex
Encoding: 238 238 181
Width: 600
GlyphClass: 2
Flags: W
HStem: 0 58<108 300 370 562> 452 58<108 300> 700 20G<280.667 367.333>
VStem: 300 70<58 452>
LayerCount: 2
Fore
SplineSet
198 576 m 1
 294 720 l 1
 354 720 l 1
 450 576 l 1
 396 576 l 1
 326 676 l 1
 322 676 l 1
 252 576 l 1
 198 576 l 1
108 0 m 1
 108 58 l 1
 300 58 l 1
 300 452 l 1
 108 452 l 1
 108 510 l 1
 370 510 l 1
 370 58 l 1
 562 58 l 1
 562 0 l 1
 108 0 l 1
EndSplineSet
Validated: 1
EndChar

StartChar: idieresis
Encoding: 239 239 182
Width: 600
GlyphClass: 2
Flags: W
HStem: 0 58<108 300 370 562> 452 58<108 300> 594 102<189.221 270.883 377.117 458.779>
VStem: 181 99<602.438 687.193> 300 70<58 452> 368 99<602.438 687.193>
LayerCount: 2
Fore
SplineSet
230 594 m 0xf0
 200 594 181 616 181 644 c 0
 181 673 200 696 230 696 c 0
 258 696 280 673 280 644 c 0
 280 616 258 594 230 594 c 0xf0
418 594 m 0
 390 594 368 616 368 644 c 0
 368 673 390 696 418 696 c 0
 448 696 467 673 467 644 c 0xf4
 467 616 448 594 418 594 c 0
108 0 m 1
 108 58 l 1
 300 58 l 1
 300 452 l 1
 108 452 l 1
 108 510 l 1
 370 510 l 1
 370 58 l 1xf8
 562 58 l 1
 562 0 l 1
 108 0 l 1
EndSplineSet
Validated: 1
EndChar

StartChar: igrave
Encoding: 236 236 183
Width: 600
GlyphClass: 2
Flags: W
HStem: 0 58<108 300 370 562> 452 58<108 300> 700 20G<240 330.639>
VStem: 300 70<58 452>
LayerCount: 2
Fore
SplineSet
354 576 m 1
 240 720 l 1
 318 720 l 1
 409 576 l 1
 354 576 l 1
108 0 m 1
 108 58 l 1
 300 58 l 1
 300 452 l 1
 108 452 l 1
 108 510 l 1
 370 510 l 1
 370 58 l 1
 562 58 l 1
 562 0 l 1
 108 0 l 1
EndSplineSet
Validated: 1
EndChar

StartChar: imacron
Encoding: 299 299 184
Width: 600
GlyphClass: 2
Flags: W
HStem: 0 58<108 300 370 562> 452 58<108 300> 606 50<204 444>
VStem: 300 70<58 452>
LayerCount: 2
Fore
SplineSet
204 606 m 1
 204 656 l 1
 444 656 l 1
 444 606 l 1
 204 606 l 1
108 0 m 1
 108 58 l 1
 300 58 l 1
 300 452 l 1
 108 452 l 1
 108 510 l 1
 370 510 l 1
 370 58 l 1
 562 58 l 1
 562 0 l 1
 108 0 l 1
EndSplineSet
Validated: 1
EndChar

StartChar: iogonek
Encoding: 303 303 185
Width: 600
GlyphClass: 2
Flags: W
HStem: -209 43<332.087 420.268> 0 58<108 300 372.281 562> 452 58<108 300> 634 129<275.386 368.885>
VStem: 260 129<650.047 747.2> 278 46<-158.37 -55.2057> 300 70<58 452>
AnchorPoint: "Ancre-2" 325 698 basechar 0
AnchorPoint: "Ancre-1" 435 6 basechar 0
AnchorPoint: "Ancre-0" 318 0 basechar 0
LayerCount: 2
Fore
SplineSet
324 634 m 0xf4
 288 634 260 661 260 698 c 0xf8
 260 737 288 763 324 763 c 0xf4
 360 763 389 737 389 698 c 0xf8
 389 661 360 634 324 634 c 0xf4
108 0 m 1
 108 58 l 1
 300 58 l 1
 300 452 l 1
 108 452 l 1
 108 510 l 1
 370 510 l 1
 370 58 l 1xf2
 562 58 l 1
 562 0 l 1
 398 0 l 1
 352 -33 324 -74 324 -117 c 0
 324 -149 347 -166 372 -166 c 0
 389 -166 402 -161 414 -152 c 1
 432 -184 l 1
 416 -197 384 -209 362 -209 c 0
 315 -209 278 -180 278 -126 c 0xf4
 278 -74 313 -27 349 0 c 1
 108 0 l 1
EndSplineSet
Validated: 1
EndChar

StartChar: itilde
Encoding: 297 297 186
Width: 600
GlyphClass: 2
Flags: W
HStem: 0 58<108 300 370 562> 452 58<108 300> 583 48<338.133 408.947> 638 48<239.456 309.803>
VStem: 188 42<583 631.704> 300 70<58 452> 419 42<637.654 686>
LayerCount: 2
Fore
SplineSet
188 583 m 1
 194 639 218 686 270 686 c 0
 318 686 347 631 380 631 c 0
 401 631 413 650 419 686 c 1
 461 686 l 1
 455 630 430 583 378 583 c 0
 329 583 302 638 268 638 c 0
 247 638 236 619 230 583 c 1
 188 583 l 1
108 0 m 1
 108 58 l 1
 300 58 l 1
 300 452 l 1
 108 452 l 1
 108 510 l 1
 370 510 l 1
 370 58 l 1
 562 58 l 1
 562 0 l 1
 108 0 l 1
EndSplineSet
Validated: 1
EndChar

StartChar: j
Encoding: 106 106 187
Width: 600
GlyphClass: 2
Flags: W
HStem: -217 58<98.35 284.358> 452 58<92 323> 631 129<299.386 397.184>
VStem: 284 129<646.594 743.747> 323 70<-119.102 452>
LayerCount: 2
Fore
SplineSet
348 631 m 0xf0
 312 631 284 657 284 694 c 0
 284 733 312 760 348 760 c 0
 384 760 413 733 413 694 c 0
 413 657 384 631 348 631 c 0xf0
194 -217 m 0
 144 -217 96 -203 58 -183 c 1
 82 -130 l 1
 116 -146 156 -159 194 -159 c 0
 296 -159 323 -120 323 -12 c 2
 323 452 l 1
 92 452 l 1
 92 510 l 1
 393 510 l 1
 393 -6 l 2xe8
 393 -132 346 -217 194 -217 c 0
EndSplineSet
Validated: 1
EndChar

StartChar: uni0237
Encoding: 567 567 188
Width: 600
GlyphClass: 2
Flags: W
HStem: -217 58<98.35 284.358> 452 58<92 323>
VStem: 323 70<-119.102 452>
LayerCount: 2
Fore
SplineSet
194 -217 m 0
 144 -217 96 -203 58 -183 c 1
 82 -130 l 1
 116 -146 156 -159 194 -159 c 0
 296 -159 323 -120 323 -12 c 2
 323 452 l 1
 92 452 l 1
 92 510 l 1
 393 510 l 1
 393 -6 l 2
 393 -132 346 -217 194 -217 c 0
EndSplineSet
Validated: 1
EndChar

StartChar: jcircumflex
Encoding: 309 309 189
Width: 600
GlyphClass: 2
Flags: W
HStem: -217 58<98.35 284.358> 452 58<92 323> 698 20G<304.759 391.379>
VStem: 323 70<-119.102 452>
LayerCount: 2
Fore
SplineSet
222 573 m 1
 318 718 l 1
 378 718 l 1
 475 573 l 1
 420 573 l 1
 350 672 l 1
 346 672 l 1
 277 573 l 1
 222 573 l 1
194 -217 m 0
 144 -217 96 -203 58 -183 c 1
 82 -130 l 1
 116 -146 156 -159 194 -159 c 0
 296 -159 323 -120 323 -12 c 2
 323 452 l 1
 92 452 l 1
 92 510 l 1
 393 510 l 1
 393 -6 l 2
 393 -132 346 -217 194 -217 c 0
EndSplineSet
Validated: 1
EndChar

StartChar: k
Encoding: 107 107 190
Width: 600
GlyphClass: 2
Flags: W
HStem: 0 21G<112 182 477.918 572> 490 20G<442.632 544> 708 20G<112 182>
VStem: 112 70<0 141 225 728>
LayerCount: 2
Fore
SplineSet
112 0 m 1
 112 728 l 1
 182 728 l 1
 182 225 l 1
 186 225 l 1
 462 510 l 1
 544 510 l 1
 349 310 l 1
 572 0 l 1
 492 0 l 1
 304 267 l 1
 182 141 l 1
 182 0 l 1
 112 0 l 1
EndSplineSet
Validated: 1
EndChar

StartChar: kgreenlandic
Encoding: 312 312 191
Width: 600
GlyphClass: 2
Flags: W
HStem: 0 21G<112 182 477.758 572> 490 20G<112 182 415.5 544>
VStem: 112 70<0 139 224 510>
LayerCount: 2
Fore
SplineSet
112 0 m 1
 112 510 l 1
 182 510 l 1
 182 224 l 1
 275 319 369 415 462 510 c 1
 544 510 l 1
 349 310 l 1
 572 0 l 1
 492 0 l 1
 304 264 l 1
 182 139 l 1
 182 0 l 1
 112 0 l 1
EndSplineSet
Validated: 1
EndChar

StartChar: l
Encoding: 108 108 192
Width: 600
GlyphClass: 2
Flags: W
HStem: -12 57<356.709 505.365> 670 58<84 254>
VStem: 254 70<78.6313 670>
LayerCount: 2
Fore
SplineSet
408 -12 m 0
 309 -12 254 46 254 164 c 2
 254 670 l 1
 84 670 l 1
 84 728 l 1
 324 728 l 1
 324 158 l 2
 324 80 360 45 422 45 c 0
 451 45 480 54 517 72 c 1
 536 18 l 1
 494 1 460 -12 408 -12 c 0
EndSplineSet
Validated: 1
EndChar

StartChar: lacute
Encoding: 314 314 193
Width: 600
GlyphClass: 2
Flags: W
HStem: -12 57<356.709 505.365> 670 58<84 254>
VStem: 254 70<78.6313 670>
LayerCount: 2
Fore
SplineSet
232 776 m 1
 321 890 l 1
 404 890 l 1
 292 776 l 1
 232 776 l 1
408 -12 m 0
 309 -12 254 46 254 164 c 2
 254 670 l 1
 84 670 l 1
 84 728 l 1
 324 728 l 1
 324 158 l 2
 324 80 360 45 422 45 c 0
 451 45 480 54 517 72 c 1
 536 18 l 1
 494 1 460 -12 408 -12 c 0
EndSplineSet
Validated: 1
EndChar

StartChar: lcaron
Encoding: 318 318 194
Width: 600
GlyphClass: 2
Flags: W
HStem: -12 57<356.709 505.365> 670 58<84 254>
VStem: 254 70<78.6313 670> 396 52<620.333 773> 400 36<552 647.667>
LayerCount: 2
Fore
SplineSet
400 552 m 1xe8
 396 773 l 1
 448 773 l 1
 448 716 l 1xf0
 436 552 l 1
 400 552 l 1xe8
408 -12 m 0
 309 -12 254 46 254 164 c 2
 254 670 l 1
 84 670 l 1
 84 728 l 1
 324 728 l 1
 324 158 l 2
 324 80 360 45 422 45 c 0
 451 45 480 54 517 72 c 1
 536 18 l 1
 494 1 460 -12 408 -12 c 0
EndSplineSet
Validated: 1
EndChar

StartChar: ldot
Encoding: 320 320 195
Width: 600
GlyphClass: 2
Flags: W
HStem: -12 57<320.255 468.155> 304 118<382.839 477.469> 670 58<48 218>
VStem: 218 70<78.6313 670> 370 120<316.37 410.276>
LayerCount: 2
Fore
SplineSet
371 -12 m 0
 272 -12 218 46 218 164 c 2
 218 670 l 1
 48 670 l 1
 48 728 l 1
 288 728 l 1
 288 158 l 2
 288 80 324 45 386 45 c 0
 414 45 443 54 480 72 c 1
 499 18 l 1
 456 1 423 -12 371 -12 c 0
430 304 m 0
 397 304 370 327 370 363 c 0
 370 401 397 422 430 422 c 0
 464 422 490 401 490 363 c 0
 490 327 464 304 430 304 c 0
EndSplineSet
Validated: 1
EndChar

StartChar: lslash
Encoding: 322 322 196
Width: 600
GlyphClass: 2
Flags: W
HStem: -12 57<356.709 505.365> 670 58<84 254>
VStem: 254 70<78.6313 364 464 670>
LayerCount: 2
Fore
SplineSet
408 -12 m 0
 309 -12 254 46 254 164 c 2
 254 364 l 1
 128 287 l 1
 128 350 l 1
 254 426 l 1
 254 670 l 1
 84 670 l 1
 84 728 l 1
 324 728 l 1
 324 464 l 1
 490 562 l 1
 490 500 l 1
 324 400 l 1
 324 158 l 2
 324 80 360 45 422 45 c 0
 451 45 480 54 517 72 c 1
 536 18 l 1
 494 1 460 -12 408 -12 c 0
EndSplineSet
Validated: 1
EndChar

StartChar: m
Encoding: 109 109 197
Width: 600
GlyphClass: 2
Flags: W
HStem: 0 21G<64 132 280 338 485 553> 461 61<173.445 262.621 384.298 468.717> 490 20G<64 121.765>
VStem: 64 68<0 415.302> 64 56<442 510> 280 58<0 415.302> 485 68<0 443.995>
LayerCount: 2
Fore
SplineSet
64 0 m 1xd6
 64 510 l 1
 120 510 l 1xae
 126 442 l 1
 129 442 l 1
 154 490 184 522 238 522 c 0
 288 522 320 493 332 433 c 1
 363 489 394 522 448 522 c 0
 514 522 553 468 553 366 c 2
 553 0 l 1
 485 0 l 1
 485 360 l 2
 485 428 466 461 427 461 c 0
 389 461 365 433 338 376 c 1
 338 0 l 1
 280 0 l 1
 280 360 l 2
 280 428 260 461 220 461 c 0
 184 461 159 433 132 376 c 1
 132 0 l 1
 64 0 l 1xd6
EndSplineSet
Validated: 1
EndChar

StartChar: n
Encoding: 110 110 198
Width: 600
GlyphClass: 2
Flags: W
HStem: 0 21G<97 167 450 520> 461 61<263.083 404.84> 490 20G<97 156.522>
VStem: 97 70<0 380.353> 97 58<418 510> 450 70<0 411.552>
LayerCount: 2
Fore
SplineSet
97 0 m 1xd4
 97 510 l 1
 155 510 l 1xac
 162 418 l 1
 166 418 l 1
 218 478 274 522 350 522 c 0
 466 522 520 453 520 318 c 2
 520 0 l 1
 450 0 l 1
 450 308 l 2
 450 411 415 461 330 461 c 0
 269 461 228 428 167 359 c 1
 167 0 l 1
 97 0 l 1xd4
EndSplineSet
Validated: 1
EndChar

StartChar: nacute
Encoding: 324 324 199
Width: 600
GlyphClass: 2
Flags: W
HStem: 0 21G<97 167 450 520> 461 61<263.083 404.84> 490 20G<97 156.522> 698 20G<303.586 394>
VStem: 97 70<0 380.353> 97 58<418 510> 450 70<0 411.552>
LayerCount: 2
Fore
SplineSet
226 573 m 1x92
 316 718 l 1
 394 718 l 1
 280 573 l 1
 226 573 l 1x92
97 0 m 1xda
 97 510 l 1
 155 510 l 1xb6
 162 418 l 1
 166 418 l 1
 218 478 274 522 350 522 c 0
 466 522 520 453 520 318 c 2
 520 0 l 1
 450 0 l 1
 450 308 l 2
 450 411 415 461 330 461 c 0
 269 461 228 428 167 359 c 1
 167 0 l 1
 97 0 l 1xda
EndSplineSet
Validated: 1
EndChar

StartChar: ncaron
Encoding: 328 328 200
Width: 600
GlyphClass: 2
Flags: W
HStem: 0 21G<97 167 450 520> 461 61<263.083 404.84> 490 20G<97 156.522> 698 20G<184 252 368 436>
VStem: 97 70<0 380.353> 97 58<418 510> 450 70<0 411.552>
LayerCount: 2
Fore
SplineSet
280 573 m 1x92
 184 718 l 1
 238 718 l 1
 308 618 l 1
 312 618 l 1
 382 718 l 1
 436 718 l 1
 340 573 l 1
 280 573 l 1x92
97 0 m 1xda
 97 510 l 1
 155 510 l 1xb6
 162 418 l 1
 166 418 l 1
 218 478 274 522 350 522 c 0
 466 522 520 453 520 318 c 2
 520 0 l 1
 450 0 l 1
 450 308 l 2
 450 411 415 461 330 461 c 0
 269 461 228 428 167 359 c 1
 167 0 l 1
 97 0 l 1xda
EndSplineSet
Validated: 1
EndChar

StartChar: uni1E45
Encoding: 7749 7749 201
Width: 600
GlyphClass: 2
Flags: W
HStem: 0 21G<97 167 450 520> 461 61<263.083 404.84> 490 20G<97 156.522> 631 129<261.386 359.184>
VStem: 97 70<0 380.353> 97 58<418 510> 246 129<646.594 743.747> 450 70<0 411.552>
LayerCount: 2
Fore
SplineSet
310 631 m 0x93
 274 631 246 657 246 694 c 0
 246 733 274 760 310 760 c 0
 346 760 375 733 375 694 c 0
 375 657 346 631 310 631 c 0x93
97 0 m 1xdb
 97 510 l 1
 155 510 l 1xb7
 162 418 l 1
 166 418 l 1
 218 478 274 522 350 522 c 0
 466 522 520 453 520 318 c 2
 520 0 l 1
 450 0 l 1
 450 308 l 2
 450 411 415 461 330 461 c 0
 269 461 228 428 167 359 c 1
 167 0 l 1
 97 0 l 1xdb
EndSplineSet
Validated: 1
EndChar

StartChar: ntilde
Encoding: 241 241 202
Width: 600
GlyphClass: 2
Flags: W
HStem: 0 21G<97 167 450 520> 461 61<263.083 404.84> 490 20G<97 156.522> 580 48<324.133 394.947> 635 48<225.456 295.803>
VStem: 97 70<0 380.353> 97 58<418 510> 174 42<580 628.704> 405 42<634.654 683> 450 70<0 411.552>
LayerCount: 2
Fore
SplineSet
174 580 m 1x99c0
 180 636 204 683 256 683 c 0
 304 683 333 628 366 628 c 0
 387 628 399 647 405 683 c 1
 447 683 l 1
 441 627 416 580 364 580 c 0
 315 580 288 635 254 635 c 0
 233 635 222 616 216 580 c 1
 174 580 l 1x99c0
97 0 m 1xddc0
 97 510 l 1
 155 510 l 1xbbc0
 162 418 l 1
 166 418 l 1
 218 478 274 522 350 522 c 0
 466 522 520 453 520 318 c 2
 520 0 l 1
 450 0 l 1
 450 308 l 2
 450 411 415 461 330 461 c 0
 269 461 228 428 167 359 c 1
 167 0 l 1
 97 0 l 1xddc0
EndSplineSet
Validated: 1
EndChar

StartChar: o
Encoding: 111 111 203
Width: 600
GlyphClass: 2
Flags: W
HStem: -12 57<223.322 376.518> 464 58<223.322 376.518>
VStem: 62 72<146.759 361.918> 465 72<146.759 361.918>
LayerCount: 2
Fore
SplineSet
300 -12 m 0
 172 -12 62 85 62 254 c 0
 62 425 172 522 300 522 c 0
 428 522 537 425 537 254 c 0
 537 85 428 -12 300 -12 c 0
300 45 m 0
 398 45 465 130 465 254 c 0
 465 378 398 464 300 464 c 0
 202 464 134 378 134 254 c 0
 134 130 202 45 300 45 c 0
EndSplineSet
Validated: 1
EndChar

StartChar: oacute
Encoding: 243 243 204
Width: 600
GlyphClass: 2
Flags: W
HStem: -12 57<223.322 376.518> 464 58<223.322 376.518> 698 20G<293.586 384>
VStem: 62 72<146.759 361.918> 465 72<146.759 361.918>
LayerCount: 2
Fore
SplineSet
216 573 m 1
 306 718 l 1
 384 718 l 1
 270 573 l 1
 216 573 l 1
300 -12 m 0
 172 -12 62 85 62 254 c 0
 62 425 172 522 300 522 c 0
 428 522 537 425 537 254 c 0
 537 85 428 -12 300 -12 c 0
300 45 m 0
 398 45 465 130 465 254 c 0
 465 378 398 464 300 464 c 0
 202 464 134 378 134 254 c 0
 134 130 202 45 300 45 c 0
EndSplineSet
Validated: 1
EndChar

StartChar: obreve
Encoding: 335 335 205
Width: 600
GlyphClass: 2
Flags: W
HStem: -12 57<223.322 376.518> 464 58<223.322 376.518> 575 46<247.262 353.022>
VStem: 62 72<146.759 361.918> 173 46<651.012 705> 382 46<651.407 705> 465 72<146.759 361.918>
LayerCount: 2
Fore
SplineSet
300 575 m 0
 214 575 179 645 173 705 c 1
 219 705 l 1
 225 662 250 621 300 621 c 0
 350 621 376 662 382 705 c 1
 428 705 l 1
 422 645 386 575 300 575 c 0
300 -12 m 0
 172 -12 62 85 62 254 c 0
 62 425 172 522 300 522 c 0
 428 522 537 425 537 254 c 0
 537 85 428 -12 300 -12 c 0
300 45 m 0
 398 45 465 130 465 254 c 0
 465 378 398 464 300 464 c 0
 202 464 134 378 134 254 c 0
 134 130 202 45 300 45 c 0
EndSplineSet
Validated: 1
EndChar

StartChar: uni01D2
Encoding: 466 466 206
Width: 600
GlyphClass: 2
Flags: W
HStem: -12 57<223.322 376.518> 464 58<223.322 376.518> 698 20G<174 242 358 426>
VStem: 62 72<146.759 361.918> 465 72<146.759 361.918>
LayerCount: 2
Fore
SplineSet
270 573 m 1
 174 718 l 1
 228 718 l 1
 298 618 l 1
 302 618 l 1
 372 718 l 1
 426 718 l 1
 330 573 l 1
 270 573 l 1
300 -12 m 0
 172 -12 62 85 62 254 c 0
 62 425 172 522 300 522 c 0
 428 522 537 425 537 254 c 0
 537 85 428 -12 300 -12 c 0
300 45 m 0
 398 45 465 130 465 254 c 0
 465 378 398 464 300 464 c 0
 202 464 134 378 134 254 c 0
 134 130 202 45 300 45 c 0
EndSplineSet
Validated: 1
EndChar

StartChar: ocircumflex
Encoding: 244 244 207
Width: 600
GlyphClass: 2
Flags: W
HStem: -12 57<223.322 376.518> 464 58<223.322 376.518> 698 20G<256.759 343.241>
VStem: 62 72<146.759 361.918> 465 72<146.759 361.918>
LayerCount: 2
Fore
SplineSet
174 573 m 1
 270 718 l 1
 330 718 l 1
 426 573 l 1
 372 573 l 1
 302 672 l 1
 298 672 l 1
 228 573 l 1
 174 573 l 1
300 -12 m 0
 172 -12 62 85 62 254 c 0
 62 425 172 522 300 522 c 0
 428 522 537 425 537 254 c 0
 537 85 428 -12 300 -12 c 0
300 45 m 0
 398 45 465 130 465 254 c 0
 465 378 398 464 300 464 c 0
 202 464 134 378 134 254 c 0
 134 130 202 45 300 45 c 0
EndSplineSet
Validated: 1
EndChar

StartChar: odieresis
Encoding: 246 246 208
Width: 600
GlyphClass: 2
Flags: W
HStem: -12 57<223.322 376.518> 464 58<223.322 376.518> 591 102<165.221 246.883 353.117 434.779>
VStem: 62 72<146.759 361.918> 157 99<599.754 684.51> 344 99<599.754 684.51> 465 72<146.759 361.918>
LayerCount: 2
Fore
SplineSet
206 591 m 0
 176 591 157 614 157 642 c 0
 157 671 176 693 206 693 c 0
 234 693 256 671 256 642 c 0
 256 614 234 591 206 591 c 0
394 591 m 0
 366 591 344 614 344 642 c 0
 344 671 366 693 394 693 c 0
 424 693 443 671 443 642 c 0
 443 614 424 591 394 591 c 0
300 -12 m 0
 172 -12 62 85 62 254 c 0
 62 425 172 522 300 522 c 0
 428 522 537 425 537 254 c 0
 537 85 428 -12 300 -12 c 0
300 45 m 0
 398 45 465 130 465 254 c 0
 465 378 398 464 300 464 c 0
 202 464 134 378 134 254 c 0
 134 130 202 45 300 45 c 0
EndSplineSet
Validated: 1
EndChar

StartChar: ograve
Encoding: 242 242 209
Width: 600
GlyphClass: 2
Flags: W
HStem: -12 57<223.322 376.518> 464 58<223.322 376.518> 698 20G<216 306.552>
VStem: 62 72<146.759 361.918> 465 72<146.759 361.918>
LayerCount: 2
Fore
SplineSet
330 573 m 1
 216 718 l 1
 294 718 l 1
 385 573 l 1
 330 573 l 1
300 -12 m 0
 172 -12 62 85 62 254 c 0
 62 425 172 522 300 522 c 0
 428 522 537 425 537 254 c 0
 537 85 428 -12 300 -12 c 0
300 45 m 0
 398 45 465 130 465 254 c 0
 465 378 398 464 300 464 c 0
 202 464 134 378 134 254 c 0
 134 130 202 45 300 45 c 0
EndSplineSet
Validated: 1
EndChar

StartChar: ohungarumlaut
Encoding: 337 337 210
Width: 600
GlyphClass: 2
Flags: W
HStem: -12 57<223.322 376.518> 464 58<223.322 376.518>
VStem: 62 72<146.759 361.918> 465 72<146.759 361.918>
LayerCount: 2
Fore
SplineSet
161 570 m 1
 232 712 l 1
 296 712 l 1
 210 570 l 1
 161 570 l 1
304 570 m 1
 375 712 l 1
 438 712 l 1
 352 570 l 1
 304 570 l 1
300 -12 m 0
 172 -12 62 85 62 254 c 0
 62 425 172 522 300 522 c 0
 428 522 537 425 537 254 c 0
 537 85 428 -12 300 -12 c 0
300 45 m 0
 398 45 465 130 465 254 c 0
 465 378 398 464 300 464 c 0
 202 464 134 378 134 254 c 0
 134 130 202 45 300 45 c 0
EndSplineSet
Validated: 1
EndChar

StartChar: omacron
Encoding: 333 333 211
Width: 600
GlyphClass: 2
Flags: W
HStem: -12 57<223.322 376.518> 464 58<223.322 376.518> 602 50<180 420>
VStem: 62 72<146.759 361.918> 465 72<146.759 361.918>
LayerCount: 2
Fore
SplineSet
180 602 m 1
 180 652 l 1
 420 652 l 1
 420 602 l 1
 180 602 l 1
300 -12 m 0
 172 -12 62 85 62 254 c 0
 62 425 172 522 300 522 c 0
 428 522 537 425 537 254 c 0
 537 85 428 -12 300 -12 c 0
300 45 m 0
 398 45 465 130 465 254 c 0
 465 378 398 464 300 464 c 0
 202 464 134 378 134 254 c 0
 134 130 202 45 300 45 c 0
EndSplineSet
Validated: 1
EndChar

StartChar: uni01EB
Encoding: 491 491 212
Width: 600
GlyphClass: 2
Flags: W
HStem: -206 49<298.773 386.511> -12 57<222.913 290> 464 58<223.322 376.518>
VStem: 62 72<145.056 361.918> 238 54<-150.488 -50.1447> 465 72<144.443 361.918>
LayerCount: 2
Fore
SplineSet
348 -8 m 1
 313 -38 292 -73 292 -109 c 0
 292 -141 314 -157 338 -157 c 0
 354 -157 368 -151 380 -143 c 1
 400 -180 l 1
 382 -194 349 -206 325 -206 c 0
 277 -206 238 -177 238 -122 c 0
 238 -78 262 -39 290 -12 c 1
 166 -7 62 90 62 254 c 0
 62 425 172 522 300 522 c 0
 428 522 537 425 537 254 c 0
 537 106 454 14 348 -8 c 1
134 254 m 0
 134 130 202 45 300 45 c 0
 398 45 465 130 465 254 c 0
 465 378 398 464 300 464 c 0
 202 464 134 378 134 254 c 0
EndSplineSet
Validated: 1
EndChar

StartChar: oslash
Encoding: 248 248 213
Width: 600
GlyphClass: 2
Flags: W
HStem: -12 56<224.965 376.518> 465 57<223.322 376.635>
VStem: 62 72<142.073 362.044> 465 72<146.633 368.759>
LayerCount: 2
Fore
SplineSet
100 -24 m 1
 67 4 l 1
 121 70 l 1
 85 115 62 178 62 254 c 0
 62 425 172 522 300 522 c 0
 355 522 407 503 448 469 c 1
 500 534 l 1
 534 506 l 1
 479 438 l 1
 515 393 537 330 537 254 c 0
 537 85 428 -12 300 -12 c 0
 246 -12 193 6 152 40 c 1
 100 -24 l 1
166 122 m 1
 406 420 l 1
 379 448 342 465 300 465 c 0
 202 465 134 378 134 254 c 0
 134 202 146 156 166 122 c 1
300 44 m 0
 398 44 465 130 465 254 c 0
 465 305 454 352 434 388 c 1
 194 90 l 1
 222 62 258 44 300 44 c 0
EndSplineSet
Validated: 1
EndChar

StartChar: otilde
Encoding: 245 245 214
Width: 600
GlyphClass: 2
Flags: W
HStem: -12 57<223.322 376.518> 464 58<223.322 376.518> 580 48<314.133 384.947> 635 48<215.456 285.803>
VStem: 62 72<146.759 361.918> 164 42<580 628.704> 395 42<634.654 683> 465 72<146.759 361.918>
LayerCount: 2
Fore
SplineSet
164 580 m 1
 170 636 194 683 246 683 c 0
 294 683 323 628 356 628 c 0
 377 628 389 647 395 683 c 1
 437 683 l 1
 431 627 406 580 354 580 c 0
 305 580 278 635 244 635 c 0
 223 635 212 616 206 580 c 1
 164 580 l 1
300 -12 m 0
 172 -12 62 85 62 254 c 0
 62 425 172 522 300 522 c 0
 428 522 537 425 537 254 c 0
 537 85 428 -12 300 -12 c 0
300 45 m 0
 398 45 465 130 465 254 c 0
 465 378 398 464 300 464 c 0
 202 464 134 378 134 254 c 0
 134 130 202 45 300 45 c 0
EndSplineSet
Validated: 1
EndChar

StartChar: oe
Encoding: 339 339 215
Width: 600
GlyphClass: 2
Flags: W
HStem: -12 57<132.737 238.222 409.185 540.558> 240 50<350 538> 463 59<132.654 239.501 398.088 502.883>
VStem: 11 66<121.014 388.787> 296 54<123.6 240 290 385.17> 538 59<290.33 419.157>
LayerCount: 2
Fore
SplineSet
186 -12 m 0
 86 -12 11 85 11 255 c 0
 11 425 87 522 185 522 c 0
 248 522 298 474 324 390 c 1
 351 472 394 522 460 522 c 0
 550 522 597 416 597 292 c 0
 597 274 596 262 594 240 c 1
 350 240 l 1
 354 125 394 44 470 44 c 0
 506 44 531 59 558 78 c 1
 583 32 l 1
 553 10 515 -12 468 -12 c 0
 403 -12 353 32 324 114 c 1
 296 32 248 -12 186 -12 c 0
349 290 m 1
 538 290 l 1
 538 384 517 466 454 466 c 0
 390 466 357 396 349 290 c 1
188 45 m 0
 252 45 296 132 296 255 c 0
 296 379 252 463 188 463 c 0
 116 463 77 379 77 255 c 0
 77 132 116 45 188 45 c 0
EndSplineSet
Validated: 1
EndChar

StartChar: p
Encoding: 112 112 216
Width: 600
GlyphClass: 2
Flags: W
HStem: -205 21G<97 167> -12 59<234.41 380.047> 462 60<247.016 397.496> 490 20G<97 157.059>
VStem: 97 70<-205 56 95.4426 398.645> 97 58<442 510> 465 72<148.091 383.17>
LayerCount: 2
Fore
SplineSet
97 -205 m 1xea
 97 510 l 1
 155 510 l 1xd6
 162 442 l 1
 164 442 l 1
 210 488 275 522 336 522 c 0
 468 522 537 421 537 262 c 0
 537 89 434 -12 316 -12 c 0
 271 -12 212 13 166 56 c 1
 167 -44 l 1
 167 -205 l 1
 97 -205 l 1xea
305 47 m 0
 398 47 465 132 465 262 c 0
 465 380 424 462 320 462 c 0
 275 462 221 435 167 379 c 1
 167 114 l 1xea
 216 66 271 47 305 47 c 0
EndSplineSet
Validated: 1
EndChar

StartChar: thorn
Encoding: 254 254 217
Width: 600
GlyphClass: 2
Flags: W
HStem: -209 21G<97 167> -12 59<233.771 379.235> 462 60<248.168 395.566> 640 20G<97 167>
VStem: 97 70<-209 56 95.4426 398.645 440 660> 465 72<151.289 381.248>
LayerCount: 2
Fore
SplineSet
97 -209 m 1
 97 660 l 1
 167 660 l 1
 167 534 l 1
 165 440 l 1
 213 490 276 522 334 522 c 0
 466 522 537 421 537 262 c 0
 537 89 432 -12 316 -12 c 0
 268 -12 212 14 166 56 c 1
 167 -44 l 1
 167 -209 l 1
 97 -209 l 1
305 47 m 0
 396 47 465 132 465 262 c 0
 465 380 421 462 318 462 c 0
 272 462 221 435 167 379 c 1
 167 114 l 1
 217 66 269 47 305 47 c 0
EndSplineSet
Validated: 1
EndChar

StartChar: q
Encoding: 113 113 218
Width: 600
GlyphClass: 2
Flags: W
HStem: -205 21G<434 504> -12 59<212.193 355.849> 462 60<224.643 371.788> 490 20G<443.931 504>
VStem: 62 72<138.769 359.335> 434 70<-205 70 106.801 414.504> 446 58<452 510>
LayerCount: 2
Fore
SplineSet
434 -205 m 1xdc
 434 -26 l 1
 437 70 l 1
 393 26 335 -12 274 -12 c 0
 146 -12 62 84 62 254 c 0
 62 418 169 522 285 522 c 0xec
 345 522 391 496 438 452 c 1
 440 452 l 1
 446 510 l 1
 504 510 l 1xda
 504 -205 l 1
 434 -205 l 1xdc
287 47 m 0
 337 47 388 75 434 131 c 1
 434 396 l 1
 386 444 341 462 297 462 c 0
 207 462 134 374 134 254 c 0
 134 127 191 47 287 47 c 0
EndSplineSet
Validated: 1
EndChar

StartChar: r
Encoding: 114 114 219
Width: 600
GlyphClass: 2
Flags: W
HStem: 0 21G<152 222> 458 64<342.654 522.175> 490 20G<152 210.968>
VStem: 152 70<0 340.654> 152 64<386 510>
LayerCount: 2
Fore
SplineSet
152 0 m 1xd0
 152 510 l 1
 210 510 l 1
 216 386 l 1xa8
 219 386 l 1
 271 468 347 522 439 522 c 0
 473 522 505 517 535 501 c 1
 518 440 l 1
 484 454 466 458 428 458 c 0
 353 458 283 417 222 307 c 1
 222 0 l 1
 152 0 l 1xd0
EndSplineSet
Validated: 1
EndChar

StartChar: racute
Encoding: 341 341 220
Width: 600
GlyphClass: 2
Flags: W
HStem: 0 21G<152 222> 458 64<342.654 522.175> 490 20G<152 210.968> 698 20G<293.586 384>
VStem: 152 70<0 340.654> 152 64<386 510>
LayerCount: 2
Fore
SplineSet
216 573 m 1x94
 306 718 l 1
 384 718 l 1
 270 573 l 1
 216 573 l 1x94
152 0 m 1xd8
 152 510 l 1
 210 510 l 1
 216 386 l 1xb4
 219 386 l 1
 271 468 347 522 439 522 c 0
 473 522 505 517 535 501 c 1
 518 440 l 1
 484 454 466 458 428 458 c 0
 353 458 283 417 222 307 c 1
 222 0 l 1
 152 0 l 1xd8
EndSplineSet
Validated: 1
EndChar

StartChar: rcaron
Encoding: 345 345 221
Width: 600
GlyphClass: 2
Flags: W
HStem: 0 21G<152 222> 458 64<342.654 522.175> 490 20G<152 210.968> 698 20G<174 242 358 426>
VStem: 152 70<0 340.654> 152 64<386 510>
LayerCount: 2
Fore
SplineSet
270 573 m 1x90
 174 718 l 1
 228 718 l 1
 298 618 l 1
 302 618 l 1
 372 718 l 1
 426 718 l 1
 330 573 l 1
 270 573 l 1x90
152 0 m 1xd8
 152 510 l 1
 210 510 l 1
 216 386 l 1xb4
 219 386 l 1
 271 468 347 522 439 522 c 0
 473 522 505 517 535 501 c 1
 518 440 l 1
 484 454 466 458 428 458 c 0
 353 458 283 417 222 307 c 1
 222 0 l 1
 152 0 l 1xd8
EndSplineSet
Validated: 1
EndChar

StartChar: s
Encoding: 115 115 222
Width: 600
GlyphClass: 2
Flags: W
HStem: -12 55<193.899 411.809> 466 56<206.22 403.664>
VStem: 103 72<343.655 435.359> 452 72<79.6178 178.575>
LayerCount: 2
Fore
SplineSet
312 -12 m 0
 216 -12 134 24 76 67 c 1
 110 114 l 1
 164 71 225 43 316 43 c 0
 407 43 452 82 452 132 c 0
 452 174 416 206 290 238 c 0
 188 264 103 311 103 380 c 0
 103 458 170 522 302 522 c 0
 372 522 446 493 494 459 c 1
 458 412 l 1
 416 444 364 466 302 466 c 0
 206 466 175 428 175 384 c 0
 175 340 236 312 328 288 c 0
 465 252 524 211 524 137 c 0
 524 55 448 -12 312 -12 c 0
EndSplineSet
Validated: 1
EndChar

StartChar: sacute
Encoding: 347 347 223
Width: 600
GlyphClass: 2
Flags: W
HStem: -12 55<193.899 411.809> 466 56<206.22 403.664> 698 20G<295.586 386>
VStem: 103 72<343.655 435.359> 452 72<79.6178 178.575>
LayerCount: 2
Fore
SplineSet
218 573 m 1
 308 718 l 1
 386 718 l 1
 272 573 l 1
 218 573 l 1
312 -12 m 0
 216 -12 134 24 76 67 c 1
 110 114 l 1
 164 71 225 43 316 43 c 0
 407 43 452 82 452 132 c 0
 452 174 416 206 290 238 c 0
 188 264 103 311 103 380 c 0
 103 458 170 522 302 522 c 0
 372 522 446 493 494 459 c 1
 458 412 l 1
 416 444 364 466 302 466 c 0
 206 466 175 428 175 384 c 0
 175 340 236 312 328 288 c 0
 465 252 524 211 524 137 c 0
 524 55 448 -12 312 -12 c 0
EndSplineSet
Validated: 1
EndChar

StartChar: scaron
Encoding: 353 353 224
Width: 600
GlyphClass: 2
Flags: W
HStem: -12 55<193.899 411.809> 466 56<206.22 403.664> 698 20G<176 244.8 360 429>
VStem: 103 72<343.655 435.359> 452 72<79.6178 178.575>
LayerCount: 2
Fore
SplineSet
272 573 m 1
 176 718 l 1
 231 718 l 1
 300 618 l 1
 304 618 l 1
 374 718 l 1
 429 718 l 1
 332 573 l 1
 272 573 l 1
312 -12 m 0
 216 -12 134 24 76 67 c 1
 110 114 l 1
 164 71 225 43 316 43 c 0
 407 43 452 82 452 132 c 0
 452 174 416 206 290 238 c 0
 188 264 103 311 103 380 c 0
 103 458 170 522 302 522 c 0
 372 522 446 493 494 459 c 1
 458 412 l 1
 416 444 364 466 302 466 c 0
 206 466 175 428 175 384 c 0
 175 340 236 312 328 288 c 0
 465 252 524 211 524 137 c 0
 524 55 448 -12 312 -12 c 0
EndSplineSet
Validated: 1
EndChar

StartChar: scedilla
Encoding: 351 351 225
Width: 600
GlyphClass: 2
Flags: W
HStem: -212 38<233.711 292.363> -12 56<333 409.841> 466 56<206.22 403.664>
VStem: 103 72<343.655 435.359> 316 56<-155.043 -90.7964> 452 72<81.0527 178.575>
LayerCount: 2
Fore
SplineSet
524 137 m 0
 524 59 455 -6 333 -12 c 1
 314 -52 l 1
 347 -63 372 -81 372 -122 c 0
 372 -178 306 -204 235 -212 c 1
 228 -174 l 1
 280 -166 316 -153 316 -125 c 0
 316 -97 292 -85 252 -75 c 1
 284 -12 l 1
 200 -6 128 28 76 67 c 1
 110 114 l 1
 164 71 225 44 316 44 c 0
 407 44 452 82 452 132 c 0
 452 174 416 206 290 238 c 0
 188 264 103 311 103 380 c 0
 103 458 170 522 302 522 c 0
 372 522 446 493 494 459 c 1
 458 412 l 1
 416 444 364 466 302 466 c 0
 206 466 175 428 175 384 c 0
 175 340 236 312 328 288 c 0
 465 252 524 211 524 137 c 0
EndSplineSet
Validated: 1
EndChar

StartChar: scircumflex
Encoding: 349 349 226
Width: 600
GlyphClass: 2
Flags: W
HStem: -12 55<193.899 411.809> 466 56<206.22 403.664> 698 20G<258.759 345.379>
VStem: 103 72<343.655 435.359> 452 72<79.6178 178.575>
LayerCount: 2
Fore
SplineSet
176 573 m 1
 272 718 l 1
 332 718 l 1
 429 573 l 1
 374 573 l 1
 304 672 l 1
 300 672 l 1
 231 573 l 1
 176 573 l 1
312 -12 m 0
 216 -12 134 24 76 67 c 1
 110 114 l 1
 164 71 225 43 316 43 c 0
 407 43 452 82 452 132 c 0
 452 174 416 206 290 238 c 0
 188 264 103 311 103 380 c 0
 103 458 170 522 302 522 c 0
 372 522 446 493 494 459 c 1
 458 412 l 1
 416 444 364 466 302 466 c 0
 206 466 175 428 175 384 c 0
 175 340 236 312 328 288 c 0
 465 252 524 211 524 137 c 0
 524 55 448 -12 312 -12 c 0
EndSplineSet
Validated: 1
EndChar

StartChar: uni1E61
Encoding: 7777 7777 227
Width: 600
GlyphClass: 2
Flags: W
HStem: -12 55<193.899 411.809> 466 56<206.22 403.664> 631 129<253.386 351.184>
VStem: 103 72<343.655 435.359> 238 129<646.594 743.747> 452 72<79.6178 178.575>
LayerCount: 2
Fore
SplineSet
302 631 m 0
 266 631 238 657 238 694 c 0
 238 733 266 760 302 760 c 0
 338 760 367 733 367 694 c 0
 367 657 338 631 302 631 c 0
312 -12 m 0
 216 -12 134 24 76 67 c 1
 110 114 l 1
 164 71 225 43 316 43 c 0
 407 43 452 82 452 132 c 0
 452 174 416 206 290 238 c 0
 188 264 103 311 103 380 c 0
 103 458 170 522 302 522 c 0
 372 522 446 493 494 459 c 1
 458 412 l 1
 416 444 364 466 302 466 c 0
 206 466 175 428 175 384 c 0
 175 340 236 312 328 288 c 0
 465 252 524 211 524 137 c 0
 524 55 448 -12 312 -12 c 0
EndSplineSet
Validated: 1
EndChar

StartChar: germandbls
Encoding: 223 223 228
Width: 600
GlyphClass: 2
Flags: W
HStem: -12 55<321.796 464.374> 0 21G<93 163> 695 58<215.976 349.844>
VStem: 93 70<0 637.733> 285 68<338.826 443.754> 380 68<527.444 663.45> 496 67<75.1206 194.349>
LayerCount: 2
Fore
SplineSet
402 -12 m 0xbe
 346 -12 299 6 257 36 c 1
 287 87 l 1
 325 59 358 43 400 43 c 0xbe
 462 43 496 87 496 134 c 0
 496 266 285 238 285 374 c 0
 285 472 380 506 380 598 c 0
 380 653 348 695 288 695 c 0
 212 695 163 651 163 527 c 2
 163 0 l 1
 93 0 l 1x7e
 93 540 l 2
 93 670 169 753 289 753 c 0
 391 753 448 683 448 602 c 0
 448 496 353 460 353 382 c 0
 353 284 563 310 563 140 c 0
 563 53 498 -12 402 -12 c 0xbe
EndSplineSet
Validated: 1
EndChar

StartChar: t
Encoding: 116 116 229
Width: 600
GlyphClass: 2
Flags: W
HStem: -12 58<325.513 523.157> 452 58<73 212 282 526>
VStem: 212 70<91.5898 452 510 660>
LayerCount: 2
Fore
SplineSet
394 -12 m 0
 256 -12 212 70 212 194 c 2
 212 452 l 1
 73 452 l 1
 73 510 l 1
 214 510 l 1
 214 660 l 1
 282 708 l 1
 282 510 l 1
 526 510 l 1
 526 452 l 1
 282 452 l 1
 282 193 l 2
 282 99 310 46 408 46 c 0
 456 46 494 55 529 70 c 1
 546 18 l 1
 502 0 445 -12 394 -12 c 0
EndSplineSet
Validated: 1
EndChar

StartChar: tcaron
Encoding: 357 357 230
Width: 600
GlyphClass: 2
Flags: W
HStem: -12 58<325.513 523.157> 452 58<73 212 282 526>
VStem: 212 70<91.5898 452 510 660> 394 52<652.692 798> 397 36<577 665.308>
LayerCount: 2
Fore
SplineSet
397 577 m 1xe8
 394 798 l 1
 446 798 l 1
 446 741 l 1xf0
 433 577 l 1
 397 577 l 1xe8
394 -12 m 0
 256 -12 212 70 212 194 c 2
 212 452 l 1
 73 452 l 1
 73 510 l 1
 214 510 l 1
 214 660 l 1
 282 708 l 1
 282 510 l 1
 526 510 l 1
 526 452 l 1
 282 452 l 1
 282 193 l 2
 282 99 310 46 408 46 c 0
 456 46 494 55 529 70 c 1
 546 18 l 1
 502 0 445 -12 394 -12 c 0
EndSplineSet
Validated: 1
EndChar

StartChar: uni0163
Encoding: 355 355 231
Width: 600
GlyphClass: 2
Flags: W
HStem: -212 38<268.711 329.876> -12 58<368 522.257> 452 58<73 212 282 526>
VStem: 212 70<93.7344 452 510 660> 352 56<-154.661 -90.7964>
LayerCount: 2
Fore
SplineSet
349 -52 m 1
 382 -63 408 -81 408 -122 c 0
 408 -178 341 -204 270 -212 c 1
 263 -174 l 1
 315 -166 352 -153 352 -125 c 0
 352 -97 328 -85 288 -75 c 1
 324 -4 l 1
 241 20 212 94 212 194 c 2
 212 452 l 1
 73 452 l 1
 73 510 l 1
 214 510 l 1
 214 660 l 1
 282 708 l 1
 282 510 l 1
 526 510 l 1
 526 452 l 1
 282 452 l 1
 282 193 l 2
 282 99 310 46 408 46 c 0
 456 46 494 55 529 70 c 1
 546 18 l 1
 502 0 445 -12 394 -12 c 0
 385 -12 376 -13 368 -12 c 1
 349 -52 l 1
EndSplineSet
Validated: 1
EndChar

StartChar: uni1E97
Encoding: 7831 7831 232
Width: 600
GlyphClass: 2
Flags: W
HStem: -12 58<325.513 523.157> 452 58<73 212 282 526> 698 102<116.221 197.883 303.117 384.779>
VStem: 108 99<706.438 791.193> 212 70<91.5898 452 510 660> 294 99<706.438 791.193>
LayerCount: 2
Fore
SplineSet
157 698 m 0
 127 698 108 720 108 748 c 0
 108 777 127 800 157 800 c 0
 185 800 207 777 207 748 c 0
 207 720 185 698 157 698 c 0
344 698 m 0
 316 698 294 720 294 748 c 0
 294 777 316 800 344 800 c 0
 374 800 393 777 393 748 c 0
 393 720 374 698 344 698 c 0
394 -12 m 0
 256 -12 212 70 212 194 c 2
 212 452 l 1
 73 452 l 1
 73 510 l 1
 214 510 l 1
 214 660 l 1
 282 708 l 1
 282 510 l 1
 526 510 l 1
 526 452 l 1
 282 452 l 1
 282 193 l 2
 282 99 310 46 408 46 c 0
 456 46 494 55 529 70 c 1
 546 18 l 1
 502 0 445 -12 394 -12 c 0
EndSplineSet
Validated: 1
EndChar

StartChar: u
Encoding: 117 117 233
Width: 600
GlyphClass: 2
Flags: W
HStem: -12 59<195.098 337.271> 0 21G<442.71 502> 490 20G<80 151 432 502>
VStem: 80 71<98.0186 510> 432 70<127.104 510> 444 58<0 93>
LayerCount: 2
Fore
SplineSet
250 -12 m 0xb4
 134 -12 80 56 80 192 c 2
 80 510 l 1
 151 510 l 1
 151 202 l 2
 151 98 184 47 270 47 c 0
 330 47 374 81 432 152 c 1
 432 510 l 1
 502 510 l 1xb8
 502 0 l 1
 444 0 l 1x74
 438 93 l 1
 434 93 l 1
 384 31 326 -12 250 -12 c 0xb4
EndSplineSet
Validated: 1
EndChar

StartChar: uacute
Encoding: 250 250 234
Width: 600
GlyphClass: 2
Flags: W
HStem: -12 59<195.098 337.271> 0 21G<442.71 502> 490 20G<80 151 432 502> 698 20G<293.586 384>
VStem: 80 71<98.0186 510> 432 70<127.104 510> 444 58<0 93>
LayerCount: 2
Fore
SplineSet
216 573 m 1x38
 306 718 l 1
 384 718 l 1
 270 573 l 1
 216 573 l 1x38
250 -12 m 0xba
 134 -12 80 56 80 192 c 2
 80 510 l 1
 151 510 l 1
 151 202 l 2
 151 98 184 47 270 47 c 0
 330 47 374 81 432 152 c 1
 432 510 l 1
 502 510 l 1xbc
 502 0 l 1
 444 0 l 1x7a
 438 93 l 1
 434 93 l 1
 384 31 326 -12 250 -12 c 0xba
EndSplineSet
Validated: 1
EndChar

StartChar: ubreve
Encoding: 365 365 235
Width: 600
GlyphClass: 2
Flags: W
HStem: -12 59<195.098 337.271> 0 21G<442.71 502> 490 20G<80 151 432 502> 575 46<247.262 353.022>
VStem: 80 71<98.0186 510> 173 46<651.012 705> 382 46<651.407 705> 432 70<127.104 510> 444 58<0 93>
LayerCount: 2
Fore
SplineSet
300 575 m 0x3e
 214 575 179 645 173 705 c 1
 219 705 l 1
 225 662 250 621 300 621 c 0
 350 621 376 662 382 705 c 1
 428 705 l 1
 422 645 386 575 300 575 c 0x3e
250 -12 m 0xbe80
 134 -12 80 56 80 192 c 2
 80 510 l 1
 151 510 l 1
 151 202 l 2
 151 98 184 47 270 47 c 0
 330 47 374 81 432 152 c 1
 432 510 l 1
 502 510 l 1xbf
 502 0 l 1
 444 0 l 1x7e80
 438 93 l 1
 434 93 l 1
 384 31 326 -12 250 -12 c 0xbe80
EndSplineSet
Validated: 1
EndChar

StartChar: uni01D4
Encoding: 468 468 236
Width: 600
GlyphClass: 2
Flags: W
HStem: -12 59<195.098 337.271> 0 21G<442.71 502> 490 20G<80 151 432 502> 698 20G<174 242 358 426>
VStem: 80 71<98.0186 510> 432 70<127.104 510> 444 58<0 93>
LayerCount: 2
Fore
SplineSet
270 573 m 1x38
 174 718 l 1
 228 718 l 1
 298 618 l 1
 302 618 l 1
 372 718 l 1
 426 718 l 1
 330 573 l 1
 270 573 l 1x38
250 -12 m 0xba
 134 -12 80 56 80 192 c 2
 80 510 l 1
 151 510 l 1
 151 202 l 2
 151 98 184 47 270 47 c 0
 330 47 374 81 432 152 c 1
 432 510 l 1
 502 510 l 1xbc
 502 0 l 1
 444 0 l 1x7a
 438 93 l 1
 434 93 l 1
 384 31 326 -12 250 -12 c 0xba
EndSplineSet
Validated: 1
EndChar

StartChar: ucircumflex
Encoding: 251 251 237
Width: 600
GlyphClass: 2
Flags: W
HStem: -12 59<195.098 337.271> 0 21G<442.71 502> 490 20G<80 151 432 502> 698 20G<256.759 343.241>
VStem: 80 71<98.0186 510> 432 70<127.104 510> 444 58<0 93>
LayerCount: 2
Fore
SplineSet
174 573 m 1x38
 270 718 l 1
 330 718 l 1
 426 573 l 1
 372 573 l 1
 302 672 l 1
 298 672 l 1
 228 573 l 1
 174 573 l 1x38
250 -12 m 0xba
 134 -12 80 56 80 192 c 2
 80 510 l 1
 151 510 l 1
 151 202 l 2
 151 98 184 47 270 47 c 0
 330 47 374 81 432 152 c 1
 432 510 l 1
 502 510 l 1xbc
 502 0 l 1
 444 0 l 1x7a
 438 93 l 1
 434 93 l 1
 384 31 326 -12 250 -12 c 0xba
EndSplineSet
Validated: 1
EndChar

StartChar: udieresis
Encoding: 252 252 238
Width: 600
GlyphClass: 2
Flags: W
HStem: -12 59<195.098 337.271> 0 21G<442.71 502> 490 20G<80 151 432 502> 591 102<165.221 246.883 353.117 434.779>
VStem: 80 71<98.0186 510> 157 99<599.754 684.51> 344 99<599.754 684.51> 432 70<127.104 510> 444 58<0 93>
LayerCount: 2
Fore
SplineSet
206 591 m 0x3c
 176 591 157 614 157 642 c 0
 157 671 176 693 206 693 c 0
 234 693 256 671 256 642 c 0
 256 614 234 591 206 591 c 0x3c
394 591 m 0
 366 591 344 614 344 642 c 0
 344 671 366 693 394 693 c 0
 424 693 443 671 443 642 c 0x3e
 443 614 424 591 394 591 c 0
250 -12 m 0xbc80
 134 -12 80 56 80 192 c 2
 80 510 l 1
 151 510 l 1
 151 202 l 2
 151 98 184 47 270 47 c 0
 330 47 374 81 432 152 c 1
 432 510 l 1
 502 510 l 1xbd
 502 0 l 1
 444 0 l 1x7c80
 438 93 l 1
 434 93 l 1
 384 31 326 -12 250 -12 c 0xbc80
EndSplineSet
Validated: 1
EndChar

StartChar: ugrave
Encoding: 249 249 239
Width: 600
GlyphClass: 2
Flags: W
HStem: -12 59<195.098 337.271> 0 21G<442.71 502> 490 20G<80 151 432 502> 698 20G<216 306.552>
VStem: 80 71<98.0186 510> 432 70<127.104 510> 444 58<0 93>
LayerCount: 2
Fore
SplineSet
330 573 m 1x38
 216 718 l 1
 294 718 l 1
 385 573 l 1
 330 573 l 1x38
250 -12 m 0xba
 134 -12 80 56 80 192 c 2
 80 510 l 1
 151 510 l 1
 151 202 l 2
 151 98 184 47 270 47 c 0
 330 47 374 81 432 152 c 1
 432 510 l 1
 502 510 l 1xbc
 502 0 l 1
 444 0 l 1x7a
 438 93 l 1
 434 93 l 1
 384 31 326 -12 250 -12 c 0xba
EndSplineSet
Validated: 1
EndChar

StartChar: uhungarumlaut
Encoding: 369 369 240
Width: 600
GlyphClass: 2
Flags: W
HStem: -12 59<195.098 337.271> 0 21G<442.71 502> 490 20G<80 151 432 502>
VStem: 80 71<98.0186 510> 432 70<127.104 510> 444 58<0 93>
LayerCount: 2
Fore
SplineSet
161 570 m 1x30
 232 712 l 1
 296 712 l 1
 210 570 l 1
 161 570 l 1x30
304 570 m 1
 375 712 l 1
 438 712 l 1
 352 570 l 1
 304 570 l 1
250 -12 m 0xb4
 134 -12 80 56 80 192 c 2
 80 510 l 1
 151 510 l 1
 151 202 l 2
 151 98 184 47 270 47 c 0
 330 47 374 81 432 152 c 1
 432 510 l 1
 502 510 l 1xb8
 502 0 l 1
 444 0 l 1x74
 438 93 l 1
 434 93 l 1
 384 31 326 -12 250 -12 c 0xb4
EndSplineSet
Validated: 1
EndChar

StartChar: umacron
Encoding: 363 363 241
Width: 600
GlyphClass: 2
Flags: W
HStem: -12 59<195.098 337.271> 0 21G<442.71 502> 490 20G<80 151 432 502> 602 50<180 420>
VStem: 80 71<98.0186 510> 432 70<127.104 510> 444 58<0 93>
LayerCount: 2
Fore
SplineSet
180 602 m 1x38
 180 652 l 1
 420 652 l 1
 420 602 l 1
 180 602 l 1x38
250 -12 m 0xba
 134 -12 80 56 80 192 c 2
 80 510 l 1
 151 510 l 1
 151 202 l 2
 151 98 184 47 270 47 c 0
 330 47 374 81 432 152 c 1
 432 510 l 1
 502 510 l 1xbc
 502 0 l 1
 444 0 l 1x7a
 438 93 l 1
 434 93 l 1
 384 31 326 -12 250 -12 c 0xba
EndSplineSet
Validated: 1
EndChar

StartChar: uogonek
Encoding: 371 371 242
Width: 600
GlyphClass: 2
Flags: W
HStem: -206 49<456.853 526.528> 25 52<228.364 348.749> 90 39<166 207> 490 20G<116.717 125.791 467.58 474.353>
VStem: 80 71<195 377.5> 378 70<-156.349 -51.7802>
LayerCount: 2
Fore
SplineSet
520 -143 m 1
 540 -180 l 1
 522 -194 490 -206 466 -206 c 0
 418 -206 378 -177 378 -122 c 0
 378 -71 413 -26 446 0 c 1
 440 45 l 1
 436 93 l 1
 412 63 382 42 344 42 c 1
 315 31 289 25 266 25 c 0
 223 25 191 46 166 90 c 1
 108 90 80 283 80 351 c 1
 122 510 l 1
 151 357 l 1
 151 307 167 129 207 129 c 1
 225 95 246 77 278 77 c 0
 297 77 319 83 346 96 c 1
 378 96 401 291 432 329 c 1
 472 510 l 1
 502 255 l 1
 497 0 l 1
 477 -16 468 -32 468 -51 c 1
 454 -71 448 -88 448 -104 c 0
 448 -114 450 -123 455 -132 c 0
 463 -148 455 -157 479 -157 c 0
 495 -157 508 -151 520 -143 c 1
EndSplineSet
Validated: 1
EndChar

StartChar: uring
Encoding: 367 367 243
Width: 600
GlyphClass: 2
Flags: W
HStem: -12 59<195.559 337.579> 0 21G<442.71 502> 490 20G<80 151 432 502> 541 34<264.173 336.167> 688 34<264.173 336.167>
VStem: 80 71<98.0186 510> 211 40<585.165 677.29> 350 40<586.127 677.29> 432 70<127.104 510> 444 58<0 93>
LayerCount: 2
Fore
SplineSet
300 541 m 0x3f
 248 541 211 578 211 632 c 0
 211 686 248 722 300 722 c 0
 352 722 390 686 390 632 c 0
 390 578 352 541 300 541 c 0x3f
300 575 m 0
 328 575 350 597 350 632 c 0
 350 666 328 688 300 688 c 0
 272 688 251 666 251 632 c 0
 251 597 272 575 300 575 c 0
251 -12 m 0xbf40
 135 -12 80 56 80 192 c 2
 80 510 l 1
 151 510 l 1
 151 202 l 2
 151 98 184 47 270 47 c 0
 330 47 374 81 432 152 c 1
 432 510 l 1
 502 510 l 1xbf80
 502 0 l 1
 444 0 l 1x7f40
 438 93 l 1
 434 93 l 1
 384 31 327 -12 251 -12 c 0xbf40
EndSplineSet
Validated: 1
EndChar

StartChar: utilde
Encoding: 361 361 244
Width: 600
GlyphClass: 2
Flags: W
HStem: -12 59<195.098 337.271> 0 21G<442.71 502> 490 20G<80 151 432 502> 580 48<314.133 384.947> 635 48<215.456 285.803>
VStem: 80 71<98.0186 510> 164 42<580 628.704> 395 42<634.654 683> 432 70<127.104 510> 444 58<0 93>
LayerCount: 2
Fore
SplineSet
164 580 m 1x3f
 170 636 194 683 246 683 c 0
 294 683 323 628 356 628 c 0
 377 628 389 647 395 683 c 1
 437 683 l 1
 431 627 406 580 354 580 c 0
 305 580 278 635 244 635 c 0
 223 635 212 616 206 580 c 1
 164 580 l 1x3f
250 -12 m 0xbe40
 134 -12 80 56 80 192 c 2
 80 510 l 1
 151 510 l 1
 151 202 l 2
 151 98 184 47 270 47 c 0
 330 47 374 81 432 152 c 1
 432 510 l 1
 502 510 l 1xbe80
 502 0 l 1
 444 0 l 1x7e40
 438 93 l 1
 434 93 l 1
 384 31 326 -12 250 -12 c 0xbe40
EndSplineSet
Validated: 1
EndChar

StartChar: v
Encoding: 118 118 245
Width: 600
GlyphClass: 2
Flags: W
HStem: 0 60<292.489 313.046> 490 20G<55 133.815 470.185 546>
LayerCount: 2
Fore
SplineSet
263 0 m 1
 55 510 l 1
 126 510 l 1
 244 208 l 2
 264 157 283 106 301 60 c 1
 305 60 l 1
 322 106 340 157 360 208 c 2
 478 510 l 1
 546 510 l 1
 340 0 l 1
 263 0 l 1
EndSplineSet
Validated: 1
EndChar

StartChar: w
Encoding: 119 119 246
Width: 600
GlyphClass: 2
Flags: W
HStem: 0 61<168.576 180.564 425.305 438.091> 490 20G<9 86.129 519.871 592>
VStem: 524 68<478.125 510>
LayerCount: 2
Fore
SplineSet
123 0 m 1
 9 510 l 1
 82 510 l 1
 146 200 l 2
 156 152 165 107 172 61 c 1
 176 61 l 1
 186 107 194 153 206 200 c 1
 270 489 l 1
 334 489 l 1
 398 200 l 1
 410 152 420 107 430 61 c 1
 434 61 l 1
 443 107 450 152 460 200 c 2
 524 510 l 1
 592 510 l 1
 480 0 l 1
 394 0 l 1
 330 280 l 2
 320 328 313 377 302 427 c 1
 298 427 l 1
 290 382 282 336 270 280 c 2
 208 0 l 1
 123 0 l 1
EndSplineSet
Validated: 1
EndChar

StartChar: wacute
Encoding: 7811 7811 247
Width: 600
GlyphClass: 2
Flags: W
HStem: 0 61<168.576 180.564 425.305 438.091> 490 20G<9 86.129 519.871 592> 698 20G<293.586 384>
VStem: 524 68<478.125 510>
LayerCount: 2
Fore
SplineSet
216 573 m 1
 306 718 l 1
 384 718 l 1
 270 573 l 1
 216 573 l 1
123 0 m 1
 9 510 l 1
 82 510 l 1
 146 200 l 2
 156 152 165 107 172 61 c 1
 176 61 l 1
 186 107 194 153 206 200 c 1
 270 489 l 1
 334 489 l 1
 398 200 l 1
 410 152 420 107 430 61 c 1
 434 61 l 1
 443 107 450 152 460 200 c 2
 524 510 l 1
 592 510 l 1
 480 0 l 1
 394 0 l 1
 330 280 l 2
 320 328 313 377 302 427 c 1
 298 427 l 1
 290 382 282 336 270 280 c 2
 208 0 l 1
 123 0 l 1
EndSplineSet
Validated: 1
EndChar

StartChar: wcircumflex
Encoding: 373 373 248
Width: 600
GlyphClass: 2
Flags: W
HStem: 0 61<168.576 180.564 425.305 438.091> 490 20G<9 86.129 519.871 592> 698 20G<256.759 343.241>
VStem: 524 68<478.125 510>
LayerCount: 2
Fore
SplineSet
174 573 m 1
 270 718 l 1
 330 718 l 1
 426 573 l 1
 372 573 l 1
 302 672 l 1
 298 672 l 1
 228 573 l 1
 174 573 l 1
123 0 m 1
 9 510 l 1
 82 510 l 1
 146 200 l 2
 156 152 165 107 172 61 c 1
 176 61 l 1
 186 107 194 153 206 200 c 1
 270 489 l 1
 334 489 l 1
 398 200 l 1
 410 152 420 107 430 61 c 1
 434 61 l 1
 443 107 450 152 460 200 c 2
 524 510 l 1
 592 510 l 1
 480 0 l 1
 394 0 l 1
 330 280 l 2
 320 328 313 377 302 427 c 1
 298 427 l 1
 290 382 282 336 270 280 c 2
 208 0 l 1
 123 0 l 1
EndSplineSet
Validated: 1
EndChar

StartChar: wdieresis
Encoding: 7813 7813 249
Width: 600
GlyphClass: 2
Flags: W
HStem: 0 61<168.576 180.564 425.305 438.091> 490 20G<9 86.129 519.871 592> 591 102<165.221 246.883 353.117 434.779>
VStem: 157 99<599.754 684.51> 344 99<599.754 684.51> 524 68<478.125 510>
LayerCount: 2
Fore
SplineSet
206 591 m 0
 176 591 157 614 157 642 c 0
 157 671 176 693 206 693 c 0
 234 693 256 671 256 642 c 0
 256 614 234 591 206 591 c 0
394 591 m 0
 366 591 344 614 344 642 c 0
 344 671 366 693 394 693 c 0
 424 693 443 671 443 642 c 0
 443 614 424 591 394 591 c 0
123 0 m 1
 9 510 l 1
 82 510 l 1
 146 200 l 2
 156 152 165 107 172 61 c 1
 176 61 l 1
 186 107 194 153 206 200 c 1
 270 489 l 1
 334 489 l 1
 398 200 l 1
 410 152 420 107 430 61 c 1
 434 61 l 1
 443 107 450 152 460 200 c 2
 524 510 l 1
 592 510 l 1
 480 0 l 1
 394 0 l 1
 330 280 l 2
 320 328 313 377 302 427 c 1
 298 427 l 1
 290 382 282 336 270 280 c 2
 208 0 l 1
 123 0 l 1
EndSplineSet
Validated: 1
EndChar

StartChar: wgrave
Encoding: 7809 7809 250
Width: 600
GlyphClass: 2
Flags: W
HStem: 0 61<168.576 180.564 425.305 438.091> 490 20G<9 86.129 519.871 592> 698 20G<216 306.552>
VStem: 524 68<478.125 510>
LayerCount: 2
Fore
SplineSet
330 573 m 1
 216 718 l 1
 294 718 l 1
 385 573 l 1
 330 573 l 1
123 0 m 1
 9 510 l 1
 82 510 l 1
 146 200 l 2
 156 152 165 107 172 61 c 1
 176 61 l 1
 186 107 194 153 206 200 c 1
 270 489 l 1
 334 489 l 1
 398 200 l 1
 410 152 420 107 430 61 c 1
 434 61 l 1
 443 107 450 152 460 200 c 2
 524 510 l 1
 592 510 l 1
 480 0 l 1
 394 0 l 1
 330 280 l 2
 320 328 313 377 302 427 c 1
 298 427 l 1
 290 382 282 336 270 280 c 2
 208 0 l 1
 123 0 l 1
EndSplineSet
Validated: 1
EndChar

StartChar: x
Encoding: 120 120 251
Width: 600
GlyphClass: 2
Flags: W
HStem: 0 21G<69 157.651 437.714 530> 490 20G<84 175.554 428.667 516>
LayerCount: 2
Fore
SplineSet
69 0 m 1
 256 264 l 1
 84 510 l 1
 162 510 l 1
 244 389 l 2
 262 363 282 332 302 304 c 1
 306 304 l 1
 325 332 346 363 364 393 c 1
 442 510 l 1
 516 510 l 1
 342 260 l 1
 530 0 l 1
 452 0 l 1
 362 126 l 1
 342 156 319 190 297 219 c 1
 293 219 l 1
 272 189 251 158 230 126 c 2
 144 0 l 1
 69 0 l 1
EndSplineSet
Validated: 1
EndChar

StartChar: y
Encoding: 121 121 252
Width: 600
GlyphClass: 2
Flags: W
HStem: -217 59<78.83 200.445> 490 20G<52 132.428 472.508 548>
LayerCount: 2
Fore
SplineSet
129 -217 m 0
 107 -217 83 -213 67 -207 c 1
 82 -151 l 1
 95 -155 112 -158 128 -158 c 0
 198 -158 239 -115 268 -40 c 2
 282 -4 l 1
 52 510 l 1
 124 510 l 1
 250 211 l 2
 260 189 301 89 311 65 c 1
 315 65 l 1
 333 113 351 166 368 211 c 2
 480 510 l 1
 548 510 l 1
 332 -46 l 2
 296 -138 236 -217 129 -217 c 0
EndSplineSet
Validated: 1
EndChar

StartChar: yacute
Encoding: 253 253 253
Width: 600
GlyphClass: 2
Flags: W
HStem: -217 59<78.83 200.445> 490 20G<52 132.428 472.508 548> 698 20G<303.586 394>
LayerCount: 2
Fore
SplineSet
226 573 m 1
 316 718 l 1
 394 718 l 1
 280 573 l 1
 226 573 l 1
129 -217 m 0
 107 -217 83 -213 67 -207 c 1
 82 -151 l 1
 95 -155 112 -158 128 -158 c 0
 198 -158 239 -115 268 -40 c 2
 282 -4 l 1
 52 510 l 1
 124 510 l 1
 250 211 l 2
 260 189 301 89 311 65 c 1
 315 65 l 1
 333 113 351 166 368 211 c 2
 480 510 l 1
 548 510 l 1
 332 -46 l 2
 296 -138 236 -217 129 -217 c 0
EndSplineSet
Validated: 1
EndChar

StartChar: ycircumflex
Encoding: 375 375 254
Width: 600
GlyphClass: 2
Flags: W
HStem: -217 59<78.83 200.445> 490 20G<52 132.428 472.508 548> 698 20G<266.759 353.241>
LayerCount: 2
Fore
SplineSet
184 573 m 1
 280 718 l 1
 340 718 l 1
 436 573 l 1
 382 573 l 1
 312 672 l 1
 308 672 l 1
 238 573 l 1
 184 573 l 1
129 -217 m 0
 107 -217 83 -213 67 -207 c 1
 82 -151 l 1
 95 -155 112 -158 128 -158 c 0
 198 -158 239 -115 268 -40 c 2
 282 -4 l 1
 52 510 l 1
 124 510 l 1
 250 211 l 2
 260 189 301 89 311 65 c 1
 315 65 l 1
 333 113 351 166 368 211 c 2
 480 510 l 1
 548 510 l 1
 332 -46 l 2
 296 -138 236 -217 129 -217 c 0
EndSplineSet
Validated: 1
EndChar

StartChar: ydieresis
Encoding: 255 255 255
Width: 600
GlyphClass: 2
Flags: W
HStem: -217 59<78.83 200.445> 490 20G<52 132.428 472.508 548> 591 102<175.221 256.883 363.117 444.779>
VStem: 167 99<599.754 684.51> 354 99<599.754 684.51>
LayerCount: 2
Fore
SplineSet
216 591 m 0
 186 591 167 614 167 642 c 0
 167 671 186 693 216 693 c 0
 244 693 266 671 266 642 c 0
 266 614 244 591 216 591 c 0
404 591 m 0
 376 591 354 614 354 642 c 0
 354 671 376 693 404 693 c 0
 434 693 453 671 453 642 c 0
 453 614 434 591 404 591 c 0
129 -217 m 0
 107 -217 83 -213 67 -207 c 1
 82 -151 l 1
 95 -155 112 -158 128 -158 c 0
 198 -158 239 -115 268 -40 c 2
 282 -4 l 1
 52 510 l 1
 124 510 l 1
 250 211 l 2
 260 189 301 89 311 65 c 1
 315 65 l 1
 333 113 351 166 368 211 c 2
 480 510 l 1
 548 510 l 1
 332 -46 l 2
 296 -138 236 -217 129 -217 c 0
EndSplineSet
Validated: 1
EndChar

StartChar: uni1E8F
Encoding: 7823 7823 256
Width: 600
GlyphClass: 2
Flags: W
HStem: -217 59<78.83 200.445> 490 20G<52 132.428 472.508 548> 631 129<261.386 359.184>
VStem: 246 129<646.594 743.747>
LayerCount: 2
Fore
SplineSet
310 631 m 0
 274 631 246 657 246 694 c 0
 246 733 274 760 310 760 c 0
 346 760 375 733 375 694 c 0
 375 657 346 631 310 631 c 0
129 -217 m 0
 107 -217 83 -213 67 -207 c 1
 82 -151 l 1
 95 -155 112 -158 128 -158 c 0
 198 -158 239 -115 268 -40 c 2
 282 -4 l 1
 52 510 l 1
 124 510 l 1
 250 211 l 2
 260 189 301 89 311 65 c 1
 315 65 l 1
 333 113 351 166 368 211 c 2
 480 510 l 1
 548 510 l 1
 332 -46 l 2
 296 -138 236 -217 129 -217 c 0
EndSplineSet
Validated: 1
EndChar

StartChar: ygrave
Encoding: 7923 7923 257
Width: 600
GlyphClass: 2
Flags: W
HStem: -217 59<78.83 200.445> 490 20G<52 132.428 472.508 548> 698 20G<226 316.552>
LayerCount: 2
Fore
SplineSet
340 573 m 1
 226 718 l 1
 304 718 l 1
 395 573 l 1
 340 573 l 1
129 -217 m 0
 107 -217 83 -213 67 -207 c 1
 82 -151 l 1
 95 -155 112 -158 128 -158 c 0
 198 -158 239 -115 268 -40 c 2
 282 -4 l 1
 52 510 l 1
 124 510 l 1
 250 211 l 2
 260 189 301 89 311 65 c 1
 315 65 l 1
 333 113 351 166 368 211 c 2
 480 510 l 1
 548 510 l 1
 332 -46 l 2
 296 -138 236 -217 129 -217 c 0
EndSplineSet
Validated: 1
EndChar

StartChar: uni1EF9
Encoding: 7929 7929 258
Width: 600
GlyphClass: 2
Flags: W
HStem: -221 59<78.83 200.334> 490 20G<52 132.428 472.508 548> 611 49<319.858 386.911> 670 48<219.69 288.875>
VStem: 168 40<611 659.23> 398 42<668.369 718>
LayerCount: 2
Fore
SplineSet
168 611 m 1
 173 669 198 718 250 718 c 0
 299 718 326 660 359 660 c 0
 380 660 392 682 398 718 c 1
 440 718 l 1
 434 662 410 611 358 611 c 0
 309 611 284 670 250 670 c 0
 228 670 215 649 208 611 c 1
 168 611 l 1
129 -221 m 0
 107 -221 83 -217 67 -211 c 1
 82 -155 l 1
 95 -159 112 -162 128 -162 c 0
 198 -162 239 -116 267 -44 c 2
 282 -4 l 1
 52 510 l 1
 124 510 l 1
 250 211 l 2
 260 189 301 89 311 65 c 1
 315 65 l 1
 333 113 351 166 368 211 c 2
 480 510 l 1
 548 510 l 1
 331 -50 l 2
 295 -142 236 -221 129 -221 c 0
EndSplineSet
Validated: 1
EndChar

StartChar: z
Encoding: 122 122 259
Width: 600
GlyphClass: 2
Flags: W
HStem: 0 58<172 530> 452 58<109 418>
LayerCount: 2
Fore
SplineSet
71 0 m 1
 71 38 l 1
 418 452 l 1
 109 452 l 1
 109 510 l 1
 520 510 l 1
 520 472 l 1
 172 58 l 1
 530 58 l 1
 530 0 l 1
 71 0 l 1
EndSplineSet
Validated: 1
EndChar

StartChar: zacute
Encoding: 378 378 260
Width: 600
GlyphClass: 2
Flags: W
HStem: 0 58<172 530> 452 58<109 418>
LayerCount: 2
Fore
SplineSet
258 604 m 1
 348 755 l 1
 426 755 l 1
 312 604 l 1
 258 604 l 1
71 0 m 1
 71 38 l 1
 418 452 l 1
 109 452 l 1
 109 510 l 1
 520 510 l 1
 520 472 l 1
 172 58 l 1
 530 58 l 1
 530 0 l 1
 71 0 l 1
EndSplineSet
Validated: 1
EndChar

StartChar: zcaron
Encoding: 382 382 261
Width: 600
GlyphClass: 2
Flags: W
HStem: 0 58<172 530> 452 58<109 418> 698 20G<174 242 358 426>
LayerCount: 2
Fore
SplineSet
270 573 m 1
 174 718 l 1
 228 718 l 1
 298 618 l 1
 302 618 l 1
 372 718 l 1
 426 718 l 1
 330 573 l 1
 270 573 l 1
71 0 m 1
 71 38 l 1
 418 452 l 1
 109 452 l 1
 109 510 l 1
 520 510 l 1
 520 472 l 1
 172 58 l 1
 530 58 l 1
 530 0 l 1
 71 0 l 1
EndSplineSet
Validated: 1
EndChar

StartChar: zdotaccent
Encoding: 380 380 262
Width: 600
GlyphClass: 2
Flags: W
HStem: 0 58<172 530> 452 58<109 418> 631 129<251.386 349.184>
VStem: 236 129<646.594 743.747>
LayerCount: 2
Fore
SplineSet
300 631 m 0
 264 631 236 657 236 694 c 0
 236 733 264 760 300 760 c 0
 336 760 365 733 365 694 c 0
 365 657 336 631 300 631 c 0
71 0 m 1
 71 38 l 1
 418 452 l 1
 109 452 l 1
 109 510 l 1
 520 510 l 1
 520 472 l 1
 172 58 l 1
 530 58 l 1
 530 0 l 1
 71 0 l 1
EndSplineSet
Validated: 1
EndChar

StartChar: ordfeminine
Encoding: 170 170 263
Width: 600
GlyphClass: 2
Flags: W
HStem: 252 44<235.931 351.547> 426 37<288.969 384> 510 21G<193.568 220> 544 45<228.389 364.43>
VStem: 170 56<306.887 387.873> 384 56<271.4 298 323.313 426 460.764 524.62> 394 46<260 298>
LayerCount: 2
Fore
SplineSet
272 252 m 0xfa
 216 252 170 286 170 344 c 0
 170 414 238 448 384 463 c 1xfc
 383 505 366 544 311 544 c 0
 271 544 234 527 206 510 c 1
 183 547 l 1
 215 566 266 589 319 589 c 0
 403 589 440 536 440 456 c 2
 440 260 l 1
 394 260 l 1
 390 298 l 1
 388 298 l 1
 356 272 315 252 272 252 c 0xfa
288 296 m 0
 320 296 352 313 384 339 c 1
 384 426 l 1
 269 414 226 388 226 347 c 0
 226 313 253 296 288 296 c 0
EndSplineSet
Validated: 1
EndChar

StartChar: ordmasculine
Encoding: 186 186 264
Width: 600
GlyphClass: 2
Flags: W
HStem: 252 46<240.661 359.55> 542 46<240.661 359.55>
VStem: 144 58<339.64 500.157> 398 58<339.64 500.157>
LayerCount: 2
Fore
SplineSet
300 252 m 0
 217 252 144 314 144 420 c 0
 144 526 217 588 300 588 c 0
 384 588 456 526 456 420 c 0
 456 314 384 252 300 252 c 0
300 298 m 0
 360 298 398 347 398 420 c 0
 398 492 360 542 300 542 c 0
 240 542 202 492 202 420 c 0
 202 347 240 298 300 298 c 0
EndSplineSet
Validated: 1
EndChar

StartChar: pi
Encoding: 960 960 265
Width: 600
GlyphClass: 2
Flags: W
HStem: -12 57<468.388 536.904> -4 21G<120 194.5> 450 60<44 138 204 402 470 556>
VStem: 138 66<221.305 450> 396 66<49.8209 384.911> 402 68<218.499 450>
LayerCount: 2
Fore
SplineSet
494 -12 m 0xb8
 424 -12 396 27 396 103 c 0xb8
 396 161 400 333 402 450 c 1
 204 450 l 1
 204 302 199 148 190 -4 c 1
 120 0 l 1
 136 153 138 306 138 450 c 1
 44 450 l 1
 44 504 l 1
 113 510 l 1
 556 510 l 1
 556 450 l 1
 470 450 l 1x74
 464 328 462 153 462 97 c 0
 462 61 476 45 507 45 c 0
 513 45 521 47 535 53 c 1
 544 0 l 1
 530 -6 518 -12 494 -12 c 0xb8
EndSplineSet
Validated: 1
EndChar

StartChar: zero
Encoding: 48 48 266
Width: 600
Flags: W
HStem: -12 57<231.198 367.93> 615 57<230.292 369.288>
VStem: 74 66<170.815 494.47> 460 66<169.256 494.518>
LayerCount: 2
Fore
SplineSet
300 -12 m 0
 159 -12 74 114 74 332 c 0
 74 552 159 672 300 672 c 0
 441 672 526 552 526 332 c 0
 526 114 441 -12 300 -12 c 0
160 169 m 1
 409 554 l 1
 382 596 344 615 300 615 c 0
 206 615 140 526 140 332 c 0
 140 267 148 211 160 169 c 1
300 45 m 0
 394 45 460 139 460 332 c 0
 460 402 450 460 436 504 c 1
 185 116 l 1
 213 68 253 45 300 45 c 0
EndSplineSet
Validated: 1
EndChar

StartChar: one
Encoding: 49 49 267
Width: 600
Flags: W
HStem: 0 58<101 285 355 526> 568 46<148 242.744> 640 20G<283.5 355>
VStem: 285 70<58 568>
LayerCount: 2
Fore
SplineSet
101 0 m 1
 101 58 l 1
 285 58 l 1
 285 568 l 1
 148 568 l 1
 148 614 l 1
 214 624 264 640 303 660 c 1
 355 660 l 1
 355 58 l 1
 526 58 l 1
 526 0 l 1
 101 0 l 1
EndSplineSet
Validated: 1
EndChar

StartChar: two
Encoding: 50 50 268
Width: 600
Flags: W
HStem: 0 61<180.875 520> 614 58<189.643 356.687>
VStem: 416 68<394.381 558.357>
LayerCount: 2
Fore
SplineSet
76 0 m 1
 76 42 l 1
 298 248 416 365 416 479 c 0
 416 555 371 614 271 614 c 0
 209 614 156 578 114 532 c 1
 72 573 l 1
 127 631 191 672 279 672 c 0
 407 672 484 596 484 480 c 0
 484 354 363 231 179 56 c 1
 219 59 259 61 298 61 c 2
 520 61 l 1
 520 0 l 1
 76 0 l 1
EndSplineSet
Validated: 1
EndChar

StartChar: three
Encoding: 51 51 269
Width: 600
Flags: W
HStem: -12 58<183.469 375.742> 316 56<205 336.648> 614 58<193.733 369.483>
VStem: 421 72<437.763 567.45> 444 71<109.764 245.558>
LayerCount: 2
Fore
SplineSet
288 -12 m 0xe8
 178 -12 106 33 60 81 c 1
 97 128 l 1
 139 86 199 46 285 46 c 0
 375 46 444 98 444 176 c 0xe8
 444 260 377 316 205 316 c 1
 205 372 l 1
 361 372 421 430 421 502 c 0
 421 570 366 614 284 614 c 0
 222 614 166 584 124 544 c 1
 85 589 l 1
 137 637 204 672 286 672 c 0
 403 672 493 614 493 510 c 0xf0
 493 428 434 374 354 348 c 1
 354 344 l 1
 440 326 515 268 515 176 c 0
 515 60 414 -12 288 -12 c 0xe8
EndSplineSet
Validated: 1
EndChar

StartChar: four
Encoding: 52 52 270
Width: 600
Flags: W
HStem: 0 21G<373 440> 188 57<121 373 440 542> 640 20G<283.028 370>
VStem: 373 67<0 188 245 433>
LayerCount: 2
Fore
SplineSet
373 0 m 1
 373 188 l 1
 40 188 l 1
 40 234 l 1
 295 660 l 1
 370 660 l 1
 121 245 l 1
 373 245 l 1
 373 433 l 1
 440 433 l 1
 440 245 l 1
 542 245 l 1
 542 188 l 1
 440 188 l 1
 440 0 l 1
 373 0 l 1
EndSplineSet
Validated: 1
EndChar

StartChar: five
Encoding: 53 53 271
Width: 600
Flags: W
HStem: -12 58<175.359 367.74> 363 54<194.84 376.99> 599 61<194 488>
VStem: 449 71<126.673 293.025>
LayerCount: 2
Fore
SplineSet
286 -12 m 0
 172 -12 106 32 58 76 c 1
 94 124 l 1
 136 84 189 46 280 46 c 0
 373 46 449 111 449 208 c 0
 449 304 384 363 284 363 c 0
 229 363 196 346 150 320 c 1
 110 346 l 1
 132 660 l 1
 488 660 l 1
 488 599 l 1
 194 599 l 1
 176 387 l 1
 214 405 249 417 301 417 c 0
 424 417 520 354 520 210 c 0
 520 68 406 -12 286 -12 c 0
EndSplineSet
Validated: 1
EndChar

StartChar: six
Encoding: 54 54 272
Width: 600
Flags: W
HStem: -12 56<240.539 394.471> 348 54<239.215 404.103> 612 60<262.091 437.832>
VStem: 80 66<312 461.382> 464 68<115.471 286.808>
LayerCount: 2
Fore
SplineSet
322 -12 m 0
 181 -12 80 96 80 304 c 0
 80 572 207 672 346 672 c 0
 422 672 478 644 520 604 c 1
 479 560 l 1
 445 594 399 612 350 612 c 0
 244 612 148 538 146 312 c 1
 198 366 265 402 332 402 c 0
 451 402 532 332 532 198 c 0
 532 74 434 -12 322 -12 c 0
322 44 m 0
 402 44 464 109 464 198 c 0
 464 293 414 348 320 348 c 0
 268 348 206 321 149 253 c 1
 161 121 221 44 322 44 c 0
EndSplineSet
Validated: 1
EndChar

StartChar: seven
Encoding: 55 55 273
Width: 600
Flags: W
HStem: 0 21G<232 310> 599 61<72 448>
VStem: 232 74<0 195.885>
LayerCount: 2
Fore
SplineSet
232 0 m 1
 243 258 300 411 448 599 c 1
 72 599 l 1
 72 660 l 1
 530 660 l 1
 530 616 l 1
 360 413 314 259 306 0 c 1
 232 0 l 1
EndSplineSet
Validated: 1
EndChar

StartChar: eight
Encoding: 56 56 274
Width: 600
Flags: W
HStem: -12 54<204.912 399.879> 618 54<224.192 385.027>
VStem: 70 65<104.441 247.601> 112 64<440.461 570.177> 440 62<422.109 565.028> 461 68<97.2186 232.729>
LayerCount: 2
Fore
SplineSet
302 -12 m 0xc4
 158 -12 70 65 70 169 c 0xe4
 70 262 142 315 210 348 c 1
 210 352 l 1
 157 385 112 437 112 506 c 0
 112 604 193 672 305 672 c 0
 430 672 502 599 502 498 c 0xd8
 502 435 457 377 403 338 c 1
 403 334 l 1
 474 296 529 257 529 162 c 0
 529 66 446 -12 302 -12 c 0xc4
354 354 m 1
 410 394 440 443 440 495 c 0
 440 563 393 618 304 618 c 0
 228 618 176 573 176 506 c 0xd8
 176 422 256 386 354 354 c 1
304 42 m 0
 406 42 461 92 461 164 c 0
 461 264 368 287 252 328 c 1
 185 290 135 246 135 174 c 0xe4
 135 97 200 42 304 42 c 0
EndSplineSet
Validated: 1
EndChar

StartChar: nine
Encoding: 57 57 275
Width: 600
Flags: W
HStem: -12 58<166.061 337.168> 258 54<196.245 360.934> 616 56<206.629 360.48>
VStem: 70 68<371.742 546.948> 454 68<197.908 346>
LayerCount: 2
Fore
SplineSet
256 -12 m 0
 180 -12 124 16 82 54 c 1
 122 100 l 1
 156 66 202 46 252 46 c 0
 358 46 450 123 454 346 c 1
 401 292 336 258 268 258 c 0
 148 258 70 327 70 462 c 0
 70 585 167 672 278 672 c 0
 418 672 522 564 522 356 c 0
 522 88 394 -12 256 -12 c 0
281 312 m 0
 332 312 394 339 452 406 c 1
 440 539 382 616 280 616 c 0
 199 616 138 552 138 462 c 0
 138 368 186 312 281 312 c 0
EndSplineSet
Validated: 1
EndChar

StartChar: zero.alt
Encoding: 65537 -1 276
Width: 600
Flags: W
HStem: -12 57<232.07 367.93> 274 132<254.068 345.338> 615 57<230.292 369.708>
VStem: 74 66<169.256 494.47> 240 119<288.225 391.775> 460 66<169.256 494.47>
LayerCount: 2
Fore
SplineSet
300 -12 m 0
 159 -12 74 114 74 332 c 0
 74 552 159 672 300 672 c 0
 441 672 526 552 526 332 c 0
 526 114 441 -12 300 -12 c 0
300 45 m 0
 394 45 460 139 460 332 c 0
 460 526 394 615 300 615 c 0
 206 615 140 526 140 332 c 0
 140 139 206 45 300 45 c 0
300 274 m 0
 268 274 240 298 240 340 c 0
 240 382 268 406 300 406 c 0
 332 406 359 382 359 340 c 0
 359 298 332 274 300 274 c 0
EndSplineSet
Validated: 1
EndChar

StartChar: four.alt
Encoding: 65538 -1 277
Width: 600
Flags: W
HStem: 0 21G<373 440> 188 57<121 373 440 542> 640 20G<353.554 440>
VStem: 373 67<0 188 245 580.354>
LayerCount: 2
Fore
SplineSet
373 0 m 1
 373 188 l 1
 40 188 l 1
 40 234 l 1
 369 660 l 1
 440 660 l 1
 440 245 l 1
 542 245 l 1
 542 188 l 1
 440 188 l 1
 440 0 l 1
 373 0 l 1
121 245 m 1
 373 245 l 1
 373 470 l 2
 373 505 376 547 378 582 c 1
 373 582 l 1
 353 551 329 520 308 490 c 1
 121 245 l 1
EndSplineSet
Validated: 1
EndChar

StartChar: zero.subs
Encoding: 65539 -1 278
Width: 600
Flags: W
HStem: -182 44<249.67 350.33> 102 43<248.072 351.928>
VStem: 162 54<-102.454 68.3027> 384 54<-102.454 68.3027>
LayerCount: 2
Fore
SplineSet
300 -182 m 0
 220 -182 162 -122 162 -16 c 0
 162 87 220 145 300 145 c 0
 380 145 438 87 438 -16 c 0
 438 -122 380 -182 300 -182 c 0
300 -138 m 0
 346 -138 384 -97 384 -16 c 0
 384 65 346 102 300 102 c 0
 254 102 216 65 216 -16 c 0
 216 -97 254 -138 300 -138 c 0
EndSplineSet
Validated: 1
EndChar

StartChar: one.subs
Encoding: 65540 -1 279
Width: 600
Flags: W
HStem: 64 38<210 277.397>
VStem: 292 54<-170 64>
LayerCount: 2
Fore
SplineSet
292 -170 m 1
 292 64 l 1
 210 64 l 1
 210 102 l 1
 252 109 277 119 304 134 c 1
 346 134 l 1
 346 -170 l 1
 292 -170 l 1
EndSplineSet
Validated: 1
EndChar

StartChar: two.subs
Encoding: 65541 -1 280
Width: 600
Flags: W
HStem: -170 46<276 420> 100 46<232.624 337.024>
VStem: 350 54<-12.6232 87.4187>
LayerCount: 2
Fore
SplineSet
186 -170 m 1
 186 -138 l 1
 294 -54 350 -8 350 38 c 0
 350 76 327 100 286 100 c 0
 258 100 232 82 212 57 c 1
 176 86 l 1
 204 120 246 146 292 146 c 0
 363 146 404 110 404 44 c 0
 404 -12 348 -60 276 -124 c 1
 420 -124 l 1
 420 -170 l 1
 186 -170 l 1
EndSplineSet
Validated: 1
EndChar

StartChar: three.subs
Encoding: 65542 -1 281
Width: 600
Flags: W
HStem: -182 44<229.403 352.878> -33 33<262 325.446> 102 43<230.749 338.53>
VStem: 346 56<14.979 93.8217> 362 56<-127.302 -48.1729>
LayerCount: 2
Fore
SplineSet
298 -182 m 0xe8
 251 -182 204 -160 174 -126 c 1
 204 -92 l 1
 224 -118 258 -138 296 -138 c 0
 334 -138 362 -123 362 -87 c 0xe8
 362 -51 330 -33 262 -33 c 1
 262 0 l 1
 320 0 346 24 346 56 c 0
 346 84 328 102 288 102 c 0
 264 102 234 88 214 66 c 1
 186 100 l 1
 210 128 254 145 298 145 c 0
 359 145 402 115 402 62 c 0
 402 24 385 2 346 -12 c 1xf0
 388 -22 418 -48 418 -90 c 0
 418 -149 365 -182 298 -182 c 0xe8
EndSplineSet
Validated: 1
EndChar

StartChar: four.subs
Encoding: 65543 -1 282
Width: 600
Flags: W
HStem: -95 39<232 336 386 436> 85 49<328 340>
VStem: 336 50<-170 -95 -56 85>
LayerCount: 2
Fore
SplineSet
336 -170 m 1
 336 -95 l 1
 174 -95 l 1
 174 -68 l 1
 328 134 l 1
 386 134 l 1
 386 -56 l 1
 436 -56 l 1
 436 -95 l 1
 386 -95 l 1
 386 -170 l 1
 336 -170 l 1
232 -56 m 1
 336 -56 l 1
 336 6 l 1
 340 85 l 1
 338 85 l 1
 303 37 268 -9 232 -56 c 1
EndSplineSet
Validated: 1
EndChar

StartChar: five.subs
Encoding: 65544 -1 283
Width: 600
Flags: W
HStem: -182 44<230.684 352.478> -12 34<252.544 348.12> 86 48<263 403>
VStem: 368 56<-122.304 -27.2354>
LayerCount: 2
Fore
SplineSet
301 -182 m 0
 244 -182 208 -160 174 -126 c 1
 204 -92 l 1
 228 -118 256 -138 298 -138 c 0
 338 -138 368 -114 368 -76 c 0
 368 -35 340 -12 296 -12 c 0
 268 -12 250 -24 230 -38 c 1
 201 -20 l 1
 218 134 l 1
 403 134 l 1
 403 86 l 1
 263 86 l 1
 252 10 l 1
 269 19 289 22 310 22 c 0
 376 22 424 -13 424 -77 c 0
 424 -140 371 -182 301 -182 c 0
EndSplineSet
Validated: 1
EndChar

StartChar: six.subs
Encoding: 65545 -1 284
Width: 600
Flags: W
HStem: -182 44<256.53 362.768> -22 38<254.39 360.984> 102 43<270.001 400.517>
VStem: 374 52<-126.163 -33.3006>
LayerCount: 2
Fore
SplineSet
312 -182 m 0
 237 -182 178 -126 178 -33 c 0
 178 85 242 145 330 145 c 0
 368 145 396 133 420 116 c 1
 396 78 l 1
 378 92 358 102 330 102 c 0
 273 102 235 62 230 -20 c 1
 256 2 287 16 323 16 c 0
 393 16 426 -25 426 -80 c 0
 426 -136 378 -182 312 -182 c 0
312 -138 m 0
 350 -138 374 -116 374 -80 c 0
 374 -47 355 -22 311 -22 c 0
 283 -22 258 -33 230 -59 c 1
 237 -115 274 -138 312 -138 c 0
EndSplineSet
Validated: 1
EndChar

StartChar: seven.subs
Encoding: 65546 -1 285
Width: 600
Flags: W
HStem: 87 46<184 358>
VStem: 257 56<-170 -52.4625>
LayerCount: 2
Fore
SplineSet
257 -170 m 1
 263 -64 292 3 358 87 c 1
 184 87 l 1
 184 133 l 1
 423 133 l 1
 423 102 l 1
 337 8 318 -64 313 -170 c 1
 257 -170 l 1
EndSplineSet
Validated: 1
EndChar

StartChar: eight.subs
Encoding: 65547 -1 286
Width: 600
Flags: HMW
HStem: -182 40<243.035 357.393> 106 40<249.44 350.613>
VStem: 176 52<-127.328 -47.5145> 188 52<28.0143 96.3707> 360 52<16.4879 96.808> 372 52<-127.062 -56.186>
LayerCount: 2
Fore
SplineSet
300 -182 m 0xc4
 226 -182 176 -140 176 -94 c 0xe4
 176 -52 207 -28 242 -12 c 1
 242 -9 l 1
 212 9 188 28 188 63 c 0
 188 111 239 146 300 146 c 0
 365 146 412 111 412 63 c 0
 412 25 385 5 360 -9 c 1
 360 -12 l 1xd8
 395 -26 424 -51 424 -94 c 0
 424 -143 370 -182 300 -182 c 0xc4
322 4 m 1
 350 22 360 39 360 61 c 0
 360 87 339 106 300 106 c 0
 264 106 240 86 240 62 c 0xd8
 240 31 278 16 322 4 c 1
300 -142 m 0
 336 -142 372 -122 372 -94 c 0
 372 -54 327 -42 279 -28 c 1
 247 -43 228 -68 228 -92 c 0xe4
 228 -120 260 -142 300 -142 c 0
EndSplineSet
Validated: 1
EndChar

StartChar: nine.subs
Encoding: 65548 -1 287
Width: 600
Flags: W
HStem: -182 44<201.285 330.91> -52 40<236.902 347.028> 102 43<238.767 340.77>
VStem: 174 52<-1.38441 90.32>
LayerCount: 2
Fore
SplineSet
270 -182 m 0
 232 -182 204 -168 180 -150 c 1
 204 -114 l 1
 222 -128 242 -138 270 -138 c 0
 327 -138 365 -97 370 -16 c 1
 344 -38 314 -52 278 -52 c 0
 208 -52 174 -11 174 43 c 0
 174 101 222 145 288 145 c 0
 363 145 422 90 422 -4 c 0
 422 -122 358 -182 270 -182 c 0
289 -12 m 0
 317 -12 341 -3 368 23 c 1
 361 77 326 102 288 102 c 0
 249 102 226 79 226 43 c 0
 226 10 245 -12 289 -12 c 0
EndSplineSet
Validated: 1
EndChar

StartChar: fraction
Encoding: 8260 8260 288
Width: 600
Flags: W
LayerCount: 2
Fore
SplineSet
388 394 m 1
 358 420 l 1
 526 624 l 1
 570 584 l 1
 388 394 l 1
74 33 m 1
 30 72 l 1
 212 264 l 1
 242 236 l 1
 74 33 l 1
EndSplineSet
Validated: 1
EndChar

StartChar: onehalf
Encoding: 189 189 289
Width: 600
Flags: W
HStem: 0 46<412 556> 270 46<367.921 472.387> 568 38<75 142.601>
VStem: 157 55<334 568> 485 56<157.377 257.419>
LayerCount: 2
Fore
SplineSet
157 334 m 1
 157 568 l 1
 75 568 l 1
 75 606 l 1
 117 613 141 622 167 638 c 1
 212 638 l 1
 212 334 l 1
 157 334 l 1
388 394 m 1
 358 420 l 1
 526 624 l 1
 570 584 l 1
 388 394 l 1
322 0 m 1
 322 32 l 1
 430 116 485 162 485 208 c 0
 485 246 462 270 421 270 c 0
 393 270 367 252 347 227 c 1
 312 256 l 1
 340 290 381 316 428 316 c 0
 498 316 541 280 541 214 c 0
 541 158 482 110 412 46 c 1
 556 46 l 1
 556 0 l 1
 322 0 l 1
74 33 m 1
 30 72 l 1
 212 264 l 1
 242 236 l 1
 74 33 l 1
EndSplineSet
Validated: 1
EndChar

StartChar: uni2153
Encoding: 8531 8531 290
Width: 600
Flags: W
HStem: -12 44<365.653 487.861> 137 35<398 464.295> 272 43<365.717 475.873> 568 38<75 142.601>
VStem: 157 55<334 568> 483 55<186.829 263.822> 498 56<42.698 121.203>
LayerCount: 2
Fore
SplineSet
157 334 m 1xf8
 157 568 l 1
 75 568 l 1
 75 606 l 1
 117 613 141 622 167 638 c 1
 212 638 l 1
 212 334 l 1
 157 334 l 1xf8
388 394 m 1
 358 420 l 1
 526 624 l 1
 570 584 l 1
 388 394 l 1
435 -12 m 0
 388 -12 340 10 310 44 c 1
 340 78 l 1
 360 52 394 32 432 32 c 0
 469 32 498 47 498 83 c 0xfa
 498 119 464 137 398 137 c 1
 398 172 l 1
 456 172 483 194 483 226 c 0
 483 254 464 272 424 272 c 0
 400 272 369 258 349 236 c 1
 323 270 l 1
 347 298 390 315 434 315 c 0
 494 315 538 285 538 232 c 0xfc
 538 194 520 171 482 157 c 1
 524 147 554 122 554 80 c 0xfa
 554 21 502 -12 435 -12 c 0
74 33 m 1
 30 72 l 1
 212 264 l 1
 242 236 l 1
 74 33 l 1
EndSplineSet
Validated: 1
EndChar

StartChar: uni2154
Encoding: 8532 8532 291
Width: 600
Flags: W
HStem: -12 44<365.653 487.861> 137 35<398 464.295> 272 43<365.717 475.873> 334 47<141 285> 604 47<97.1387 200.957>
VStem: 214 56<491.3 591.075> 483 55<186.829 263.822> 498 56<42.698 121.203>
LayerCount: 2
Fore
SplineSet
50 334 m 1xfc
 50 366 l 1
 158 451 214 495 214 542 c 0
 214 580 191 604 150 604 c 0
 122 604 96 586 76 560 c 1
 40 590 l 1
 69 624 109 651 156 651 c 0
 226 651 270 612 270 548 c 0
 270 492 211 444 141 381 c 1
 285 381 l 1
 285 334 l 1
 50 334 l 1xfc
388 394 m 1
 358 420 l 1
 526 624 l 1
 570 584 l 1
 388 394 l 1
435 -12 m 0
 388 -12 340 10 310 44 c 1
 340 78 l 1
 360 52 394 32 432 32 c 0
 469 32 498 47 498 83 c 0xfd
 498 119 464 137 398 137 c 1
 398 172 l 1
 456 172 483 194 483 226 c 0
 483 254 464 272 424 272 c 0
 400 272 369 258 349 236 c 1
 323 270 l 1
 347 298 390 315 434 315 c 0
 494 315 538 285 538 232 c 0xfe
 538 194 520 171 482 157 c 1
 524 147 554 122 554 80 c 0xfd
 554 21 502 -12 435 -12 c 0
74 33 m 1
 30 72 l 1
 212 264 l 1
 242 236 l 1
 74 33 l 1
EndSplineSet
Validated: 1
EndChar

StartChar: onequarter
Encoding: 188 188 292
Width: 600
Flags: W
HStem: 0 21G<472 522> 76 38<368 472 522 572> 255 49<462 477> 568 38<75 142.601>
VStem: 157 55<334 568> 472 50<0 76 114 255>
LayerCount: 2
Fore
SplineSet
157 334 m 1
 157 568 l 1
 75 568 l 1
 75 606 l 1
 117 613 141 622 167 638 c 1
 212 638 l 1
 212 334 l 1
 157 334 l 1
388 394 m 1
 358 420 l 1
 526 624 l 1
 570 584 l 1
 388 394 l 1
472 0 m 1
 472 76 l 1
 310 76 l 1
 310 102 l 1
 462 304 l 1
 522 304 l 1
 522 114 l 1
 572 114 l 1
 572 76 l 1
 522 76 l 1
 522 0 l 1
 472 0 l 1
74 33 m 1
 30 72 l 1
 212 264 l 1
 242 236 l 1
 74 33 l 1
368 114 m 1
 472 114 l 1
 472 176 l 1
 477 255 l 1
 472 255 l 1
 439 207 404 160 368 114 c 1
EndSplineSet
Validated: 1
EndChar

StartChar: threequarters
Encoding: 190 190 293
Width: 600
Flags: W
HStem: 0 21G<472 524> 76 38<368 472 524 572> 255 49<464 476> 322 44<96.0717 216.381> 472 34<126 192.295> 606 44<91.4419 205.286>
VStem: 212 55<521 597.567> 226 56<376.822 455.505> 472 52<0 76 114 255>
LayerCount: 2
Fore
SplineSet
164 322 m 0xfd80
 117 322 68 345 38 379 c 1
 68 413 l 1
 89 387 124 366 160 366 c 0
 198 366 226 382 226 416 c 0xfd80
 226 453 192 472 126 472 c 1
 126 506 l 1
 184 506 212 528 212 560 c 0
 212 588 194 606 153 606 c 0
 129 606 98 594 78 572 c 1
 50 605 l 1
 75 633 117 650 163 650 c 0
 223 650 267 620 267 568 c 0xfe80
 267 530 248 506 210 492 c 1
 252 482 282 456 282 414 c 0
 282 355 231 322 164 322 c 0xfd80
416 394 m 1
 386 420 l 1
 556 624 l 1
 598 584 l 1
 416 394 l 1
472 0 m 1
 472 76 l 1
 309 76 l 1
 309 102 l 1
 464 304 l 1
 524 304 l 1
 524 114 l 1
 572 114 l 1
 572 76 l 1
 524 76 l 1
 524 0 l 1
 472 0 l 1
102 33 m 1
 60 72 l 1
 242 264 l 1
 270 236 l 1
 102 33 l 1
368 114 m 1
 472 114 l 1
 472 176 l 1
 476 255 l 1
 472 255 l 1
 439 207 404 160 368 114 c 1
EndSplineSet
Validated: 1
EndChar

StartChar: zero.dnom
Encoding: 65549 -1 294
Width: 600
Flags: W
HStem: -12 44<249.67 350.33> 272 43<248.072 351.928>
VStem: 162 54<67.7679 238.303> 384 54<67.7679 238.303>
LayerCount: 2
Fore
SplineSet
300 -12 m 0
 220 -12 162 49 162 154 c 0
 162 257 220 315 300 315 c 0
 380 315 438 257 438 154 c 0
 438 49 380 -12 300 -12 c 0
300 32 m 0
 346 32 384 73 384 154 c 0
 384 235 346 272 300 272 c 0
 254 272 216 235 216 154 c 0
 216 73 254 32 300 32 c 0
EndSplineSet
Validated: 1
EndChar

StartChar: one.dnom
Encoding: 65550 -1 295
Width: 600
Flags: W
HStem: 0 21G<292 346> 234 38<210 277.397>
VStem: 292 54<0 234>
LayerCount: 2
Fore
SplineSet
292 0 m 1
 292 234 l 1
 210 234 l 1
 210 272 l 1
 252 279 277 289 304 304 c 1
 346 304 l 1
 346 0 l 1
 292 0 l 1
EndSplineSet
Validated: 1
EndChar

StartChar: two.dnom
Encoding: 65551 -1 296
Width: 600
Flags: W
HStem: 0 46<276 420> 270 46<231.955 336.205>
VStem: 349 56<157.377 257.859>
LayerCount: 2
Fore
SplineSet
186 0 m 1
 186 32 l 1
 294 116 349 162 349 208 c 0
 349 246 326 270 286 270 c 0
 258 270 231 252 211 227 c 1
 176 256 l 1
 204 290 245 316 291 316 c 0
 362 316 405 280 405 214 c 0
 405 158 347 110 276 46 c 1
 420 46 l 1
 420 0 l 1
 186 0 l 1
EndSplineSet
Validated: 1
EndChar

StartChar: three.dnom
Encoding: 65552 -1 297
Width: 600
Flags: W
HStem: -12 44<229.403 352.878> 137 35<262 327.319> 272 43<230.749 338.53>
VStem: 346 56<186.389 263.822> 362 56<42.698 121.658>
LayerCount: 2
Fore
SplineSet
298 -12 m 0xe8
 251 -12 204 10 174 44 c 1
 204 78 l 1
 224 52 258 32 296 32 c 0
 334 32 362 47 362 83 c 0xe8
 362 119 330 137 262 137 c 1
 262 172 l 1
 320 172 346 194 346 226 c 0
 346 254 328 272 288 272 c 0
 264 272 234 258 214 236 c 1
 186 270 l 1
 210 298 254 315 298 315 c 0
 359 315 402 285 402 232 c 0
 402 194 385 171 346 157 c 1xf0
 388 147 418 122 418 80 c 0
 418 21 365 -12 298 -12 c 0xe8
EndSplineSet
Validated: 1
EndChar

StartChar: four.dnom
Encoding: 65553 -1 298
Width: 600
Flags: W
HStem: 0 21G<336 386> 76 38<232 336 386 436> 255 49<328 340>
VStem: 336 50<0 76 114 255>
LayerCount: 2
Fore
SplineSet
336 0 m 1
 336 76 l 1
 174 76 l 1
 174 102 l 1
 328 304 l 1
 386 304 l 1
 386 114 l 1
 436 114 l 1
 436 76 l 1
 386 76 l 1
 386 0 l 1
 336 0 l 1
232 114 m 1
 336 114 l 1
 336 176 l 1
 340 255 l 1
 338 255 l 1
 303 207 268 161 232 114 c 1
EndSplineSet
Validated: 1
EndChar

StartChar: five.dnom
Encoding: 65554 -1 299
Width: 600
Flags: W
HStem: -12 44<230.684 352.478> 156 36<252.544 350.597> 256 48<263 403>
VStem: 368 56<47.8939 141.308>
LayerCount: 2
Fore
SplineSet
301 -12 m 0
 244 -12 208 10 174 44 c 1
 204 78 l 1
 228 52 256 32 298 32 c 0
 338 32 368 56 368 94 c 0
 368 135 340 156 296 156 c 0
 268 156 250 146 230 132 c 1
 201 150 l 1
 218 304 l 1
 403 304 l 1
 403 256 l 1
 263 256 l 1
 252 180 l 1
 269 189 289 192 310 192 c 0
 376 192 424 157 424 94 c 0
 424 30 371 -12 301 -12 c 0
EndSplineSet
Validated: 1
EndChar

StartChar: six.dnom
Encoding: 65555 -1 300
Width: 600
Flags: W
HStem: -12 44<259.632 362.817> 148 38<255.362 361.984> 272 43<272.763 402.043>
VStem: 178 52<150 226.706> 375 52<43.5828 136.846>
LayerCount: 2
Fore
SplineSet
313 -12 m 0
 239 -12 178 44 178 137 c 0
 178 255 243 315 331 315 c 0
 370 315 397 303 421 286 c 1
 398 248 l 1
 380 262 359 272 333 272 c 0
 275 272 234 232 230 150 c 1
 256 173 287 186 324 186 c 0
 394 186 427 145 427 90 c 0
 427 34 381 -12 313 -12 c 0
313 32 m 0
 353 32 375 55 375 90 c 0
 375 124 356 148 312 148 c 0
 284 148 260 137 232 110 c 1
 240 56 275 32 313 32 c 0
EndSplineSet
Validated: 1
EndChar

StartChar: seven.dnom
Encoding: 65556 -1 301
Width: 600
Flags: W
HStem: 0 21G<257 315.5> 257 46<184 358>
VStem: 257 56<0 117.538>
LayerCount: 2
Fore
SplineSet
257 0 m 1
 263 106 292 173 358 257 c 1
 184 257 l 1
 184 303 l 1
 423 303 l 1
 423 272 l 1
 337 178 318 106 313 0 c 1
 257 0 l 1
EndSplineSet
Validated: 1
EndChar

StartChar: eight.dnom
Encoding: 65557 -1 302
Width: 600
Flags: W
HStem: -12 40<243.035 357.393> 276 40<249.44 350.613>
VStem: 176 52<42.6719 122.485> 188 52<198.014 266.371> 360 52<186.488 266.808> 372 52<42.9376 113.814>
LayerCount: 2
Fore
SplineSet
300 -12 m 0xc4
 226 -12 176 30 176 76 c 0xe4
 176 118 207 141 242 157 c 1
 242 161 l 1
 212 179 188 198 188 233 c 0
 188 281 239 316 300 316 c 0
 365 316 412 281 412 233 c 0
 412 195 385 174 360 160 c 1
 360 156 l 1xd8
 395 142 424 119 424 76 c 0
 424 27 370 -12 300 -12 c 0xc4
322 174 m 1
 350 192 360 209 360 231 c 0
 360 257 339 276 300 276 c 0
 264 276 240 256 240 232 c 0xd8
 240 201 278 186 322 174 c 1
300 28 m 0
 336 28 372 48 372 76 c 0
 372 116 327 128 279 142 c 1
 247 127 228 102 228 78 c 0xe4
 228 50 260 28 300 28 c 0
EndSplineSet
Validated: 1
EndChar

StartChar: nine.dnom
Encoding: 65558 -1 303
Width: 600
Flags: W
HStem: -12 44<201.285 330.91> 118 40<236.902 347.028> 272 43<238.767 340.77>
VStem: 174 52<168.616 260.32>
LayerCount: 2
Fore
SplineSet
270 -12 m 0
 232 -12 204 2 180 20 c 1
 204 56 l 1
 222 42 242 32 270 32 c 0
 327 32 365 73 370 154 c 1
 344 132 314 118 278 118 c 0
 208 118 174 159 174 213 c 0
 174 271 222 315 288 315 c 0
 363 315 422 260 422 166 c 0
 422 48 358 -12 270 -12 c 0
289 158 m 0
 317 158 341 167 368 193 c 1
 361 247 326 272 288 272 c 0
 249 272 226 249 226 213 c 0
 226 180 245 158 289 158 c 0
EndSplineSet
Validated: 1
EndChar

StartChar: zero.numr
Encoding: 65559 -1 304
Width: 600
Flags: W
HStem: 322 44<250.472 349.528> 606 44<247.285 352.715>
VStem: 162 54<402.188 572.839> 384 54<402.188 572.839>
LayerCount: 2
Fore
SplineSet
300 322 m 0
 220 322 162 384 162 488 c 0
 162 592 220 650 300 650 c 0
 380 650 438 592 438 488 c 0
 438 384 380 322 300 322 c 0
300 366 m 0
 346 366 384 408 384 488 c 0
 384 570 346 606 300 606 c 0
 254 606 216 570 216 488 c 0
 216 408 254 366 300 366 c 0
EndSplineSet
Validated: 1
EndChar

StartChar: one.numr
Encoding: 65560 -1 305
Width: 600
Flags: W
HStem: 568 38<210 278.694>
VStem: 292 54<334 568>
LayerCount: 2
Fore
SplineSet
292 334 m 1
 292 568 l 1
 210 568 l 1
 210 606 l 1
 252 613 277 622 304 638 c 1
 346 638 l 1
 346 334 l 1
 292 334 l 1
EndSplineSet
Validated: 1
EndChar

StartChar: two.numr
Encoding: 65561 -1 306
Width: 600
Flags: W
HStem: 334 47<276 420> 604 47<233.174 337.024>
VStem: 350 54<491.3 591.075>
LayerCount: 2
Fore
SplineSet
186 334 m 1
 186 366 l 1
 294 451 350 495 350 542 c 0
 350 580 327 604 286 604 c 0
 258 604 232 586 212 560 c 1
 176 590 l 1
 204 624 246 651 292 651 c 0
 363 651 404 612 404 548 c 0
 404 492 348 444 276 381 c 1
 420 381 l 1
 420 334 l 1
 186 334 l 1
EndSplineSet
Validated: 1
EndChar

StartChar: three.numr
Encoding: 65562 -1 307
Width: 600
Flags: W
HStem: 322 44<231.079 352.878> 472 34<262 327.319> 606 44<227.3 340.015>
VStem: 346 56<520.561 597.567> 362 56<376.822 455.979>
LayerCount: 2
Fore
SplineSet
298 322 m 0xe8
 251 322 204 345 174 379 c 1
 204 413 l 1
 224 387 258 366 296 366 c 0
 334 366 362 382 362 416 c 0xe8
 362 453 330 472 262 472 c 1
 262 506 l 1
 320 506 346 528 346 560 c 0
 346 588 328 606 288 606 c 0
 264 606 234 594 214 572 c 1
 186 605 l 1
 210 633 254 650 298 650 c 0
 359 650 402 620 402 568 c 0
 402 530 385 506 346 492 c 1xf0
 388 482 418 456 418 414 c 0
 418 355 365 322 298 322 c 0xe8
EndSplineSet
Validated: 1
EndChar

StartChar: four.numr
Encoding: 65563 -1 308
Width: 600
Flags: W
HStem: 410 38<232 336 386 436> 588 50<328 340>
VStem: 336 50<334 410 448 588>
LayerCount: 2
Fore
SplineSet
336 334 m 1
 336 410 l 1
 174 410 l 1
 174 437 l 1
 328 638 l 1
 386 638 l 1
 386 448 l 1
 436 448 l 1
 436 410 l 1
 386 410 l 1
 386 334 l 1
 336 334 l 1
232 448 m 1
 336 448 l 1
 336 510 l 1
 340 588 l 1
 338 588 l 1
 303 541 268 494 232 448 c 1
EndSplineSet
Validated: 1
EndChar

StartChar: five.numr
Encoding: 65564 -1 309
Width: 600
Flags: W
HStem: 322 44<232.309 352.478> 490 37<252.544 350.597> 590 49<263 403>
VStem: 368 56<381.481 475.044>
LayerCount: 2
Fore
SplineSet
301 322 m 0
 244 322 208 345 174 379 c 1
 204 413 l 1
 228 387 256 366 298 366 c 0
 338 366 368 390 368 428 c 0
 368 468 340 490 296 490 c 0
 268 490 250 481 230 465 c 1
 201 484 l 1
 218 639 l 1
 403 639 l 1
 403 590 l 1
 263 590 l 1
 252 513 l 1
 269 523 289 527 310 527 c 0
 376 527 424 491 424 427 c 0
 424 363 371 322 301 322 c 0
EndSplineSet
Validated: 1
EndChar

StartChar: six.numr
Encoding: 65565 -1 310
Width: 600
Flags: W
HStem: 322 44<256.53 361.079> 482 39<254.39 361.424> 606 44<269.09 400.173>
VStem: 374 52<378.417 470.75>
LayerCount: 2
Fore
SplineSet
312 322 m 0
 237 322 178 379 178 472 c 0
 178 590 242 650 330 650 c 0
 368 650 396 637 420 619 c 1
 396 583 l 1
 378 595 358 606 330 606 c 0
 273 606 235 566 230 484 c 1
 256 507 287 521 323 521 c 0
 393 521 426 481 426 425 c 0
 426 368 378 322 312 322 c 0
312 366 m 0
 350 366 374 390 374 426 c 0
 374 459 355 482 311 482 c 0
 283 482 258 472 230 444 c 1
 237 390 274 366 312 366 c 0
EndSplineSet
Validated: 1
EndChar

StartChar: seven.numr
Encoding: 65566 -1 311
Width: 600
Flags: W
HStem: 592 46<184 358>
VStem: 257 56<334 451.921>
LayerCount: 2
Fore
SplineSet
257 334 m 1
 263 440 292 508 358 592 c 1
 184 592 l 1
 184 638 l 1
 423 638 l 1
 423 606 l 1
 337 510 318 439 313 334 c 1
 257 334 l 1
EndSplineSet
Validated: 1
EndChar

StartChar: eight.numr
Encoding: 65567 -1 312
Width: 600
Flags: W
HStem: 322 40<244.101 356.854> 609 42<248.705 352.188>
VStem: 176 52<377.946 456.893> 188 52<533.341 599.615> 360 52<521.79 599.655> 372 52<377.062 448.681>
LayerCount: 2
Fore
SplineSet
300 322 m 0xc4
 226 322 176 363 176 410 c 0xe4
 176 450 207 474 242 492 c 1
 242 496 l 1
 212 514 188 533 188 568 c 0
 188 616 239 651 300 651 c 0
 365 651 412 615 412 568 c 0
 412 530 385 508 360 494 c 1
 360 490 l 1xd8
 395 474 424 453 424 410 c 0
 424 360 370 322 300 322 c 0xc4
322 510 m 1
 350 526 360 544 360 564 c 0
 360 590 339 609 300 609 c 0
 264 609 240 590 240 566 c 0xd8
 240 536 278 523 322 510 c 1
300 362 m 0
 336 362 372 383 372 412 c 0
 372 451 327 462 279 476 c 1
 247 461 228 438 228 414 c 0xe4
 228 386 260 362 300 362 c 0
EndSplineSet
Validated: 1
EndChar

StartChar: nine.numr
Encoding: 65568 -1 313
Width: 600
Flags: W
HStem: 322 44<200.681 330.698> 452 38<239.463 345.716> 606 44<238.767 341.775>
VStem: 174 52<501.079 594.263>
LayerCount: 2
Fore
SplineSet
270 322 m 0
 232 322 204 335 180 353 c 1
 204 390 l 1
 222 377 242 366 270 366 c 0
 326 366 365 406 370 487 c 1
 344 467 314 452 278 452 c 0
 208 452 174 492 174 548 c 0
 174 604 222 650 288 650 c 0
 363 650 422 594 422 502 c 0
 422 384 358 322 270 322 c 0
289 490 m 0
 317 490 342 500 370 526 c 1
 362 582 326 606 288 606 c 0
 249 606 226 582 226 548 c 0
 226 515 245 490 289 490 c 0
EndSplineSet
Validated: 1
EndChar

StartChar: zero.sups
Encoding: 65569 -1 314
Width: 600
Flags: W
HStem: 428 44<249.67 350.33> 712 43<248.072 351.928>
VStem: 162 54<507.768 678.303> 384 54<507.768 678.303>
LayerCount: 2
Fore
SplineSet
300 428 m 0
 220 428 162 489 162 594 c 0
 162 697 220 755 300 755 c 0
 380 755 438 697 438 594 c 0
 438 489 380 428 300 428 c 0
300 472 m 0
 346 472 384 513 384 594 c 0
 384 675 346 712 300 712 c 0
 254 712 216 675 216 594 c 0
 216 513 254 472 300 472 c 0
EndSplineSet
Validated: 1
EndChar

StartChar: one.sups
Encoding: 65570 -1 315
Width: 600
Flags: W
HStem: 674 38<210 277.397>
VStem: 292 54<440 674>
LayerCount: 2
Fore
SplineSet
292 440 m 1
 292 674 l 1
 210 674 l 1
 210 712 l 1
 252 719 277 729 304 744 c 1
 346 744 l 1
 346 440 l 1
 292 440 l 1
EndSplineSet
Validated: 1
EndChar

StartChar: two.sups
Encoding: 65571 -1 316
Width: 600
Flags: W
HStem: 440 46<276 420> 667 21G<187.172 222> 710 46<232.624 337.024>
VStem: 350 54<597.377 697.419>
LayerCount: 2
Fore
SplineSet
186 440 m 1
 186 472 l 1
 294 556 350 602 350 648 c 0
 350 686 327 710 286 710 c 0
 258 710 232 692 212 667 c 1
 176 696 l 1
 204 730 246 756 292 756 c 0
 363 756 404 720 404 654 c 0
 404 598 348 550 276 486 c 1
 420 486 l 1
 420 440 l 1
 186 440 l 1
EndSplineSet
Validated: 1
EndChar

StartChar: three.sups
Encoding: 65572 -1 317
Width: 600
Flags: W
HStem: 428 44<229.403 352.878> 498 20G<186.353 214> 577 35<262 327.319> 712 43<230.749 338.53>
VStem: 346 56<626.389 703.822> 362 56<482.698 561.658>
LayerCount: 2
Fore
SplineSet
298 428 m 0xf4
 251 428 204 450 174 484 c 1
 204 518 l 1
 224 492 258 472 296 472 c 0
 334 472 362 487 362 523 c 0xf4
 362 559 330 577 262 577 c 1
 262 612 l 1
 320 612 346 634 346 666 c 0
 346 694 328 712 288 712 c 0
 264 712 234 698 214 676 c 1
 186 710 l 1
 210 738 254 755 298 755 c 0
 359 755 402 725 402 672 c 0
 402 634 385 611 346 597 c 1xf8
 388 587 418 562 418 520 c 0
 418 461 365 428 298 428 c 0xf4
EndSplineSet
Validated: 1
EndChar

StartChar: four.sups
Encoding: 65573 -1 318
Width: 600
Flags: W
HStem: 516 38<232 336 386 436> 695 49<328 340>
VStem: 336 50<440 516 554 695>
LayerCount: 2
Fore
SplineSet
336 440 m 1
 336 516 l 1
 174 516 l 1
 174 542 l 1
 328 744 l 1
 386 744 l 1
 386 554 l 1
 436 554 l 1
 436 516 l 1
 386 516 l 1
 386 440 l 1
 336 440 l 1
232 554 m 1
 336 554 l 1
 336 616 l 1
 340 695 l 1
 338 695 l 1
 303 647 268 601 232 554 c 1
EndSplineSet
Validated: 1
EndChar

StartChar: five.sups
Encoding: 65574 -1 319
Width: 600
Flags: W
HStem: 428 44<230.684 352.478> 498 20G<186.353 216> 596 36<252.544 350.597> 696 48<263 403>
VStem: 368 56<487.894 581.308>
LayerCount: 2
Fore
SplineSet
301 428 m 0
 244 428 208 450 174 484 c 1
 204 518 l 1
 228 492 256 472 298 472 c 0
 338 472 368 496 368 534 c 0
 368 575 340 596 296 596 c 0
 268 596 250 586 230 572 c 1
 201 590 l 1
 218 744 l 1
 403 744 l 1
 403 696 l 1
 263 696 l 1
 252 620 l 1
 269 629 289 632 310 632 c 0
 376 632 424 597 424 534 c 0
 424 470 371 428 301 428 c 0
EndSplineSet
Validated: 1
EndChar

StartChar: six.sups
Encoding: 65575 -1 320
Width: 600
Flags: W
HStem: 428 44<256.53 362.342> 588 38<254.39 360.984> 712 43<270.001 401.7>
VStem: 374 52<483.998 576.846>
LayerCount: 2
Fore
SplineSet
312 428 m 0
 237 428 178 484 178 577 c 0
 178 695 242 755 330 755 c 0
 368 755 396 745 420 728 c 1
 396 688 l 1
 378 702 358 712 330 712 c 0
 273 712 235 672 230 590 c 1
 256 612 287 626 323 626 c 0
 393 626 426 585 426 530 c 0
 426 474 378 428 312 428 c 0
312 472 m 0
 350 472 374 495 374 530 c 0
 374 564 355 588 311 588 c 0
 283 588 258 577 230 551 c 1
 237 495 274 472 312 472 c 0
EndSplineSet
Validated: 1
EndChar

